<?xml version="1.0" encoding="UTF-8"?>
<!DOCTYPE svg PUBLIC "-//W3C//DTD SVG 1.0//EN" "http://www.w3.org/TR/2001/REC-SVG-20010904/DTD/svg10.dtd">
<!-- Creator: CorelDRAW X7 -->
<svg xmlns="http://www.w3.org/2000/svg" xml:space="preserve" width="150px" height="150px" version="1.0" style="shape-rendering:geometricPrecision; text-rendering:geometricPrecision; image-rendering:optimizeQuality; fill-rule:evenodd; clip-rule:evenodd"
viewBox="0 0 4458 4458"
 xmlns:xlink="http://www.w3.org/1999/xlink">
 <defs>
  <style type="text/css">
   <![CDATA[
    .str0 {stroke:#1F5CA9;stroke-width:47.8853}
    .str3 {stroke:#1F5CA9;stroke-width:27.3597}
    .str1 {stroke:#1F5CA9;stroke-width:5.911}
    .str2 {stroke:#1F5CA9;stroke-width:5.911;stroke-linecap:round;stroke-linejoin:round}
    .fil0 {fill:none}
    .fil2 {fill:none;fill-rule:nonzero}
    .fil1 {fill:#1F5CA9;fill-rule:nonzero}
   ]]>
  </style>
 </defs>
 <g id="Capa_x0020_1">
  <metadata id="CorelCorpID_0Corel-Layer"/>
  <circle class="fil0 str0" cx="2229" cy="2229" r="2205"/>
  <path class="fil1" d="M1003 3613l-26 -35c28,-21 57,-31 86,-31 29,1 56,11 81,32 26,21 43,44 51,68 8,24 8,50 0,77 -8,27 -22,52 -40,75 -21,26 -44,44 -69,55 -25,11 -50,14 -76,9 -26,-4 -50,-16 -71,-33 -24,-20 -40,-43 -46,-69 -7,-25 -4,-52 8,-80l37 18c-8,23 -11,42 -7,59 5,17 15,32 31,45 19,15 38,23 58,25 20,1 38,-4 56,-15 17,-11 32,-24 45,-40 17,-21 29,-42 35,-62 7,-20 7,-39 0,-57 -6,-18 -17,-33 -32,-45 -18,-15 -37,-22 -58,-22 -21,0 -42,9 -63,26z"/>
  <path id="1" class="fil1" d="M840 3390l-22 -34c21,-10 43,-13 63,-9 21,5 40,17 58,37 21,25 31,51 28,79 -2,28 -18,55 -45,79 -29,25 -58,37 -87,36 -29,-1 -53,-13 -74,-37 -20,-23 -28,-48 -25,-77 2,-28 18,-54 46,-79 2,-1 5,-3 8,-6l111 128c18,-18 28,-36 30,-54 1,-18 -4,-35 -16,-49 -10,-10 -20,-17 -32,-20 -13,-2 -27,-1 -43,6zm36 136l-83 -96c-13,14 -21,27 -23,39 -3,19 2,36 15,51 11,13 25,21 42,22 17,1 33,-4 49,-16z"/>
  <path id="2" class="fil1" d="M830 3264l-191 124 -18 -29 27 -18c-30,0 -54,-13 -71,-40 -8,-11 -12,-23 -15,-35 -2,-13 -1,-23 3,-32 3,-10 9,-18 17,-26 5,-5 15,-12 30,-22l117 -76 21 32 -116 75c-13,9 -22,16 -27,23 -5,7 -7,15 -7,24 1,9 4,17 9,26 9,14 21,23 36,27 16,4 35,-2 60,-17l104 -68 21 32z"/>
  <path id="3" class="fil1" d="M624 2988l28 -21c7,8 12,16 16,24 7,12 10,23 10,32 0,8 -2,16 -7,22 -5,6 -18,15 -38,26l-114 63 13 25 -26 14 -14 -25 -49 27 -38 -22 69 -38 -18 -34 26 -15 18 34 117 -63c9,-6 15,-10 17,-12 2,-3 4,-6 4,-10 0,-3 -1,-8 -4,-13 -2,-3 -5,-8 -10,-14z"/>
  <path id="4" class="fil1" d="M634 2925l-209 88 -14 -32 32 -14c-18,-2 -31,-5 -39,-10 -7,-5 -13,-11 -16,-20 -5,-12 -6,-25 -4,-41l38 -1c-1,10 0,20 3,29 3,8 9,13 16,18 7,4 15,6 25,5 14,-1 29,-5 44,-12l109 -45 15 35z"/>
  <path id="5" class="fil1" d="M473 2822c-40,12 -73,10 -99,-7 -22,-14 -37,-34 -45,-61 -9,-30 -7,-57 7,-82 14,-25 39,-42 73,-53 28,-8 51,-10 70,-7 18,4 34,12 48,26 14,13 23,29 29,48 9,31 7,58 -7,83 -14,24 -39,42 -76,53zm-11 -38c27,-8 47,-20 57,-37 10,-16 12,-33 7,-52 -6,-18 -17,-31 -35,-39 -17,-8 -40,-8 -69,1 -27,8 -45,20 -55,36 -11,17 -13,34 -8,52 6,18 17,32 35,40 17,8 40,8 68,-1z"/>
  <polygon id="6" class="fil1" points="498,2394 185,2420 182,2378 494,2353 "/>
  <path id="7" class="fil1" d="M491 2272l-227 -2 0 -35 32 1c-25,-17 -37,-41 -37,-73 0,-13 3,-26 8,-37 5,-12 11,-20 19,-26 8,-6 18,-10 29,-12 7,-1 19,-2 37,-2l140 1 -1 39 -137 -1c-16,0 -28,1 -36,4 -7,3 -14,8 -18,16 -5,7 -7,16 -7,27 -1,16 5,30 15,42 10,12 30,18 59,18l124 1 0 39z"/>
  <path id="8" class="fil1" d="M482 1927l34 -1c1,11 1,21 -1,30 -1,14 -5,24 -11,31 -5,7 -12,11 -19,14 -8,2 -23,1 -46,-2l-129 -19 -4 28 -30 -4 4 -28 -55 -8 -18 -41 79 11 5 -38 30 4 -6 38 132 19c11,2 18,2 21,1 3,-1 6,-3 8,-5 3,-3 4,-7 5,-13 0,-4 1,-10 1,-17z"/>
  <path id="9" class="fil1" d="M494 1710l16 -36c21,12 34,29 42,49 7,20 7,42 0,67 -10,32 -27,54 -53,67 -25,13 -55,14 -90,3 -37,-11 -62,-28 -77,-53 -14,-25 -17,-53 -8,-83 8,-29 26,-50 51,-62 25,-13 56,-13 92,-3 2,1 5,2 9,4l-48 162c24,5 44,4 61,-4 16,-8 27,-22 32,-40 4,-13 4,-26 0,-38 -4,-11 -13,-22 -27,-33zm-96 104l37 -122c-19,-4 -34,-3 -46,2 -18,7 -29,20 -35,39 -5,17 -4,33 4,48 8,15 21,26 40,33z"/>
  <path id="10" class="fil1" d="M603 1647l21 -32c11,3 21,3 28,-1 11,-6 20,-16 27,-31 7,-17 10,-31 7,-42 -2,-12 -9,-22 -19,-31 -6,-5 -21,-13 -44,-23 11,24 12,47 1,70 -13,28 -33,45 -61,51 -27,6 -56,3 -84,-10 -20,-9 -36,-21 -50,-36 -13,-15 -21,-31 -24,-49 -3,-17 0,-35 8,-54 12,-24 31,-39 58,-46l-25 -12 15 -32 178 82c32,15 53,29 64,41 10,13 16,28 17,46 1,18 -3,37 -12,58 -12,24 -26,42 -44,52 -18,10 -39,9 -61,-1zm-110 -86c27,12 49,16 66,11 18,-5 30,-16 38,-32 7,-16 7,-32 0,-49 -8,-16 -24,-31 -51,-43 -25,-12 -47,-15 -65,-9 -18,5 -30,15 -38,31 -7,16 -6,32 1,48 8,17 24,31 49,43z"/>
  <path id="11" class="fil1" d="M701 1401l-198 -111 17 -30 30 17c-10,-16 -15,-28 -16,-37 -1,-9 1,-17 6,-25 6,-12 16,-21 30,-29l24 29c-9,6 -16,13 -21,21 -4,7 -5,15 -4,23 1,9 5,16 11,23 10,11 22,20 36,28l104 58 -19 33z"/>
  <path id="12" class="fil1" d="M849 1128c1,19 -1,35 -6,48 -4,13 -11,26 -21,38 -16,19 -32,30 -50,33 -18,2 -35,-2 -49,-14 -9,-7 -15,-16 -19,-25 -4,-10 -6,-20 -5,-30 1,-10 4,-19 8,-29 3,-7 9,-17 17,-30 17,-27 28,-47 33,-62 -4,-3 -7,-6 -8,-6 -12,-10 -23,-14 -32,-13 -13,2 -26,11 -38,26 -11,14 -17,26 -18,37 0,11 4,23 14,36l-28 26c-10,-13 -16,-25 -19,-38 -3,-12 -2,-26 4,-40 5,-15 13,-30 26,-45 12,-16 24,-26 35,-33 11,-6 21,-10 30,-10 9,0 18,3 28,7 6,4 15,11 29,21l40 33c27,22 45,36 54,41 8,4 17,8 27,9l-25 32c-9,-2 -18,-6 -27,-12zm-69 -52c-4,15 -13,34 -28,58 -8,14 -13,24 -15,31 -2,7 -2,13 0,20 2,6 6,11 11,15 8,7 17,9 27,7 10,-1 20,-8 30,-20 9,-11 15,-23 17,-36 2,-13 1,-26 -5,-37 -4,-9 -12,-18 -26,-29l-11 -9z"/>
  <polygon id="13" class="fil1" points="940,1063 714,847 741,819 967,1035 "/>
  <path id="14" class="fil1" d="M1223 809l-18 -23c3,27 -7,49 -29,66 -14,11 -30,18 -48,19 -18,2 -36,-2 -54,-11 -18,-9 -33,-23 -48,-41 -14,-18 -23,-36 -29,-55 -5,-20 -5,-38 1,-55 6,-17 16,-31 31,-43 10,-8 22,-13 34,-15 12,-2 23,-2 34,1l-69 -88 30 -24 193 247 -28 22zm-166 -14c18,23 37,36 55,40 19,4 34,0 48,-10 13,-10 20,-25 21,-43 0,-18 -8,-38 -25,-60 -19,-25 -38,-39 -57,-43 -18,-4 -34,-1 -48,10 -13,11 -20,25 -21,43 0,18 9,39 27,63z"/>
  <path id="15" class="fil1" d="M1415 609l37 -15c6,24 4,45 -4,65 -9,19 -24,35 -47,48 -29,16 -57,20 -84,12 -27,-8 -50,-29 -68,-61 -18,-33 -24,-64 -17,-92 6,-28 24,-49 51,-65 26,-15 53,-18 80,-9 27,9 49,29 68,62 1,2 2,5 4,9l-147 83c13,21 29,34 46,39 18,6 35,4 51,-6 13,-7 21,-16 26,-27 6,-11 7,-25 4,-43zm-141 8l111 -62c-11,-16 -22,-26 -34,-30 -18,-7 -35,-6 -52,4 -16,8 -26,21 -30,37 -5,16 -3,33 5,51z"/>
  <path id="16" class="fil1" d="M1657 576l-70 -305 61 -14 122 200c11,18 19,32 25,42 1,-12 2,-30 5,-53l24 -229 55 -13 70 306 -39 9 -59 -256 -30 276 -37 8 -147 -239 59 259 -39 9z"/>
  <path id="17" class="fil1" d="M2173 415l40 2c-4,24 -15,43 -30,57 -16,14 -37,22 -64,24 -33,3 -60,-5 -81,-24 -21,-19 -33,-47 -36,-83 -3,-38 4,-69 22,-91 18,-23 43,-36 74,-38 30,-3 56,6 77,25 21,19 33,47 36,84 0,3 0,6 0,11l-169 13c4,25 12,44 26,56 14,12 30,17 49,16 14,-1 26,-6 35,-14 10,-9 16,-21 21,-38zm-131 -51l126 -11c-3,-19 -9,-32 -18,-41 -13,-14 -29,-20 -49,-19 -18,2 -32,9 -43,22 -11,12 -16,29 -16,49z"/>
  <path id="18" class="fil1" d="M2282 223l0 -45 39 1 0 44 -39 0zm-51 356l8 -32c7,2 13,3 18,3 8,0 13,-3 17,-8 4,-5 6,-18 6,-39l2 -238 38 0 -1 239c0,28 -4,48 -12,58 -9,15 -24,22 -46,22 -10,-1 -20,-2 -30,-5z"/>
  <path id="19" class="fil1" d="M2393 382c6,-41 22,-71 48,-87 22,-14 46,-19 74,-15 31,4 55,18 72,41 16,23 22,52 17,88 -4,29 -12,51 -23,66 -11,16 -25,27 -43,34 -18,6 -37,8 -56,6 -32,-5 -56,-19 -72,-42 -17,-23 -22,-53 -17,-91zm39 6c-4,28 -1,51 10,67 10,16 25,26 44,28 19,3 36,-2 51,-15 14,-12 24,-33 28,-63 4,-28 0,-50 -10,-66 -11,-16 -25,-25 -44,-28 -19,-3 -36,2 -51,15 -14,12 -24,33 -28,62z"/>
  <path id="20" class="fil1" d="M2644 538l64 -218 34 10 -10 33c13,-13 24,-21 32,-24 9,-3 18,-3 26,0 13,3 24,11 35,23l-23 30c-7,-8 -16,-13 -25,-16 -8,-2 -16,-2 -24,1 -7,3 -14,8 -19,16 -8,12 -15,26 -19,42l-34 114 -37 -11z"/>
  <path id="21" class="fil1" d="M2946 610c-18,7 -34,10 -48,10 -14,0 -28,-3 -42,-8 -24,-9 -39,-21 -48,-37 -8,-16 -9,-33 -2,-51 4,-11 10,-19 18,-26 8,-7 17,-11 26,-14 10,-2 20,-3 31,-2 7,1 19,3 33,7 31,7 54,11 69,12 2,-5 4,-8 4,-10 6,-14 6,-26 1,-35 -6,-11 -18,-20 -36,-27 -17,-7 -30,-8 -41,-5 -10,3 -20,11 -29,24l-34 -18c9,-13 19,-24 30,-30 10,-7 24,-10 39,-10 16,1 33,4 51,11 19,7 33,14 42,23 10,8 16,17 19,25 3,9 4,18 2,29 -1,7 -4,18 -10,34l-18 48c-13,33 -20,55 -22,64 -2,10 -2,19 0,29l-38 -14c-1,-9 0,-18 3,-29zm27 -81c-15,0 -37,-3 -64,-9 -16,-3 -27,-5 -34,-4 -7,0 -14,2 -19,6 -5,4 -9,9 -11,15 -4,10 -3,19 2,28 5,9 14,17 28,22 14,5 27,7 40,5 13,-2 25,-8 34,-16 6,-7 13,-18 19,-34l5 -13z"/>
  <path id="22" class="fil1" d="M3035 682l121 -192 29 18 -17 27c12,-5 25,-8 39,-7 13,0 26,5 39,13 14,9 24,19 30,31 5,11 6,24 3,37 30,-13 56,-12 81,3 19,12 30,27 34,44 3,17 -2,36 -15,58l-83 132 -33 -20 76 -121c9,-13 13,-23 15,-31 1,-7 0,-14 -3,-21 -3,-7 -9,-12 -16,-17 -14,-9 -28,-11 -42,-8 -15,4 -28,15 -41,35l-70 112 -33 -21 79 -125c9,-14 13,-27 12,-37 0,-11 -7,-20 -19,-28 -9,-5 -19,-8 -30,-8 -11,0 -21,3 -30,10 -9,7 -20,20 -31,37l-62 100 -33 -21z"/>
  <path id="23" class="fil1" d="M3521 692l29 -33 29 25 -29 33 -29 -25zm-175 205l148 -173 29 25 -147 173 -30 -25z"/>
  <path id="24" class="fil1" d="M3590 1033l24 33c-22,11 -43,14 -64,10 -21,-3 -40,-15 -58,-34 -22,-25 -33,-51 -31,-79 2,-28 17,-55 44,-80 28,-26 56,-39 85,-39 29,1 54,12 75,35 21,23 30,48 28,76 -2,28 -17,55 -45,80 -1,2 -4,4 -7,7l-115 -124c-17,18 -27,36 -28,54 -1,18 5,34 18,48 9,11 20,17 32,19 12,3 26,1 42,-6zm-39 -135l86 93c12,-14 20,-27 21,-40 3,-19 -2,-36 -16,-50 -12,-13 -26,-20 -43,-21 -17,-1 -33,5 -48,18z"/>
  <path id="25" class="fil1" d="M3603 1159l187 -129 20 29 -27 18c30,0 54,12 72,38 8,11 13,23 15,35 3,13 2,23 -1,33 -3,9 -9,18 -17,26 -5,5 -15,12 -29,23l-115 79 -22 -32 114 -78c13,-9 21,-17 26,-24 5,-7 7,-15 6,-24 0,-8 -3,-17 -9,-26 -9,-13 -22,-22 -37,-26 -15,-3 -35,3 -59,19l-102 71 -22 -32z"/>
  <path id="26" class="fil1" d="M3814 1431l-27 21c-7,-8 -13,-16 -17,-24 -6,-12 -10,-22 -9,-31 0,-9 2,-17 7,-23 5,-6 17,-15 38,-26l114 -63 -13 -24 26 -15 13 25 50 -27 38 23 -69 38 18 34 -26 14 -18 -34 -117 64c-10,5 -15,9 -17,12 -3,2 -4,5 -4,9 0,4 1,8 4,13 2,4 5,8 9,14z"/>
  <path id="27" class="fil1" d="M3908 1436c39,-17 72,-18 100,-4 23,12 40,30 51,56 12,29 12,56 1,83 -11,26 -34,46 -67,60 -27,11 -50,16 -69,14 -18,-2 -35,-8 -50,-20 -15,-12 -27,-27 -34,-45 -13,-30 -13,-57 -2,-83 11,-26 35,-47 70,-61zm15 36c-26,11 -44,26 -53,43 -8,17 -9,35 -1,52 7,18 20,30 38,36 19,6 42,3 69,-8 26,-11 43,-25 52,-42 8,-18 9,-35 1,-53 -7,-17 -20,-29 -38,-35 -18,-7 -41,-4 -68,7z"/>
  <path id="28" class="fil1" d="M3921 1798l329 66 8 44 -288 179 -8 -47 88 -52 -22 -129 -99 -18 -8 -43zm142 67l18 105 80 -47c24,-14 44,-25 60,-32 -20,-1 -41,-3 -62,-7l-96 -19z"/>
  <path id="29" class="fil1" d="M4051 2277l-5 38c-26,-4 -46,-14 -61,-31 -15,-17 -22,-38 -23,-63 0,-31 10,-56 31,-75 20,-19 49,-29 87,-29 24,0 46,4 64,12 19,8 32,20 42,37 9,17 14,35 14,54 0,25 -6,45 -19,61 -12,15 -30,26 -53,30l-6 -37c16,-4 27,-10 35,-19 7,-9 11,-20 11,-33 0,-20 -7,-35 -21,-47 -14,-12 -36,-18 -66,-18 -30,0 -53,6 -66,18 -14,11 -21,27 -21,46 0,15 5,27 14,37 9,10 24,17 43,19z"/>
  <path id="30" class="fil1" d="M3974 2513c-10,-16 -17,-31 -20,-45 -3,-13 -3,-28 -1,-43 3,-24 12,-43 26,-54 14,-12 30,-16 49,-13 11,1 21,5 29,11 9,7 15,14 19,23 5,9 8,19 9,29 1,8 1,20 1,35 -1,31 0,55 3,70 5,1 9,1 10,2 16,2 27,0 35,-7 10,-8 16,-22 19,-41 2,-18 1,-32 -4,-41 -5,-10 -15,-17 -31,-24l11 -36c15,5 27,13 36,22 9,9 15,21 18,37 3,15 3,33 0,52 -2,19 -7,34 -13,46 -6,11 -13,19 -21,24 -8,4 -17,7 -28,8 -6,0 -18,-1 -35,-3l-51 -7c-35,-6 -58,-8 -67,-8 -10,1 -19,3 -29,6l6 -40c8,-2 18,-4 29,-3zm85 9c-3,-15 -5,-36 -5,-65 0,-16 -1,-27 -3,-34 -2,-7 -5,-12 -10,-17 -5,-4 -11,-7 -18,-8 -10,-1 -19,2 -27,8 -7,7 -13,18 -15,33 -2,14 0,28 4,40 5,13 13,22 23,29 8,5 21,9 37,12l14 2z"/>
  <path id="31" class="fil1" d="M3887 2757l27 9c-17,-21 -22,-44 -14,-71 5,-17 15,-32 29,-43 14,-12 30,-19 50,-22 19,-3 40,-1 63,6 21,6 40,16 55,28 16,13 26,28 31,45 5,17 5,35 0,53 -4,13 -10,24 -19,32 -9,9 -18,15 -29,19l107 32 -11 37 -300 -90 11 -35zm143 -83c-28,-9 -50,-9 -68,-2 -17,8 -28,20 -33,36 -5,16 -2,31 8,47 9,15 28,27 55,35 30,9 53,9 71,2 17,-7 28,-19 33,-36 5,-16 3,-32 -8,-47 -10,-15 -29,-27 -58,-35z"/>
  <path id="32" class="fil1" d="M3855 3034l-21 34c-19,-15 -30,-33 -35,-54 -4,-21 -1,-43 10,-67 14,-31 34,-50 61,-59 26,-9 57,-6 90,9 35,16 58,38 69,64 11,27 9,54 -4,83 -12,27 -32,46 -59,55 -27,8 -57,5 -91,-11 -2,-1 -5,-2 -9,-4l70 -154c-23,-9 -43,-11 -61,-5 -17,6 -30,18 -37,35 -6,13 -8,25 -5,38 2,12 10,24 22,36zm109 -89l-53 115c18,7 33,8 45,5 19,-5 32,-16 40,-34 8,-16 9,-32 3,-48 -6,-16 -17,-28 -35,-38zm92 88l42 51 -21 46 -35 -68 14 -29z"/>
  <path id="33" class="fil1" d="M3746 3097l185 132 -20 28 -26 -19c5,12 6,25 5,39 -1,13 -6,26 -15,39 -10,13 -21,23 -33,27 -12,5 -24,5 -37,2 11,30 9,56 -8,80 -13,18 -28,29 -46,31 -17,3 -36,-3 -57,-18l-127 -91 22 -31 117 83c12,9 22,14 29,16 7,2 14,2 21,-1 7,-3 14,-8 19,-15 9,-13 12,-27 10,-42 -3,-15 -13,-29 -32,-43l-108 -76 23 -32 120 86c13,10 26,15 36,15 11,0 20,-6 29,-18 6,-8 9,-18 10,-29 1,-11 -2,-21 -9,-31 -6,-10 -18,-21 -35,-32l-95 -69 22 -31z"/>
  <path id="34" class="fil1" d="M3711 3583l32 31 -26 28 -32 -31 26 -28zm-194 -186l164 157 -27 28 -164 -157 27 -28z"/>
  <path id="35" class="fil1" d="M3384 3638l-32 21c-14,-22 -19,-45 -16,-67 3,-22 14,-42 33,-58 23,-20 49,-29 76,-26 28,3 54,19 79,47 16,19 27,38 33,57 6,19 6,37 -1,55 -6,18 -17,34 -32,46 -18,17 -38,25 -58,26 -20,1 -39,-6 -57,-20l24 -29c13,9 25,13 37,13 12,0 23,-4 32,-13 15,-12 22,-28 22,-46 0,-19 -10,-39 -29,-62 -20,-23 -39,-36 -57,-39 -18,-2 -34,2 -48,15 -12,10 -18,21 -20,35 -1,14 3,29 14,45z"/>
  <path id="36" class="fil1" d="M3338 3716c23,36 31,68 22,98 -7,25 -23,45 -46,60 -26,17 -53,22 -81,16 -28,-6 -51,-25 -71,-55 -16,-24 -25,-46 -27,-65 -1,-18 2,-36 11,-53 9,-17 22,-31 39,-42 26,-17 53,-23 81,-16 27,6 52,25 72,57zm-33 22c-16,-24 -33,-39 -51,-44 -19,-5 -36,-3 -52,8 -16,10 -25,25 -28,44 -3,19 4,41 20,66 15,24 32,38 51,43 19,5 36,3 52,-8 16,-10 25,-25 28,-44 3,-19 -4,-41 -20,-65z"/>
  <path id="37" class="fil2 str1" d="M1003 3613l-26 -35c28,-21 57,-31 86,-31 29,1 56,11 81,32 26,21 43,44 51,68 8,24 8,50 0,77 -8,27 -22,52 -40,75 -21,26 -44,44 -69,55 -25,11 -50,14 -76,9 -26,-4 -50,-16 -71,-33 -24,-20 -40,-43 -46,-69 -7,-25 -4,-52 8,-80l37 18c-8,23 -11,42 -7,59 5,17 15,32 31,45 19,15 38,23 58,25 20,1 38,-4 56,-15 17,-11 32,-24 45,-40 17,-21 29,-42 35,-62 7,-20 7,-39 0,-57 -6,-18 -17,-33 -32,-45 -18,-15 -37,-22 -58,-22 -21,0 -42,9 -63,26z"/>
  <path id="38" class="fil2 str1" d="M840 3390l-22 -34c21,-10 43,-13 63,-9 21,5 40,17 58,37 21,25 31,51 28,79 -2,28 -18,55 -45,79 -29,25 -58,37 -87,36 -29,-1 -53,-13 -74,-37 -20,-23 -28,-48 -25,-77 2,-28 18,-54 46,-79 2,-1 5,-3 8,-6l111 128c18,-18 28,-36 30,-54 1,-18 -4,-35 -16,-49 -10,-10 -20,-17 -32,-20 -13,-2 -27,-1 -43,6zm36 136l-83 -96c-13,14 -21,27 -23,39 -3,19 2,36 15,51 11,13 25,21 42,22 17,1 33,-4 49,-16z"/>
  <path id="39" class="fil2 str1" d="M830 3264l-191 124 -18 -29 27 -18c-30,0 -54,-13 -71,-40 -8,-11 -12,-23 -15,-35 -2,-13 -1,-23 3,-32 3,-10 9,-18 17,-26 5,-5 15,-12 30,-22l117 -76 21 32 -116 75c-13,9 -22,16 -27,23 -5,7 -7,15 -7,24 1,9 4,17 9,26 9,14 21,23 36,27 16,4 35,-2 60,-17l104 -68 21 32z"/>
  <path id="40" class="fil2 str1" d="M624 2988l28 -21c7,8 12,16 16,24 7,12 10,23 10,32 0,8 -2,16 -7,22 -5,6 -18,15 -38,26l-114 63 13 25 -26 14 -14 -25 -49 27 -38 -22 69 -38 -18 -34 26 -15 18 34 117 -63c9,-6 15,-10 17,-12 2,-3 4,-6 4,-10 0,-3 -1,-8 -4,-13 -2,-3 -5,-8 -10,-14z"/>
  <path id="41" class="fil2 str1" d="M634 2925l-209 88 -14 -32 32 -14c-18,-2 -31,-5 -39,-10 -7,-5 -13,-11 -16,-20 -5,-12 -6,-25 -4,-41l38 -1c-1,10 0,20 3,29 3,8 9,13 16,18 7,4 15,6 25,5 14,-1 29,-5 44,-12l109 -45 15 35z"/>
  <path id="42" class="fil2 str1" d="M473 2822c-40,12 -73,10 -99,-7 -22,-14 -37,-34 -45,-61 -9,-30 -7,-57 7,-82 14,-25 39,-42 73,-53 28,-8 51,-10 70,-7 18,4 34,12 48,26 14,13 23,29 29,48 9,31 7,58 -7,83 -14,24 -39,42 -76,53zm-11 -38c27,-8 47,-20 57,-37 10,-16 12,-33 7,-52 -6,-18 -17,-31 -35,-39 -17,-8 -40,-8 -69,1 -27,8 -45,20 -55,36 -11,17 -13,34 -8,52 6,18 17,32 35,40 17,8 40,8 68,-1z"/>
  <polygon id="43" class="fil2 str1" points="498,2394 185,2420 182,2378 494,2353 "/>
  <path id="44" class="fil2 str1" d="M491 2272l-227 -2 0 -35 32 1c-25,-17 -37,-41 -37,-73 0,-13 3,-26 8,-37 5,-12 11,-20 19,-26 8,-6 18,-10 29,-12 7,-1 19,-2 37,-2l140 1 -1 39 -137 -1c-16,0 -28,1 -36,4 -7,3 -14,8 -18,16 -5,7 -7,16 -7,27 -1,16 5,30 15,42 10,12 30,18 59,18l124 1 0 39z"/>
  <path id="45" class="fil2 str1" d="M482 1927l34 -1c1,11 1,21 -1,30 -1,14 -5,24 -11,31 -5,7 -12,11 -19,14 -8,2 -23,1 -46,-2l-129 -19 -4 28 -30 -4 4 -28 -55 -8 -18 -41 79 11 5 -38 30 4 -6 38 132 19c11,2 18,2 21,1 3,-1 6,-3 8,-5 3,-3 4,-7 5,-13 0,-4 1,-10 1,-17z"/>
  <path id="46" class="fil2 str1" d="M494 1710l16 -36c21,12 34,29 42,49 7,20 7,42 0,67 -10,32 -27,54 -53,67 -25,13 -55,14 -90,3 -37,-11 -62,-28 -77,-53 -14,-25 -17,-53 -8,-83 8,-29 26,-50 51,-62 25,-13 56,-13 92,-3 2,1 5,2 9,4l-48 162c24,5 44,4 61,-4 16,-8 27,-22 32,-40 4,-13 4,-26 0,-38 -4,-11 -13,-22 -27,-33zm-96 104l37 -122c-19,-4 -34,-3 -46,2 -18,7 -29,20 -35,39 -5,17 -4,33 4,48 8,15 21,26 40,33z"/>
  <path id="47" class="fil2 str1" d="M603 1647l21 -32c11,3 21,3 28,-1 11,-6 20,-16 27,-31 7,-17 10,-31 7,-42 -2,-12 -9,-22 -19,-31 -6,-5 -21,-13 -44,-23 11,24 12,47 1,70 -13,28 -33,45 -61,51 -27,6 -56,3 -84,-10 -20,-9 -36,-21 -50,-36 -13,-15 -21,-31 -24,-49 -3,-17 0,-35 8,-54 12,-24 31,-39 58,-46l-25 -12 15 -32 178 82c32,15 53,29 64,41 10,13 16,28 17,46 1,18 -3,37 -12,58 -12,24 -26,42 -44,52 -18,10 -39,9 -61,-1zm-110 -86c27,12 49,16 66,11 18,-5 30,-16 38,-32 7,-16 7,-32 0,-49 -8,-16 -24,-31 -51,-43 -25,-12 -47,-15 -65,-9 -18,5 -30,15 -38,31 -7,16 -6,32 1,48 8,17 24,31 49,43z"/>
  <path id="48" class="fil2 str1" d="M701 1401l-198 -111 17 -30 30 17c-10,-16 -15,-28 -16,-37 -1,-9 1,-17 6,-25 6,-12 16,-21 30,-29l24 29c-9,6 -16,13 -21,21 -4,7 -5,15 -4,23 1,9 5,16 11,23 10,11 22,20 36,28l104 58 -19 33z"/>
  <path id="49" class="fil2 str1" d="M849 1128c1,19 -1,35 -6,48 -4,13 -11,26 -21,38 -16,19 -32,30 -50,33 -18,2 -35,-2 -49,-14 -9,-7 -15,-16 -19,-25 -4,-10 -6,-20 -5,-30 1,-10 4,-19 8,-29 3,-7 9,-17 17,-30 17,-27 28,-47 33,-62 -4,-3 -7,-6 -8,-6 -12,-10 -23,-14 -32,-13 -13,2 -26,11 -38,26 -11,14 -17,26 -18,37 0,11 4,23 14,36l-28 26c-10,-13 -16,-25 -19,-38 -3,-12 -2,-26 4,-40 5,-15 13,-30 26,-45 12,-16 24,-26 35,-33 11,-6 21,-10 30,-10 9,0 18,3 28,7 6,4 15,11 29,21l40 33c27,22 45,36 54,41 8,4 17,8 27,9l-25 32c-9,-2 -18,-6 -27,-12zm-69 -52c-4,15 -13,34 -28,58 -8,14 -13,24 -15,31 -2,7 -2,13 0,20 2,6 6,11 11,15 8,7 17,9 27,7 10,-1 20,-8 30,-20 9,-11 15,-23 17,-36 2,-13 1,-26 -5,-37 -4,-9 -12,-18 -26,-29l-11 -9z"/>
  <polygon id="50" class="fil2 str1" points="940,1063 714,847 741,819 967,1035 "/>
  <path id="51" class="fil2 str1" d="M1223 809l-18 -23c3,27 -7,49 -29,66 -14,11 -30,18 -48,19 -18,2 -36,-2 -54,-11 -18,-9 -33,-23 -48,-41 -14,-18 -23,-36 -29,-55 -5,-20 -5,-38 1,-55 6,-17 16,-31 31,-43 10,-8 22,-13 34,-15 12,-2 23,-2 34,1l-69 -88 30 -24 193 247 -28 22zm-166 -14c18,23 37,36 55,40 19,4 34,0 48,-10 13,-10 20,-25 21,-43 0,-18 -8,-38 -25,-60 -19,-25 -38,-39 -57,-43 -18,-4 -34,-1 -48,10 -13,11 -20,25 -21,43 0,18 9,39 27,63z"/>
  <path id="52" class="fil2 str1" d="M1415 609l37 -15c6,24 4,45 -4,65 -9,19 -24,35 -47,48 -29,16 -57,20 -84,12 -27,-8 -50,-29 -68,-61 -18,-33 -24,-64 -17,-92 6,-28 24,-49 51,-65 26,-15 53,-18 80,-9 27,9 49,29 68,62 1,2 2,5 4,9l-147 83c13,21 29,34 46,39 18,6 35,4 51,-6 13,-7 21,-16 26,-27 6,-11 7,-25 4,-43zm-141 8l111 -62c-11,-16 -22,-26 -34,-30 -18,-7 -35,-6 -52,4 -16,8 -26,21 -30,37 -5,16 -3,33 5,51z"/>
  <path id="53" class="fil2 str1" d="M1657 576l-70 -305 61 -14 122 200c11,18 19,32 25,42 1,-12 2,-30 5,-53l24 -229 55 -13 70 306 -39 9 -59 -256 -30 276 -37 8 -147 -239 59 259 -39 9z"/>
  <path id="54" class="fil2 str1" d="M2173 415l40 2c-4,24 -15,43 -30,57 -16,14 -37,22 -64,24 -33,3 -60,-5 -81,-24 -21,-19 -33,-47 -36,-83 -3,-38 4,-69 22,-91 18,-23 43,-36 74,-38 30,-3 56,6 77,25 21,19 33,47 36,84 0,3 0,6 0,11l-169 13c4,25 12,44 26,56 14,12 30,17 49,16 14,-1 26,-6 35,-14 10,-9 16,-21 21,-38zm-131 -51l126 -11c-3,-19 -9,-32 -18,-41 -13,-14 -29,-20 -49,-19 -18,2 -32,9 -43,22 -11,12 -16,29 -16,49z"/>
  <path id="55" class="fil2 str1" d="M2282 223l0 -45 39 1 0 44 -39 0zm-51 356l8 -32c7,2 13,3 18,3 8,0 13,-3 17,-8 4,-5 6,-18 6,-39l2 -238 38 0 -1 239c0,28 -4,48 -12,58 -9,15 -24,22 -46,22 -10,-1 -20,-2 -30,-5z"/>
  <path id="56" class="fil2 str1" d="M2393 382c6,-41 22,-71 48,-87 22,-14 46,-19 74,-15 31,4 55,18 72,41 16,23 22,52 17,88 -4,29 -12,51 -23,66 -11,16 -25,27 -43,34 -18,6 -37,8 -56,6 -32,-5 -56,-19 -72,-42 -17,-23 -22,-53 -17,-91zm39 6c-4,28 -1,51 10,67 10,16 25,26 44,28 19,3 36,-2 51,-15 14,-12 24,-33 28,-63 4,-28 0,-50 -10,-66 -11,-16 -25,-25 -44,-28 -19,-3 -36,2 -51,15 -14,12 -24,33 -28,62z"/>
  <path id="57" class="fil2 str1" d="M2644 538l64 -218 34 10 -10 33c13,-13 24,-21 32,-24 9,-3 18,-3 26,0 13,3 24,11 35,23l-23 30c-7,-8 -16,-13 -25,-16 -8,-2 -16,-2 -24,1 -7,3 -14,8 -19,16 -8,12 -15,26 -19,42l-34 114 -37 -11z"/>
  <path id="58" class="fil2 str1" d="M2946 610c-18,7 -34,10 -48,10 -14,0 -28,-3 -42,-8 -24,-9 -39,-21 -48,-37 -8,-16 -9,-33 -2,-51 4,-11 10,-19 18,-26 8,-7 17,-11 26,-14 10,-2 20,-3 31,-2 7,1 19,3 33,7 31,7 54,11 69,12 2,-5 4,-8 4,-10 6,-14 6,-26 1,-35 -6,-11 -18,-20 -36,-27 -17,-7 -30,-8 -41,-5 -10,3 -20,11 -29,24l-34 -18c9,-13 19,-24 30,-30 10,-7 24,-10 39,-10 16,1 33,4 51,11 19,7 33,14 42,23 10,8 16,17 19,25 3,9 4,18 2,29 -1,7 -4,18 -10,34l-18 48c-13,33 -20,55 -22,64 -2,10 -2,19 0,29l-38 -14c-1,-9 0,-18 3,-29zm27 -81c-15,0 -37,-3 -64,-9 -16,-3 -27,-5 -34,-4 -7,0 -14,2 -19,6 -5,4 -9,9 -11,15 -4,10 -3,19 2,28 5,9 14,17 28,22 14,5 27,7 40,5 13,-2 25,-8 34,-16 6,-7 13,-18 19,-34l5 -13z"/>
  <path id="59" class="fil2 str1" d="M3035 682l121 -192 29 18 -17 27c12,-5 25,-8 39,-7 13,0 26,5 39,13 14,9 24,19 30,31 5,11 6,24 3,37 30,-13 56,-12 81,3 19,12 30,27 34,44 3,17 -2,36 -15,58l-83 132 -33 -20 76 -121c9,-13 13,-23 15,-31 1,-7 0,-14 -3,-21 -3,-7 -9,-12 -16,-17 -14,-9 -28,-11 -42,-8 -15,4 -28,15 -41,35l-70 112 -33 -21 79 -125c9,-14 13,-27 12,-37 0,-11 -7,-20 -19,-28 -9,-5 -19,-8 -30,-8 -11,0 -21,3 -30,10 -9,7 -20,20 -31,37l-62 100 -33 -21z"/>
  <path id="60" class="fil2 str1" d="M3521 692l29 -33 29 25 -29 33 -29 -25zm-175 205l148 -173 29 25 -147 173 -30 -25z"/>
  <path id="61" class="fil2 str1" d="M3590 1033l24 33c-22,11 -43,14 -64,10 -21,-3 -40,-15 -58,-34 -22,-25 -33,-51 -31,-79 2,-28 17,-55 44,-80 28,-26 56,-39 85,-39 29,1 54,12 75,35 21,23 30,48 28,76 -2,28 -17,55 -45,80 -1,2 -4,4 -7,7l-115 -124c-17,18 -27,36 -28,54 -1,18 5,34 18,48 9,11 20,17 32,19 12,3 26,1 42,-6zm-39 -135l86 93c12,-14 20,-27 21,-40 3,-19 -2,-36 -16,-50 -12,-13 -26,-20 -43,-21 -17,-1 -33,5 -48,18z"/>
  <path id="62" class="fil2 str1" d="M3603 1159l187 -129 20 29 -27 18c30,0 54,12 72,38 8,11 13,23 15,35 3,13 2,23 -1,33 -3,9 -9,18 -17,26 -5,5 -15,12 -29,23l-115 79 -22 -32 114 -78c13,-9 21,-17 26,-24 5,-7 7,-15 6,-24 0,-8 -3,-17 -9,-26 -9,-13 -22,-22 -37,-26 -15,-3 -35,3 -59,19l-102 71 -22 -32z"/>
  <path id="63" class="fil2 str1" d="M3814 1431l-27 21c-7,-8 -13,-16 -17,-24 -6,-12 -10,-22 -9,-31 0,-9 2,-17 7,-23 5,-6 17,-15 38,-26l114 -63 -13 -24 26 -15 13 25 50 -27 38 23 -69 38 18 34 -26 14 -18 -34 -117 64c-10,5 -15,9 -17,12 -3,2 -4,5 -4,9 0,4 1,8 4,13 2,4 5,8 9,14z"/>
  <path id="64" class="fil2 str1" d="M3908 1436c39,-17 72,-18 100,-4 23,12 40,30 51,56 12,29 12,56 1,83 -11,26 -34,46 -67,60 -27,11 -50,16 -69,14 -18,-2 -35,-8 -50,-20 -15,-12 -27,-27 -34,-45 -13,-30 -13,-57 -2,-83 11,-26 35,-47 70,-61zm15 36c-26,11 -44,26 -53,43 -8,17 -9,35 -1,52 7,18 20,30 38,36 19,6 42,3 69,-8 26,-11 43,-25 52,-42 8,-18 9,-35 1,-53 -7,-17 -20,-29 -38,-35 -18,-7 -41,-4 -68,7z"/>
  <path id="65" class="fil2 str1" d="M3921 1798l329 66 8 44 -288 179 -8 -47 88 -52 -22 -129 -99 -18 -8 -43zm142 67l18 105 80 -47c24,-14 44,-25 60,-32 -20,-1 -41,-3 -62,-7l-96 -19z"/>
  <path id="66" class="fil2 str1" d="M4051 2277l-5 38c-26,-4 -46,-14 -61,-31 -15,-17 -22,-38 -23,-63 0,-31 10,-56 31,-75 20,-19 49,-29 87,-29 24,0 46,4 64,12 19,8 32,20 42,37 9,17 14,35 14,54 0,25 -6,45 -19,61 -12,15 -30,26 -53,30l-6 -37c16,-4 27,-10 35,-19 7,-9 11,-20 11,-33 0,-20 -7,-35 -21,-47 -14,-12 -36,-18 -66,-18 -30,0 -53,6 -66,18 -14,11 -21,27 -21,46 0,15 5,27 14,37 9,10 24,17 43,19z"/>
  <path id="67" class="fil2 str1" d="M3974 2513c-10,-16 -17,-31 -20,-45 -3,-13 -3,-28 -1,-43 3,-24 12,-43 26,-54 14,-12 30,-16 49,-13 11,1 21,5 29,11 9,7 15,14 19,23 5,9 8,19 9,29 1,8 1,20 1,35 -1,31 0,55 3,70 5,1 9,1 10,2 16,2 27,0 35,-7 10,-8 16,-22 19,-41 2,-18 1,-32 -4,-41 -5,-10 -15,-17 -31,-24l11 -36c15,5 27,13 36,22 9,9 15,21 18,37 3,15 3,33 0,52 -2,19 -7,34 -13,46 -6,11 -13,19 -21,24 -8,4 -17,7 -28,8 -6,0 -18,-1 -35,-3l-51 -7c-35,-6 -58,-8 -67,-8 -10,1 -19,3 -29,6l6 -40c8,-2 18,-4 29,-3zm85 9c-3,-15 -5,-36 -5,-65 0,-16 -1,-27 -3,-34 -2,-7 -5,-12 -10,-17 -5,-4 -11,-7 -18,-8 -10,-1 -19,2 -27,8 -7,7 -13,18 -15,33 -2,14 0,28 4,40 5,13 13,22 23,29 8,5 21,9 37,12l14 2z"/>
  <path id="68" class="fil2 str1" d="M3887 2757l27 9c-17,-21 -22,-44 -14,-71 5,-17 15,-32 29,-43 14,-12 30,-19 50,-22 19,-3 40,-1 63,6 21,6 40,16 55,28 16,13 26,28 31,45 5,17 5,35 0,53 -4,13 -10,24 -19,32 -9,9 -18,15 -29,19l107 32 -11 37 -300 -90 11 -35zm143 -83c-28,-9 -50,-9 -68,-2 -17,8 -28,20 -33,36 -5,16 -2,31 8,47 9,15 28,27 55,35 30,9 53,9 71,2 17,-7 28,-19 33,-36 5,-16 3,-32 -8,-47 -10,-15 -29,-27 -58,-35z"/>
  <path id="69" class="fil2 str1" d="M3855 3034l-21 34c-19,-15 -30,-33 -35,-54 -4,-21 -1,-43 10,-67 14,-31 34,-50 61,-59 26,-9 57,-6 90,9 35,16 58,38 69,64 11,27 9,54 -4,83 -12,27 -32,46 -59,55 -27,8 -57,5 -91,-11 -2,-1 -5,-2 -9,-4l70 -154c-23,-9 -43,-11 -61,-5 -17,6 -30,18 -37,35 -6,13 -8,25 -5,38 2,12 10,24 22,36zm109 -89l-53 115c18,7 33,8 45,5 19,-5 32,-16 40,-34 8,-16 9,-32 3,-48 -6,-16 -17,-28 -35,-38zm92 88l42 51 -21 46 -35 -68 14 -29z"/>
  <path id="70" class="fil2 str1" d="M3746 3097l185 132 -20 28 -26 -19c5,12 6,25 5,39 -1,13 -6,26 -15,39 -10,13 -21,23 -33,27 -12,5 -24,5 -37,2 11,30 9,56 -8,80 -13,18 -28,29 -46,31 -17,3 -36,-3 -57,-18l-127 -91 22 -31 117 83c12,9 22,14 29,16 7,2 14,2 21,-1 7,-3 14,-8 19,-15 9,-13 12,-27 10,-42 -3,-15 -13,-29 -32,-43l-108 -76 23 -32 120 86c13,10 26,15 36,15 11,0 20,-6 29,-18 6,-8 9,-18 10,-29 1,-11 -2,-21 -9,-31 -6,-10 -18,-21 -35,-32l-95 -69 22 -31z"/>
  <path id="71" class="fil2 str1" d="M3711 3583l32 31 -26 28 -32 -31 26 -28zm-194 -186l164 157 -27 28 -164 -157 27 -28z"/>
  <path id="72" class="fil2 str1" d="M3384 3638l-32 21c-14,-22 -19,-45 -16,-67 3,-22 14,-42 33,-58 23,-20 49,-29 76,-26 28,3 54,19 79,47 16,19 27,38 33,57 6,19 6,37 -1,55 -6,18 -17,34 -32,46 -18,17 -38,25 -58,26 -20,1 -39,-6 -57,-20l24 -29c13,9 25,13 37,13 12,0 23,-4 32,-13 15,-12 22,-28 22,-46 0,-19 -10,-39 -29,-62 -20,-23 -39,-36 -57,-39 -18,-2 -34,2 -48,15 -12,10 -18,21 -20,35 -1,14 3,29 14,45z"/>
  <path id="73" class="fil2 str1" d="M3338 3716c23,36 31,68 22,98 -7,25 -23,45 -46,60 -26,17 -53,22 -81,16 -28,-6 -51,-25 -71,-55 -16,-24 -25,-46 -27,-65 -1,-18 2,-36 11,-53 9,-17 22,-31 39,-42 26,-17 53,-23 81,-16 27,6 52,25 72,57zm-33 22c-16,-24 -33,-39 -51,-44 -19,-5 -36,-3 -52,8 -16,10 -25,25 -28,44 -3,19 4,41 20,66 15,24 32,38 51,43 19,5 36,3 52,-8 16,-10 25,-25 28,-44 3,-19 -4,-41 -20,-65z"/>
  <path class="fil1" d="M1704 4181c-19,21 -40,36 -63,45 -39,14 -80,14 -122,0 -23,-8 -43,-19 -62,-35 -19,-16 -34,-34 -46,-54 -12,-23 -19,-47 -21,-72 -2,-26 1,-51 9,-76 16,-45 46,-78 92,-100 27,-12 55,-20 84,-22 28,-3 54,0 78,8 8,3 16,7 26,12 4,2 17,10 39,24 20,13 35,21 44,25 11,3 25,3 43,0 -10,26 -21,45 -34,57 -7,9 -16,14 -26,18 -10,3 -19,3 -27,0 -7,-2 -14,-7 -19,-14 -4,-6 -9,-15 -13,-28 -8,-23 -16,-39 -25,-49 -9,-10 -20,-18 -33,-22 -12,-4 -24,-5 -37,-4 -12,1 -24,4 -35,10 -14,7 -26,18 -37,32 -12,15 -20,32 -27,50 -15,46 -12,86 10,120 20,31 51,54 92,68 36,12 73,14 110,7zm152 41l34 -192c4,-26 6,-40 7,-45 2,-15 -7,-26 -27,-34l2 -11 158 28 -2 11c-15,0 -26,4 -32,11 -3,4 -6,11 -8,22 0,3 -3,14 -6,34l-34 192c-4,25 -6,40 -7,44 -2,15 7,27 27,35l-2 10 -158 -28 2 -10c15,-1 26,-5 32,-12 3,-4 6,-11 8,-22 0,-3 2,-14 6,-33zm553 -152l-57 90c-18,28 -37,61 -56,98 -7,-13 -13,-23 -18,-32 -6,-9 -20,-30 -43,-64l-57 -84 0 110c0,3 0,6 0,10 1,32 5,59 13,82 6,16 13,30 22,40 4,6 11,13 21,21l-140 3c22,-18 38,-41 48,-68 7,-21 12,-54 13,-97l5 -119c-10,-12 -19,-21 -27,-26 -11,-6 -25,-12 -42,-17 24,-17 44,-29 62,-38 20,-9 46,-17 77,-23 0,4 0,8 0,10 0,11 4,22 10,34 3,6 12,18 26,39l70 101 72 -113 -2 -55 127 -3 0 11c-14,3 -24,9 -29,18 -2,4 -3,12 -3,22 0,4 0,15 0,35l5 195c1,25 1,40 2,45 1,15 12,24 33,28l1 11 -164 4 -1 -11c16,-2 27,-8 33,-18 2,-4 3,-12 3,-23 0,-3 0,-14 0,-34l-4 -182zm438 54l-133 99c0,4 0,7 0,8 0,9 0,15 2,20 2,10 13,15 31,15l3 11 -96 27 -3 -10c14,-9 23,-18 28,-27 4,-10 9,-29 13,-59l33 -235c-11,-9 -23,-16 -36,-22 15,-15 30,-27 44,-37 14,-10 34,-20 59,-32 1,9 2,15 3,19 1,3 3,7 5,11 1,1 7,9 18,24l155 199c11,15 19,24 22,28 10,8 19,14 28,16 5,1 13,2 24,2l3 10 -170 49 -3 -11c7,-4 12,-7 15,-11 4,-5 6,-12 3,-19 -1,-6 -5,-13 -12,-23l-36 -52zm-33 -41l-69 -87 -21 153 90 -66z"/>
  <path id="1" class="fil2 str1" d="M1704 4181c-19,21 -40,36 -63,45 -39,14 -80,14 -122,0 -23,-8 -43,-19 -62,-35 -19,-16 -34,-34 -46,-54 -12,-23 -19,-47 -21,-72 -2,-26 1,-51 9,-76 16,-45 46,-78 92,-100 27,-12 55,-20 84,-22 28,-3 54,0 78,8 8,3 16,7 26,12 4,2 17,10 39,24 20,13 35,21 44,25 11,3 25,3 43,0 -10,26 -21,45 -34,57 -7,9 -16,14 -26,18 -10,3 -19,3 -27,0 -7,-2 -14,-7 -19,-14 -4,-6 -9,-15 -13,-28 -8,-23 -16,-39 -25,-49 -9,-10 -20,-18 -33,-22 -12,-4 -24,-5 -37,-4 -12,1 -24,4 -35,10 -14,7 -26,18 -37,32 -12,15 -20,32 -27,50 -15,46 -12,86 10,120 20,31 51,54 92,68 36,12 73,14 110,7zm152 41l34 -192c4,-26 6,-40 7,-45 2,-15 -7,-26 -27,-34l2 -11 158 28 -2 11c-15,0 -26,4 -32,11 -3,4 -6,11 -8,22 0,3 -3,14 -6,34l-34 192c-4,25 -6,40 -7,44 -2,15 7,27 27,35l-2 10 -158 -28 2 -10c15,-1 26,-5 32,-12 3,-4 6,-11 8,-22 0,-3 2,-14 6,-33zm553 -152l-57 90c-18,28 -37,61 -56,98 -7,-13 -13,-23 -18,-32 -6,-9 -20,-30 -43,-64l-57 -84 0 110c0,3 0,6 0,10 1,32 5,59 13,82 6,16 13,30 22,40 4,6 11,13 21,21l-140 3c22,-18 38,-41 48,-68 7,-21 12,-54 13,-97l5 -119c-10,-12 -19,-21 -27,-26 -11,-6 -25,-12 -42,-17 24,-17 44,-29 62,-38 20,-9 46,-17 77,-23 0,4 0,8 0,10 0,11 4,22 10,34 3,6 12,18 26,39l70 101 72 -113 -2 -55 127 -3 0 11c-14,3 -24,9 -29,18 -2,4 -3,12 -3,22 0,4 0,15 0,35l5 195c1,25 1,40 2,45 1,15 12,24 33,28l1 11 -164 4 -1 -11c16,-2 27,-8 33,-18 2,-4 3,-12 3,-23 0,-3 0,-14 0,-34l-4 -182zm438 54l-133 99c0,4 0,7 0,8 0,9 0,15 2,20 2,10 13,15 31,15l3 11 -96 27 -3 -10c14,-9 23,-18 28,-27 4,-10 9,-29 13,-59l33 -235c-11,-9 -23,-16 -36,-22 15,-15 30,-27 44,-37 14,-10 34,-20 59,-32 1,9 2,15 3,19 1,3 3,7 5,11 1,1 7,9 18,24l155 199c11,15 19,24 22,28 10,8 19,14 28,16 5,1 13,2 24,2l3 10 -170 49 -3 -11c7,-4 12,-7 15,-11 4,-5 6,-12 3,-19 -1,-6 -5,-13 -12,-23l-36 -52zm-33 -41l-69 -87 -21 153 90 -66z"/>
  <path class="fil1" d="M983 2094l29 -3c1,15 5,27 10,36 5,8 13,15 23,20 9,5 21,8 33,8 17,0 31,-5 41,-13 10,-9 15,-20 15,-34 0,-8 -2,-15 -6,-21 -3,-6 -9,-11 -16,-15 -7,-4 -23,-9 -46,-16 -22,-7 -37,-13 -46,-19 -9,-7 -16,-15 -21,-25 -5,-9 -7,-20 -7,-33 0,-22 7,-40 21,-54 15,-14 34,-21 58,-21 17,0 32,3 44,10 13,6 22,16 29,28 7,12 11,27 11,44l-28 2c-1,-18 -7,-31 -16,-39 -9,-9 -22,-13 -39,-13 -16,0 -29,4 -38,11 -9,8 -13,17 -13,29 0,11 3,20 9,26 7,6 21,12 44,19 22,6 38,11 47,15 14,7 24,16 31,28 7,11 10,25 10,41 0,15 -3,30 -11,43 -7,12 -17,22 -30,29 -12,7 -28,10 -45,10 -28,0 -50,-8 -67,-25 -16,-17 -25,-39 -26,-68z"/>
  <path id="1" class="fil1" d="M1350 1908l30 0 0 159c0,26 -3,48 -8,65 -5,17 -15,30 -28,40 -14,10 -31,15 -52,15 -30,0 -52,-9 -67,-26 -15,-18 -22,-49 -22,-94l0 -159 30 0 0 159c0,24 2,42 6,53 3,12 10,20 18,26 9,6 20,9 32,9 22,0 37,-6 46,-18 10,-12 15,-36 15,-70l0 -159z"/>
  <path id="2" class="fil1" d="M1429 2183l0 -275 84 0c18,0 31,3 41,8 10,5 18,14 25,25 6,11 9,24 9,37 0,13 -2,24 -8,34 -6,10 -13,18 -23,24 13,5 23,13 30,25 8,11 12,25 12,42 0,16 -4,31 -11,44 -6,12 -15,21 -27,27 -11,6 -27,9 -46,9l-86 0zm30 -159l48 0c13,0 22,-1 28,-3 7,-3 13,-7 17,-13 5,-7 7,-15 7,-26 0,-9 -2,-18 -6,-24 -4,-7 -9,-11 -15,-14 -6,-2 -18,-4 -34,-4l-45 0 0 84zm0 126l56 0c12,0 21,-1 27,-3 8,-3 15,-9 19,-16 5,-8 7,-17 7,-28 0,-11 -2,-19 -6,-27 -5,-7 -10,-12 -17,-15 -8,-4 -19,-5 -34,-5l-52 0 0 94z"/>
  <path id="3" class="fil1" d="M1726 2183l0 -275 78 0c19,0 33,2 43,5 14,5 25,13 34,24 10,12 18,26 23,44 5,18 8,39 8,63 0,31 -5,57 -14,79 -9,22 -20,37 -35,46 -14,9 -33,14 -56,14l-81 0zm30 -33l48 0c19,0 34,-3 44,-9 10,-6 17,-17 23,-31 7,-18 10,-41 10,-66 0,-28 -3,-50 -11,-66 -8,-16 -17,-27 -29,-32 -8,-4 -21,-6 -38,-6l-47 0 0 210z"/>
  <polygon id="4" class="fil1" points="1959,2183 1959,1908 1989,1908 1989,2183 "/>
  <path id="5" class="fil1" d="M2041 2183l0 -275 99 0c21,0 36,3 46,8 10,5 18,14 25,25 6,12 9,26 9,42 0,21 -5,37 -16,50 -11,13 -26,21 -47,25 8,5 15,10 19,15 9,10 17,22 24,35l39 75 -38 0 -30 -57c-11,-23 -20,-38 -26,-46 -6,-7 -12,-13 -17,-15 -6,-3 -13,-4 -23,-4l-35 0 0 122 -29 0zm29 -154l64 0c14,0 25,-1 32,-5 7,-3 13,-8 17,-16 5,-7 7,-15 7,-25 0,-14 -4,-25 -12,-33 -9,-8 -21,-12 -37,-12l-71 0 0 91z"/>
  <polygon id="6" class="fil1" points="2268,2183 2268,1908 2431,1908 2431,1940 2298,1940 2298,2025 2423,2025 2423,2057 2298,2057 2298,2150 2436,2150 2436,2183 "/>
  <path id="7" class="fil1" d="M2637 2086l29 10c-6,30 -18,53 -34,68 -17,16 -37,23 -61,23 -20,0 -38,-5 -53,-15 -15,-10 -27,-27 -36,-49 -10,-22 -14,-49 -14,-79 0,-31 4,-56 14,-77 9,-21 22,-37 38,-47 16,-11 34,-16 54,-16 22,0 40,6 56,20 15,13 26,33 33,59l-29 9c-10,-38 -30,-57 -61,-57 -15,0 -28,3 -39,11 -11,8 -19,20 -26,36 -6,16 -10,37 -10,62 0,37 7,65 20,84 13,19 31,28 53,28 16,0 30,-6 42,-17 12,-12 20,-29 24,-53z"/>
  <path id="8" class="fil1" d="M2863 2086l30 10c-6,30 -18,53 -34,68 -17,16 -37,23 -61,23 -21,0 -38,-5 -53,-15 -15,-10 -27,-27 -36,-49 -10,-22 -15,-49 -15,-79 0,-31 5,-56 15,-77 9,-21 22,-37 38,-47 16,-11 34,-16 54,-16 21,0 40,6 56,20 15,13 26,33 32,59l-29 9c-10,-38 -30,-57 -60,-57 -15,0 -28,3 -39,11 -11,8 -20,20 -26,36 -7,16 -10,37 -10,62 0,37 7,65 20,84 13,19 31,28 53,28 16,0 30,-6 42,-17 11,-12 19,-29 23,-53z"/>
  <polygon id="9" class="fil1" points="2936,2183 2936,1908 2966,1908 2966,2183 "/>
  <path id="10" class="fil1" d="M3010 2049c0,-47 10,-83 31,-108 20,-25 46,-37 76,-37 20,0 38,5 55,16 16,12 29,28 39,49 9,22 14,47 14,77 0,40 -9,73 -28,99 -20,28 -47,42 -80,42 -33,0 -60,-14 -80,-43 -18,-26 -27,-58 -27,-95zm30 0c0,34 8,60 23,79 15,19 33,28 54,28 22,0 40,-9 55,-28 15,-19 22,-47 22,-83 0,-24 -4,-45 -11,-63 -6,-15 -15,-26 -27,-35 -11,-8 -24,-12 -38,-12 -23,0 -41,9 -56,28 -14,18 -22,47 -22,86zm51 -160l20 -52 36 0 -33 52 -23 0z"/>
  <polygon id="11" class="fil1" points="3261,2183 3261,1908 3292,1908 3410,2124 3410,1908 3438,1908 3438,2183 3408,2183 3290,1967 3290,2183 "/>
  <polygon id="12" class="fil1" points="876,2616 876,2342 907,2342 1025,2558 1025,2342 1053,2342 1053,2616 1023,2616 905,2401 905,2616 "/>
  <polygon id="13" class="fil1" points="1109,2616 1109,2342 1139,2342 1139,2616 "/>
  <path id="14" class="fil1" d="M1255 2616l-87 -274 33 0 58 199c5,16 8,31 12,45 3,-15 7,-30 12,-45l61 -199 30 0 -88 274 -31 0z"/>
  <polygon id="15" class="fil1" points="1377,2616 1377,2578 1408,2578 1408,2616 "/>
  <path id="16" class="fil1" d="M1536 2528l29 -3c1,15 5,27 10,35 5,9 13,16 23,21 9,5 21,7 33,7 17,0 31,-4 41,-13 10,-8 15,-20 15,-33 0,-8 -2,-15 -6,-22 -3,-6 -9,-10 -16,-14 -7,-4 -23,-10 -46,-17 -22,-6 -37,-12 -46,-19 -9,-6 -16,-14 -21,-24 -5,-10 -7,-21 -7,-33 0,-22 7,-40 21,-54 15,-15 34,-22 58,-22 17,0 32,4 44,10 13,7 22,16 29,29 7,12 11,27 11,43l-28 3c-1,-18 -7,-31 -16,-40 -9,-8 -22,-12 -39,-12 -16,0 -29,3 -38,11 -9,7 -13,17 -13,29 0,11 3,20 9,26 7,6 21,12 44,18 22,6 38,12 47,16 14,7 24,16 31,28 7,11 10,25 10,40 0,16 -3,30 -11,43 -7,13 -17,23 -30,30 -12,7 -28,10 -45,10 -28,0 -50,-8 -67,-25 -16,-17 -25,-40 -26,-68z"/>
  <polygon id="17" class="fil1" points="1757,2616 1757,2342 1919,2342 1919,2374 1787,2374 1787,2458 1911,2458 1911,2491 1787,2491 1787,2584 1924,2584 1924,2616 "/>
  <path id="18" class="fil1" d="M2125 2520l30 9c-7,31 -18,54 -35,69 -16,15 -36,23 -60,23 -21,0 -39,-5 -53,-15 -15,-10 -27,-27 -37,-49 -9,-23 -14,-49 -14,-80 0,-30 5,-55 14,-76 10,-21 23,-37 39,-48 16,-10 34,-16 54,-16 21,0 40,7 55,21 16,13 27,33 33,59l-29 9c-10,-39 -30,-58 -60,-58 -15,0 -28,4 -39,12 -11,8 -20,20 -26,36 -7,16 -10,36 -10,61 0,38 6,66 20,85 13,19 30,28 52,28 17,0 31,-6 42,-17 12,-12 20,-29 24,-53z"/>
  <path id="19" class="fil1" d="M2339 2342l30 0 0 158c0,27 -3,49 -8,66 -5,17 -15,30 -28,40 -14,10 -31,15 -52,15 -30,0 -52,-9 -67,-27 -14,-17 -22,-49 -22,-94l0 -158 30 0 0 158c0,25 2,43 6,54 4,11 10,20 19,26 8,5 19,8 32,8 21,0 36,-6 46,-18 9,-12 14,-35 14,-70l0 -158z"/>
  <polygon id="20" class="fil1" points="2418,2616 2418,2342 2449,2342 2567,2558 2567,2342 2595,2342 2595,2616 2565,2616 2447,2401 2447,2616 "/>
  <path id="21" class="fil1" d="M2645 2616l0 -274 78 0c19,0 34,2 44,5 13,4 24,12 34,24 9,12 17,26 22,44 5,18 8,39 8,63 0,31 -4,57 -14,79 -9,21 -20,37 -35,46 -14,9 -33,13 -56,13l-81 0zm30 -32l48 0c19,0 34,-3 44,-9 10,-7 17,-17 23,-31 7,-18 10,-41 10,-67 0,-28 -3,-49 -11,-65 -7,-16 -17,-27 -29,-32 -8,-4 -21,-6 -38,-6l-47 0 0 210z"/>
  <path id="22" class="fil1" d="M2848 2616l86 -274 32 0 92 274 -34 0 -26 -83 -95 0 -24 83 -31 0zm64 -112l77 0 -23 -76c-8,-24 -13,-43 -16,-57 -3,17 -7,35 -13,52l-25 81z"/>
  <path id="23" class="fil1" d="M3082 2616l0 -274 100 0c20,0 36,3 46,8 10,5 18,13 24,25 6,12 10,26 10,42 0,20 -6,37 -17,50 -10,13 -26,21 -47,25 9,5 15,10 19,15 9,10 17,22 24,35l39 74 -37 0 -30 -57c-12,-22 -21,-37 -27,-45 -6,-7 -11,-13 -17,-15 -5,-3 -13,-5 -23,-5l-34 0 0 122 -30 0zm30 -153l64 0c14,0 24,-2 31,-5 8,-3 13,-9 18,-16 4,-7 6,-16 6,-25 0,-14 -4,-25 -12,-33 -8,-8 -20,-12 -36,-12l-71 0 0 91z"/>
  <polygon id="24" class="fil1" points="3314,2616 3314,2342 3344,2342 3344,2616 "/>
  <path id="25" class="fil1" d="M3371 2616l87 -274 32 0 92 274 -34 0 -26 -83 -95 0 -24 83 -32 0zm65 -112l77 0 -24 -76c-7,-24 -12,-43 -16,-57 -3,17 -7,35 -12,52l-25 81z"/>
  <path id="26" class="fil2 str2" d="M983 2094l29 -3c1,15 5,27 10,36 5,8 13,15 23,20 9,5 21,8 33,8 17,0 31,-5 41,-13 10,-9 15,-20 15,-34 0,-8 -2,-15 -6,-21 -3,-6 -9,-11 -16,-15 -7,-4 -23,-9 -46,-16 -22,-7 -37,-13 -46,-19 -9,-7 -16,-15 -21,-25 -5,-9 -7,-20 -7,-33 0,-22 7,-40 21,-54 15,-14 34,-21 58,-21 17,0 32,3 44,10 13,6 22,16 29,28 7,12 11,27 11,44l-28 2c-1,-18 -7,-31 -16,-39 -9,-9 -22,-13 -39,-13 -16,0 -29,4 -38,11 -9,8 -13,17 -13,29 0,11 3,20 9,26 7,6 21,12 44,19 22,6 38,11 47,15 14,7 24,16 31,28 7,11 10,25 10,41 0,15 -3,30 -11,43 -7,12 -17,22 -30,29 -12,7 -28,10 -45,10 -28,0 -50,-8 -67,-25 -16,-17 -25,-39 -26,-68z"/>
  <path id="27" class="fil2 str2" d="M1350 1908l30 0 0 159c0,26 -3,48 -8,65 -5,17 -15,30 -28,40 -14,10 -31,15 -52,15 -30,0 -52,-9 -67,-26 -15,-18 -22,-49 -22,-94l0 -159 30 0 0 159c0,24 2,42 6,53 3,12 10,20 18,26 9,6 20,9 32,9 22,0 37,-6 46,-18 10,-12 15,-36 15,-70l0 -159z"/>
  <path id="28" class="fil2 str2" d="M1429 2183l0 -275 84 0c18,0 31,3 41,8 10,5 18,14 25,25 6,11 9,24 9,37 0,13 -2,24 -8,34 -6,10 -13,18 -23,24 13,5 23,13 30,25 8,11 12,25 12,42 0,16 -4,31 -11,44 -6,12 -15,21 -27,27 -11,6 -27,9 -46,9l-86 0zm30 -159l48 0c13,0 22,-1 28,-3 7,-3 13,-7 17,-13 5,-7 7,-15 7,-26 0,-9 -2,-18 -6,-24 -4,-7 -9,-11 -15,-14 -6,-2 -18,-4 -34,-4l-45 0 0 84zm0 126l56 0c12,0 21,-1 27,-3 8,-3 15,-9 19,-16 5,-8 7,-17 7,-28 0,-11 -2,-19 -6,-27 -5,-7 -10,-12 -17,-15 -8,-4 -19,-5 -34,-5l-52 0 0 94z"/>
  <path id="29" class="fil2 str2" d="M1726 2183l0 -275 78 0c19,0 33,2 43,5 14,5 25,13 34,24 10,12 18,26 23,44 5,18 8,39 8,63 0,31 -5,57 -14,79 -9,22 -20,37 -35,46 -14,9 -33,14 -56,14l-81 0zm30 -33l48 0c19,0 34,-3 44,-9 10,-6 17,-17 23,-31 7,-18 10,-41 10,-66 0,-28 -3,-50 -11,-66 -8,-16 -17,-27 -29,-32 -8,-4 -21,-6 -38,-6l-47 0 0 210z"/>
  <polygon id="30" class="fil2 str2" points="1959,2183 1959,1908 1989,1908 1989,2183 "/>
  <path id="31" class="fil2 str2" d="M2041 2183l0 -275 99 0c21,0 36,3 46,8 10,5 18,14 25,25 6,12 9,26 9,42 0,21 -5,37 -16,50 -11,13 -26,21 -47,25 8,5 15,10 19,15 9,10 17,22 24,35l39 75 -38 0 -30 -57c-11,-23 -20,-38 -26,-46 -6,-7 -12,-13 -17,-15 -6,-3 -13,-4 -23,-4l-35 0 0 122 -29 0zm29 -154l64 0c14,0 25,-1 32,-5 7,-3 13,-8 17,-16 5,-7 7,-15 7,-25 0,-14 -4,-25 -12,-33 -9,-8 -21,-12 -37,-12l-71 0 0 91z"/>
  <polygon id="32" class="fil2 str2" points="2268,2183 2268,1908 2431,1908 2431,1940 2298,1940 2298,2025 2423,2025 2423,2057 2298,2057 2298,2150 2436,2150 2436,2183 "/>
  <path id="33" class="fil2 str2" d="M2637 2086l29 10c-6,30 -18,53 -34,68 -17,16 -37,23 -61,23 -20,0 -38,-5 -53,-15 -15,-10 -27,-27 -36,-49 -10,-22 -14,-49 -14,-79 0,-31 4,-56 14,-77 9,-21 22,-37 38,-47 16,-11 34,-16 54,-16 22,0 40,6 56,20 15,13 26,33 33,59l-29 9c-10,-38 -30,-57 -61,-57 -15,0 -28,3 -39,11 -11,8 -19,20 -26,36 -6,16 -10,37 -10,62 0,37 7,65 20,84 13,19 31,28 53,28 16,0 30,-6 42,-17 12,-12 20,-29 24,-53z"/>
  <path id="34" class="fil2 str2" d="M2863 2086l30 10c-6,30 -18,53 -34,68 -17,16 -37,23 -61,23 -21,0 -38,-5 -53,-15 -15,-10 -27,-27 -36,-49 -10,-22 -15,-49 -15,-79 0,-31 5,-56 15,-77 9,-21 22,-37 38,-47 16,-11 34,-16 54,-16 21,0 40,6 56,20 15,13 26,33 32,59l-29 9c-10,-38 -30,-57 -60,-57 -15,0 -28,3 -39,11 -11,8 -20,20 -26,36 -7,16 -10,37 -10,62 0,37 7,65 20,84 13,19 31,28 53,28 16,0 30,-6 42,-17 11,-12 19,-29 23,-53z"/>
  <polygon id="35" class="fil2 str2" points="2936,2183 2936,1908 2966,1908 2966,2183 "/>
  <path id="36" class="fil2 str2" d="M3010 2049c0,-47 10,-83 31,-108 20,-25 46,-37 76,-37 20,0 38,5 55,16 16,12 29,28 39,49 9,22 14,47 14,77 0,40 -9,73 -28,99 -20,28 -47,42 -80,42 -33,0 -60,-14 -80,-43 -18,-26 -27,-58 -27,-95zm30 0c0,34 8,60 23,79 15,19 33,28 54,28 22,0 40,-9 55,-28 15,-19 22,-47 22,-83 0,-24 -4,-45 -11,-63 -6,-15 -15,-26 -27,-35 -11,-8 -24,-12 -38,-12 -23,0 -41,9 -56,28 -14,18 -22,47 -22,86zm51 -160l20 -52 36 0 -33 52 -23 0z"/>
  <polygon id="37" class="fil2 str2" points="3261,2183 3261,1908 3292,1908 3410,2124 3410,1908 3438,1908 3438,2183 3408,2183 3290,1967 3290,2183 "/>
  <polygon id="38" class="fil2 str2" points="876,2616 876,2342 907,2342 1025,2558 1025,2342 1053,2342 1053,2616 1023,2616 905,2401 905,2616 "/>
  <polygon id="39" class="fil2 str2" points="1109,2616 1109,2342 1139,2342 1139,2616 "/>
  <path id="40" class="fil2 str2" d="M1255 2616l-87 -274 33 0 58 199c5,16 8,31 12,45 3,-15 7,-30 12,-45l61 -199 30 0 -88 274 -31 0z"/>
  <polygon id="41" class="fil2 str2" points="1377,2616 1377,2578 1408,2578 1408,2616 "/>
  <path id="42" class="fil2 str2" d="M1536 2528l29 -3c1,15 5,27 10,35 5,9 13,16 23,21 9,5 21,7 33,7 17,0 31,-4 41,-13 10,-8 15,-20 15,-33 0,-8 -2,-15 -6,-22 -3,-6 -9,-10 -16,-14 -7,-4 -23,-10 -46,-17 -22,-6 -37,-12 -46,-19 -9,-6 -16,-14 -21,-24 -5,-10 -7,-21 -7,-33 0,-22 7,-40 21,-54 15,-15 34,-22 58,-22 17,0 32,4 44,10 13,7 22,16 29,29 7,12 11,27 11,43l-28 3c-1,-18 -7,-31 -16,-40 -9,-8 -22,-12 -39,-12 -16,0 -29,3 -38,11 -9,7 -13,17 -13,29 0,11 3,20 9,26 7,6 21,12 44,18 22,6 38,12 47,16 14,7 24,16 31,28 7,11 10,25 10,40 0,16 -3,30 -11,43 -7,13 -17,23 -30,30 -12,7 -28,10 -45,10 -28,0 -50,-8 -67,-25 -16,-17 -25,-40 -26,-68z"/>
  <polygon id="43" class="fil2 str2" points="1757,2616 1757,2342 1919,2342 1919,2374 1787,2374 1787,2458 1911,2458 1911,2491 1787,2491 1787,2584 1924,2584 1924,2616 "/>
  <path id="44" class="fil2 str2" d="M2125 2520l30 9c-7,31 -18,54 -35,69 -16,15 -36,23 -60,23 -21,0 -39,-5 -53,-15 -15,-10 -27,-27 -37,-49 -9,-23 -14,-49 -14,-80 0,-30 5,-55 14,-76 10,-21 23,-37 39,-48 16,-10 34,-16 54,-16 21,0 40,7 55,21 16,13 27,33 33,59l-29 9c-10,-39 -30,-58 -60,-58 -15,0 -28,4 -39,12 -11,8 -20,20 -26,36 -7,16 -10,36 -10,61 0,38 6,66 20,85 13,19 30,28 52,28 17,0 31,-6 42,-17 12,-12 20,-29 24,-53z"/>
  <path id="45" class="fil2 str2" d="M2339 2342l30 0 0 158c0,27 -3,49 -8,66 -5,17 -15,30 -28,40 -14,10 -31,15 -52,15 -30,0 -52,-9 -67,-27 -14,-17 -22,-49 -22,-94l0 -158 30 0 0 158c0,25 2,43 6,54 4,11 10,20 19,26 8,5 19,8 32,8 21,0 36,-6 46,-18 9,-12 14,-35 14,-70l0 -158z"/>
  <polygon id="46" class="fil2 str2" points="2418,2616 2418,2342 2449,2342 2567,2558 2567,2342 2595,2342 2595,2616 2565,2616 2447,2401 2447,2616 "/>
  <path id="47" class="fil2 str2" d="M2645 2616l0 -274 78 0c19,0 34,2 44,5 13,4 24,12 34,24 9,12 17,26 22,44 5,18 8,39 8,63 0,31 -4,57 -14,79 -9,21 -20,37 -35,46 -14,9 -33,13 -56,13l-81 0zm30 -32l48 0c19,0 34,-3 44,-9 10,-7 17,-17 23,-31 7,-18 10,-41 10,-67 0,-28 -3,-49 -11,-65 -7,-16 -17,-27 -29,-32 -8,-4 -21,-6 -38,-6l-47 0 0 210z"/>
  <path id="48" class="fil2 str2" d="M2848 2616l86 -274 32 0 92 274 -34 0 -26 -83 -95 0 -24 83 -31 0zm64 -112l77 0 -23 -76c-8,-24 -13,-43 -16,-57 -3,17 -7,35 -13,52l-25 81z"/>
  <path id="49" class="fil2 str2" d="M3082 2616l0 -274 100 0c20,0 36,3 46,8 10,5 18,13 24,25 6,12 10,26 10,42 0,20 -6,37 -17,50 -10,13 -26,21 -47,25 9,5 15,10 19,15 9,10 17,22 24,35l39 74 -37 0 -30 -57c-12,-22 -21,-37 -27,-45 -6,-7 -11,-13 -17,-15 -5,-3 -13,-5 -23,-5l-34 0 0 122 -30 0zm30 -153l64 0c14,0 24,-2 31,-5 8,-3 13,-9 18,-16 4,-7 6,-16 6,-25 0,-14 -4,-25 -12,-33 -8,-8 -20,-12 -36,-12l-71 0 0 91z"/>
  <polygon id="50" class="fil2 str2" points="3314,2616 3314,2342 3344,2342 3344,2616 "/>
  <path id="51" class="fil2 str2" d="M3371 2616l87 -274 32 0 92 274 -34 0 -26 -83 -95 0 -24 83 -32 0zm65 -112l77 0 -24 -76c-7,-24 -12,-43 -16,-57 -3,17 -7,35 -12,52l-25 81z"/>
  <line class="fil0 str3" x1="859" y1="2735" x2="3636" y2= "2735" />
  <line class="fil0 str3" x1="859" y1="1783" x2="3636" y2= "1783" />
 </g>
</svg>
