<?xml version="1.0" encoding="UTF-8"?>
<!DOCTYPE svg PUBLIC "-//W3C//DTD SVG 1.0//EN" "http://www.w3.org/TR/2001/REC-SVG-20010904/DTD/svg10.dtd">
<!-- Creator: CorelDRAW X7 -->
<svg xmlns="http://www.w3.org/2000/svg" xml:space="preserve" width="150px" height="150px" version="1.0" style="shape-rendering:geometricPrecision; text-rendering:geometricPrecision; image-rendering:optimizeQuality; fill-rule:evenodd; clip-rule:evenodd"
viewBox="0 0 10990 10990"
 xmlns:xlink="http://www.w3.org/1999/xlink">
 <defs>
  <style type="text/css">
   <![CDATA[
    .str0 {stroke:#1F5CA9;stroke-width:118.056}
    .str3 {stroke:#1F5CA9;stroke-width:67.4521}
    .str1 {stroke:#1F5CA9;stroke-width:14.5729}
    .str2 {stroke:#1F5CA9;stroke-width:14.5729;stroke-linecap:round;stroke-linejoin:round}
    .fil0 {fill:none}
    .fil2 {fill:none;fill-rule:nonzero}
    .fil1 {fill:#1F5CA9;fill-rule:nonzero}
   ]]>
  </style>
 </defs>
 <g id="Capa_x0020_1">
  <metadata id="CorelCorpID_0Corel-Layer"/>
  <circle class="fil0 str0" cx="5495" cy="5495" r="5436"/>
  <path class="fil1" d="M2468 8907l-63 -85c69,-51 140,-77 211,-76 71,1 138,27 200,78 65,52 107,108 126,167 19,59 19,122 -1,190 -19,67 -52,129 -99,186 -51,63 -107,107 -169,135 -61,26 -124,34 -187,23 -64,-12 -122,-39 -175,-82 -60,-49 -98,-105 -114,-169 -16,-64 -10,-130 19,-199l93 46c-22,54 -27,103 -17,144 10,41 36,79 76,111 46,38 93,58 142,61 49,3 95,-9 138,-36 42,-27 80,-60 112,-100 41,-51 70,-102 86,-152 16,-50 16,-97 0,-141 -16,-45 -42,-81 -79,-111 -44,-36 -92,-54 -144,-54 -51,1 -103,22 -155,64z"/>
  <path id="1" class="fil1" d="M2066 8366l-58 -80c53,-28 105,-37 156,-28 52,9 100,38 144,85 56,60 81,125 77,194 -4,70 -40,135 -106,197 -69,64 -139,96 -211,96 -71,0 -132,-29 -185,-85 -51,-55 -74,-117 -69,-186 5,-70 42,-136 110,-199 4,-4 10,-9 18,-17l284 306c43,-44 66,-89 68,-134 3,-45 -12,-85 -43,-119 -24,-26 -51,-41 -81,-47 -30,-5 -65,0 -104,17zm99 332l-212 -229c-32,35 -49,68 -53,99 -6,47 7,88 40,123 29,32 65,49 106,51 42,2 82,-13 119,-44z"/>
  <path id="2" class="fil1" d="M2041 8048l-469 305 -46 -72 66 -43c-74,-1 -132,-34 -174,-99 -19,-28 -30,-57 -36,-88 -5,-30 -3,-56 6,-79 9,-22 23,-43 42,-63 13,-12 38,-31 75,-55l288 -187 52 79 -286 186c-32,21 -54,40 -66,56 -12,17 -18,36 -17,58 1,22 8,44 22,65 22,34 51,56 89,67 37,10 86,-4 146,-43l256 -167 52 80z"/>
  <path id="3" class="fil1" d="M1535 7367l67 -52c18,21 32,41 42,59 16,30 24,56 24,78 -1,22 -7,41 -19,56 -11,15 -42,37 -92,64l-283 154 34 61 -65 36 -33 -61 -122 66 -95 -55 171 -94 -45 -84 64 -35 46 84 287 -157c24,-13 38,-23 43,-30 6,-6 8,-14 9,-23 0,-9 -3,-19 -10,-32 -5,-9 -13,-21 -23,-35z"/>
  <path id="4" class="fil1" d="M1559 7212l-516 216 -33 -79 78 -33c-45,-5 -77,-13 -95,-25 -19,-12 -33,-29 -41,-49 -13,-30 -16,-64 -10,-102l94 -4c-4,27 -1,51 8,72 8,20 21,34 39,45 18,10 38,14 61,12 35,-3 71,-12 108,-28l271 -113 36 88z"/>
  <path id="5" class="fil1" d="M1162 6958c-100,30 -181,24 -246,-17 -53,-34 -90,-84 -109,-151 -22,-73 -16,-141 18,-202 34,-61 94,-104 179,-130 69,-20 126,-26 172,-17 46,9 86,29 119,63 34,32 58,72 72,119 22,75 16,143 -18,204 -35,60 -97,104 -187,131zm-28 -93c68,-21 115,-51 140,-91 26,-40 32,-83 18,-128 -14,-46 -42,-78 -85,-98 -43,-19 -100,-19 -170,2 -67,20 -112,50 -138,90 -25,41 -31,83 -17,128 13,45 41,78 84,98 43,20 99,19 168,-1z"/>
  <polygon id="6" class="fil1" points="1223,5903 453,5966 444,5864 1214,5801 "/>
  <path id="7" class="fil1" d="M1205 5600l-559 -3 0 -85 80 0c-61,-41 -92,-101 -91,-178 0,-34 6,-65 19,-93 12,-29 28,-50 48,-63 19,-14 43,-24 70,-30 17,-3 48,-4 92,-4l344 2 -1 95 -340 -2c-39,-1 -68,3 -87,10 -19,7 -34,20 -46,39 -11,19 -17,41 -17,66 0,40 12,75 37,105 26,29 75,44 146,45l305 2 0 94z"/>
  <path id="8" class="fil1" d="M1183 4751l85 -1c2,27 1,51 -2,72 -5,34 -14,60 -27,77 -14,17 -30,28 -48,33 -19,6 -56,4 -113,-4l-319 -45 -9 69 -73 -11 9 -69 -137 -19 -43 -102 194 28 13 -95 73 11 -13 94 324 46c27,4 44,5 52,3 8,-2 15,-7 21,-14 5,-7 9,-17 11,-31 2,-10 2,-24 2,-42z"/>
  <path id="9" class="fil1" d="M1213 4217l40 -90c50,31 85,71 103,120 18,49 18,105 -1,167 -23,79 -66,134 -128,165 -62,31 -137,34 -224,8 -90,-27 -153,-71 -189,-133 -36,-61 -42,-129 -20,-203 21,-71 63,-123 126,-153 62,-31 137,-33 226,-7 5,2 13,5 24,8l-120 400c60,14 110,11 150,-10 40,-20 67,-53 81,-98 10,-33 10,-64 -1,-93 -10,-28 -33,-56 -67,-81zm-236 254l90 -299c-47,-9 -84,-8 -112,4 -44,18 -72,51 -86,97 -13,41 -9,81 10,117 19,37 52,64 98,81z"/>
  <path id="10" class="fil1" d="M1483 4060l51 -78c28,8 51,7 70,-3 26,-15 47,-40 64,-77 19,-40 25,-74 19,-103 -6,-30 -22,-54 -47,-75 -15,-13 -51,-32 -108,-57 27,58 28,115 2,171 -32,70 -82,112 -150,127 -68,15 -138,7 -208,-26 -49,-22 -89,-51 -122,-88 -33,-36 -53,-76 -60,-120 -7,-43 0,-88 20,-133 28,-60 75,-98 141,-115l-61 -28 37 -79 439 202c80,36 132,70 157,102 26,31 40,68 44,112 3,44 -8,91 -31,142 -28,61 -64,104 -109,129 -44,24 -94,23 -148,-3zm-273 -212c67,31 122,40 165,27 43,-12 73,-38 92,-78 18,-40 18,-80 0,-121 -19,-41 -60,-76 -125,-106 -62,-29 -116,-36 -160,-23 -44,13 -76,39 -93,78 -18,38 -17,78 1,119 19,41 59,76 120,104z"/>
  <path id="11" class="fil1" d="M1723 3455l-487 -274 41 -74 74 42c-24,-39 -37,-69 -39,-91 -1,-23 3,-44 14,-63 15,-28 40,-51 74,-70l61 72c-24,13 -41,30 -52,50 -10,18 -14,38 -11,58 3,21 12,39 28,56 24,26 53,49 88,68l256 144 -47 82z"/>
  <path id="12" class="fil1" d="M2091 2781c0,46 -6,86 -17,118 -11,33 -29,64 -53,92 -40,47 -81,74 -126,80 -44,6 -84,-6 -120,-36 -21,-17 -36,-38 -45,-62 -10,-25 -13,-49 -11,-73 3,-24 10,-49 20,-72 9,-18 23,-42 44,-74 42,-65 70,-115 83,-151 -10,-9 -16,-14 -18,-16 -30,-25 -57,-36 -80,-32 -32,5 -64,26 -94,62 -29,34 -44,65 -46,91 -2,26 10,56 34,89l-70 63c-25,-32 -40,-63 -47,-93 -6,-31 -3,-64 11,-101 13,-36 35,-73 66,-110 31,-36 60,-63 88,-78 28,-16 53,-24 75,-23 22,0 45,6 68,18 15,8 38,26 70,53l97 81c68,57 112,91 132,103 21,12 43,20 67,25l-63 76c-22,-5 -43,-15 -65,-30zm-168 -130c-11,35 -35,83 -72,142 -21,33 -33,58 -38,75 -5,17 -6,33 -1,49 5,15 14,28 26,39 20,16 42,22 67,18 26,-3 50,-19 73,-48 24,-28 39,-58 45,-90 6,-32 3,-62 -10,-90 -10,-22 -31,-46 -63,-73l-27 -22z"/>
  <polygon id="13" class="fil1" points="2314,2621 1756,2087 1821,2019 2380,2552 "/>
  <path id="14" class="fil1" d="M3012 1997l-43 -56c6,66 -19,119 -74,161 -35,27 -75,42 -120,46 -44,3 -88,-7 -131,-29 -43,-23 -82,-57 -117,-102 -34,-44 -58,-90 -70,-138 -13,-47 -12,-92 2,-134 15,-41 41,-76 78,-104 26,-21 54,-34 84,-38 30,-5 58,-3 85,5l-169 -220 75 -58 470 613 -70 54zm-408 -39c44,57 88,90 134,100 45,9 84,2 117,-23 33,-25 51,-60 53,-105 2,-44 -17,-94 -60,-149 -46,-61 -92,-97 -137,-107 -46,-11 -85,-3 -120,23 -33,26 -51,61 -52,106 -2,44 20,96 65,155z"/>
  <path id="15" class="fil1" d="M3484 1503l91 -38c14,58 11,111 -10,159 -21,48 -60,87 -116,119 -72,40 -141,50 -207,29 -66,-20 -122,-70 -166,-149 -46,-82 -61,-158 -44,-227 17,-69 59,-122 126,-160 66,-37 131,-44 197,-23 67,21 122,72 168,152 2,6 6,13 11,23l-363 204c33,52 71,84 114,97 43,14 85,9 126,-14 30,-17 52,-39 64,-67 13,-28 15,-63 9,-105zm-347 18l273 -152c-27,-39 -55,-64 -83,-75 -45,-17 -88,-14 -130,9 -38,22 -63,52 -74,92 -12,40 -7,82 14,126z"/>
  <path id="16" class="fil1" d="M4081 1421l-172 -753 150 -34 300 492c28,46 48,80 61,103 3,-29 7,-72 13,-129l60 -565 134 -31 172 752 -96 23 -144 -630 -74 680 -90 20 -365 -591 147 641 -96 22z"/>
  <path id="17" class="fil1" d="M5353 1024l98 4c-10,59 -35,105 -74,140 -40,35 -91,55 -156,60 -82,7 -149,-13 -200,-59 -52,-47 -82,-115 -89,-206 -8,-94 10,-169 54,-224 45,-56 105,-87 182,-93 75,-6 138,14 189,61 52,47 81,117 88,209 1,5 1,14 2,25l-416 34c8,61 30,106 63,136 34,30 74,43 121,40 35,-3 63,-15 86,-35 24,-20 41,-51 52,-92zm-323 -127l311 -26c-8,-46 -22,-81 -44,-103 -33,-33 -74,-49 -121,-45 -44,4 -79,21 -106,53 -28,31 -41,72 -40,121z"/>
  <path id="18" class="fil1" d="M5622 550l1 -110 94 1 0 110 -95 -1zm-126 878l18 -80c19,5 34,7 45,7 20,1 34,-6 44,-19 9,-12 14,-44 14,-96l4 -587 95 0 -4 590c0,69 -10,117 -28,144 -23,35 -61,52 -114,52 -25,-1 -50,-4 -74,-11z"/>
  <path id="19" class="fil1" d="M5895 942c15,-103 54,-174 119,-216 53,-34 114,-46 183,-37 76,11 134,45 176,102 41,57 55,129 43,217 -10,71 -29,126 -56,164 -28,38 -63,65 -107,82 -45,17 -91,22 -139,15 -78,-11 -137,-45 -178,-102 -40,-56 -54,-131 -41,-225zm97 14c-10,71 -2,126 24,166 26,40 62,63 109,69 47,7 88,-5 124,-36 36,-31 59,-83 69,-156 10,-68 2,-123 -24,-162 -26,-40 -62,-63 -109,-70 -47,-6 -88,6 -124,36 -36,31 -59,82 -69,153z"/>
  <path id="20" class="fil1" d="M6515 1327l161 -536 81 25 -24 81c32,-32 59,-51 80,-58 22,-7 43,-7 64,-1 31,10 59,29 85,58l-57 75c-18,-20 -38,-33 -61,-40 -19,-6 -39,-5 -58,2 -20,7 -36,20 -49,39 -20,30 -36,63 -47,102l-84 280 -91 -27z"/>
  <path id="21" class="fil1" d="M7258 1504c-44,16 -83,24 -118,24 -34,0 -69,-6 -104,-19 -57,-22 -96,-53 -117,-92 -20,-40 -22,-82 -6,-125 10,-26 25,-47 44,-64 20,-17 41,-28 65,-34 24,-6 49,-7 75,-5 19,2 47,7 84,16 75,18 131,28 170,29 5,-12 8,-20 9,-23 13,-36 14,-65 3,-86 -15,-28 -45,-51 -89,-68 -42,-16 -76,-20 -101,-13 -26,8 -50,28 -73,62l-83 -45c22,-34 46,-59 73,-75 27,-16 59,-24 98,-24 39,1 81,10 126,26 45,17 79,36 103,57 24,21 39,42 47,63 7,21 9,44 5,71 -3,16 -12,44 -27,83l-44 119c-31,82 -49,135 -53,158 -4,24 -5,47 -1,71l-93 -34c-2,-22 0,-46 7,-72zm67 -200c-38,1 -90,-6 -158,-21 -38,-9 -67,-13 -84,-12 -18,1 -33,7 -46,16 -13,10 -22,22 -28,38 -9,23 -7,46 5,69 12,22 35,40 69,53 35,13 68,17 100,12 32,-5 60,-18 82,-39 17,-17 33,-45 47,-84l13 -32z"/>
  <path id="22" class="fil1" d="M7478 1682l298 -473 72 45 -42 66c30,-14 61,-20 95,-19 33,2 66,12 97,32 36,22 60,48 73,76 13,29 16,59 9,91 72,-31 139,-28 199,9 47,30 75,66 84,108 9,41 -4,89 -38,144l-204 325 -80 -50 187 -299c20,-32 32,-57 36,-74 4,-17 1,-35 -7,-52 -8,-17 -21,-32 -40,-43 -33,-21 -68,-28 -104,-19 -36,8 -69,37 -100,85l-173 276 -80 -51 194 -308c22,-35 32,-66 30,-92 -2,-26 -17,-49 -47,-67 -23,-15 -47,-22 -74,-22 -27,0 -51,9 -75,26 -23,18 -48,48 -75,91l-154 246 -81 -51z"/>
  <path id="23" class="fil1" d="M8677 1707l70 -83 72 61 -70 83 -72 -61zm-431 504l363 -425 72 61 -363 426 -72 -62z"/>
  <path id="24" class="fil1" d="M8848 2542l59 80c-53,28 -105,37 -156,29 -52,-9 -100,-37 -145,-84 -56,-59 -83,-124 -79,-193 4,-70 39,-136 104,-199 69,-64 139,-97 210,-97 71,-1 133,27 186,83 52,54 75,116 71,186 -5,69 -40,136 -107,199 -5,4 -11,10 -19,17l-287 -303c-43,45 -65,90 -67,135 -2,45 13,85 45,119 24,25 51,40 81,46 30,5 65,-1 104,-18zm-103 -332l215 227c31,-35 49,-68 52,-99 6,-47 -8,-88 -41,-123 -30,-31 -66,-48 -107,-49 -42,-2 -81,13 -119,44z"/>
  <path id="25" class="fil1" d="M8879 2858l460 -318 49 70 -66 45c74,-1 133,30 177,94 19,28 32,57 38,87 6,30 5,57 -3,80 -8,22 -22,44 -41,64 -13,13 -37,31 -73,56l-283 196 -54 -78 280 -193c32,-23 54,-42 65,-59 12,-17 17,-36 16,-58 -2,-22 -10,-44 -24,-64 -23,-34 -53,-55 -91,-65 -38,-9 -86,6 -145,47l-252 174 -53 -78z"/>
  <path id="26" class="fil1" d="M9400 3528l-67 52c-18,-20 -32,-40 -42,-59 -17,-30 -25,-56 -24,-78 0,-21 6,-40 18,-55 12,-16 43,-37 93,-64l282 -155 -33 -61 64 -35 34 61 121 -67 96 55 -172 94 46 84 -65 35 -46 -83 -286 157c-24,13 -39,23 -44,29 -5,7 -8,15 -8,23 -1,9 3,20 9,32 5,9 13,21 24,35z"/>
  <path id="27" class="fil1" d="M9631 3539c95,-40 177,-43 245,-9 57,29 99,75 126,139 29,71 30,139 2,203 -27,65 -82,114 -164,148 -67,28 -123,40 -169,36 -47,-4 -89,-21 -126,-50 -37,-30 -64,-67 -83,-112 -30,-72 -32,-140 -4,-204 28,-64 85,-114 173,-151zm37 90c-66,28 -109,63 -130,105 -21,43 -23,86 -4,130 18,43 49,73 95,88 45,15 101,8 169,-20 64,-27 106,-61 127,-104 21,-43 22,-86 4,-129 -18,-44 -50,-73 -94,-88 -45,-16 -101,-9 -167,18z"/>
  <path id="28" class="fil1" d="M9663 4432l811 164 18 108 -708 441 -20 -115 216 -128 -54 -318 -245 -45 -18 -107zm350 167l44 258 197 -115c60,-35 109,-62 148,-81 -50,-1 -101,-7 -152,-16l-237 -46z"/>
  <path id="29" class="fil1" d="M9983 5614l-12 94c-64,-10 -115,-36 -151,-78 -37,-42 -55,-93 -56,-154 0,-77 25,-139 75,-185 49,-47 121,-71 215,-71 60,0 113,9 158,29 46,20 80,50 103,91 23,41 34,85 35,133 0,61 -15,111 -46,150 -30,39 -74,64 -130,75l-15 -92c37,-9 66,-25 84,-48 19,-22 29,-49 29,-80 -1,-48 -18,-87 -52,-117 -35,-29 -89,-44 -163,-44 -75,1 -130,15 -164,44 -34,29 -51,67 -50,113 0,38 11,69 34,93 23,25 58,41 106,47z"/>
  <path id="30" class="fil1" d="M9793 6195c-25,-39 -41,-76 -49,-110 -7,-34 -8,-69 -3,-106 8,-61 30,-105 64,-134 35,-28 75,-39 121,-33 27,4 51,14 72,29 21,16 37,35 47,57 11,22 18,46 21,72 3,19 3,47 3,85 -2,77 1,135 8,172 13,2 21,4 24,4 39,6 67,1 85,-15 25,-21 41,-55 47,-102 7,-44 3,-78 -9,-101 -13,-24 -38,-43 -76,-59l26 -90c38,14 68,32 89,55 22,23 37,53 45,91 7,38 8,81 1,128 -7,48 -18,85 -33,113 -15,28 -33,48 -51,60 -19,11 -42,18 -68,20 -17,1 -46,-2 -88,-8l-125 -18c-87,-12 -143,-18 -167,-17 -23,0 -47,5 -69,14l14 -98c20,-7 44,-10 71,-9zm210 22c-9,-36 -13,-89 -13,-159 0,-39 -3,-67 -7,-84 -5,-17 -13,-31 -26,-42 -12,-10 -26,-17 -42,-19 -25,-4 -48,3 -67,19 -19,17 -32,43 -37,80 -5,36 -2,70 10,100 12,30 31,54 56,71 20,13 51,23 92,29l34 5z"/>
  <path id="31" class="fil1" d="M9578 6798l67 20c-43,-50 -54,-108 -34,-173 13,-43 36,-79 70,-108 35,-28 76,-46 124,-53 48,-7 100,-3 154,14 54,16 100,40 138,70 38,31 64,68 76,111 13,42 12,86 -1,130 -10,32 -25,59 -46,80 -21,21 -46,36 -72,46l265 79 -27 90 -740 -222 26 -84zm353 -207c-68,-20 -124,-21 -167,-3 -42,19 -69,48 -81,88 -12,39 -6,78 18,115 24,38 69,67 136,87 73,22 132,24 174,6 43,-18 71,-48 83,-89 12,-41 6,-79 -19,-116 -25,-37 -73,-66 -144,-88z"/>
  <path id="32" class="fil1" d="M9499 7480l-52 84c-45,-38 -74,-83 -85,-134 -11,-51 -3,-106 24,-165 34,-75 84,-123 150,-146 66,-22 140,-14 223,24 85,39 142,92 169,157 27,66 24,134 -8,204 -32,68 -80,113 -146,135 -67,22 -142,13 -226,-25 -5,-3 -12,-6 -22,-11l174 -379c-57,-23 -107,-27 -150,-12 -43,15 -74,43 -93,86 -15,31 -19,62 -13,92 7,30 25,60 55,90zm270 -219l-131 284c45,16 82,20 111,12 46,-13 79,-41 99,-84 19,-40 21,-79 6,-118 -14,-40 -42,-71 -85,-94zm225 217l105 125 -52 113 -85 -167 32 -71z"/>
  <path id="33" class="fil1" d="M9231 7635l455 325 -49 69 -64 -46c12,30 17,62 13,96 -3,33 -16,65 -37,95 -25,34 -51,57 -81,68 -29,12 -60,13 -91,4 27,74 20,140 -21,198 -32,45 -69,71 -112,77 -42,6 -89,-9 -141,-46l-313 -223 55 -77 287 205c31,22 55,35 72,40 17,5 34,3 52,-4 18,-7 33,-20 46,-37 22,-32 31,-67 25,-103 -7,-36 -33,-71 -80,-105l-265 -189 55 -77 296 211c35,25 65,37 91,37 26,-1 49,-15 70,-44 15,-21 24,-46 26,-72 1,-27 -6,-52 -22,-76 -16,-24 -45,-51 -86,-80l-236 -169 55 -77z"/>
  <path id="34" class="fil1" d="M9145 8834l79 75 -65 69 -79 -76 65 -68zm-479 -458l404 386 -65 69 -405 -387 66 -68z"/>
  <path id="35" class="fil1" d="M8338 8969l-78 52c-35,-55 -48,-110 -40,-165 8,-55 34,-103 81,-143 57,-50 120,-72 188,-65 68,8 133,46 194,117 40,45 67,92 82,139 14,48 14,93 -2,137 -16,44 -42,82 -79,114 -46,40 -93,61 -143,63 -49,2 -96,-15 -142,-50l61 -71c31,22 61,33 90,33 30,0 56,-11 80,-32 36,-31 54,-70 54,-115 0,-45 -24,-96 -73,-152 -49,-57 -96,-89 -140,-95 -44,-7 -83,5 -118,35 -28,24 -45,53 -48,87 -4,34 7,71 33,111z"/>
  <path id="36" class="fil1" d="M8226 9162c57,87 74,167 53,241 -17,60 -55,110 -113,148 -65,41 -131,55 -199,39 -69,-15 -127,-61 -176,-135 -39,-60 -61,-114 -65,-160 -5,-46 4,-90 26,-132 22,-42 54,-76 95,-102 65,-43 132,-57 200,-41 68,16 128,63 179,142zm-82 54c-39,-60 -81,-97 -127,-110 -45,-12 -88,-6 -128,20 -39,26 -62,62 -69,109 -6,47 10,101 50,163 38,58 80,93 126,106 46,13 88,6 127,-19 40,-26 63,-62 70,-109 7,-47 -9,-100 -49,-160z"/>
  <path id="37" class="fil2 str1" d="M2468 8907l-63 -85c69,-51 140,-77 211,-76 71,1 138,27 200,78 65,52 107,108 126,167 19,59 19,122 -1,190 -19,67 -52,129 -99,186 -51,63 -107,107 -169,135 -61,26 -124,34 -187,23 -64,-12 -122,-39 -175,-82 -60,-49 -98,-105 -114,-169 -16,-64 -10,-130 19,-199l93 46c-22,54 -27,103 -17,144 10,41 36,79 76,111 46,38 93,58 142,61 49,3 95,-9 138,-36 42,-27 80,-60 112,-100 41,-51 70,-102 86,-152 16,-50 16,-97 0,-141 -16,-45 -42,-81 -79,-111 -44,-36 -92,-54 -144,-54 -51,1 -103,22 -155,64z"/>
  <path id="38" class="fil2 str1" d="M2066 8366l-58 -80c53,-28 105,-37 156,-28 52,9 100,38 144,85 56,60 81,125 77,194 -4,70 -40,135 -106,197 -69,64 -139,96 -211,96 -71,0 -132,-29 -185,-85 -51,-55 -74,-117 -69,-186 5,-70 42,-136 110,-199 4,-4 10,-9 18,-17l284 306c43,-44 66,-89 68,-134 3,-45 -12,-85 -43,-119 -24,-26 -51,-41 -81,-47 -30,-5 -65,0 -104,17zm99 332l-212 -229c-32,35 -49,68 -53,99 -6,47 7,88 40,123 29,32 65,49 106,51 42,2 82,-13 119,-44z"/>
  <path id="39" class="fil2 str1" d="M2041 8048l-469 305 -46 -72 66 -43c-74,-1 -132,-34 -174,-99 -19,-28 -30,-57 -36,-88 -5,-30 -3,-56 6,-79 9,-22 23,-43 42,-63 13,-12 38,-31 75,-55l288 -187 52 79 -286 186c-32,21 -54,40 -66,56 -12,17 -18,36 -17,58 1,22 8,44 22,65 22,34 51,56 89,67 37,10 86,-4 146,-43l256 -167 52 80z"/>
  <path id="40" class="fil2 str1" d="M1535 7367l67 -52c18,21 32,41 42,59 16,30 24,56 24,78 -1,22 -7,41 -19,56 -11,15 -42,37 -92,64l-283 154 34 61 -65 36 -33 -61 -122 66 -95 -55 171 -94 -45 -84 64 -35 46 84 287 -157c24,-13 38,-23 43,-30 6,-6 8,-14 9,-23 0,-9 -3,-19 -10,-32 -5,-9 -13,-21 -23,-35z"/>
  <path id="41" class="fil2 str1" d="M1559 7212l-516 216 -33 -79 78 -33c-45,-5 -77,-13 -95,-25 -19,-12 -33,-29 -41,-49 -13,-30 -16,-64 -10,-102l94 -4c-4,27 -1,51 8,72 8,20 21,34 39,45 18,10 38,14 61,12 35,-3 71,-12 108,-28l271 -113 36 88z"/>
  <path id="42" class="fil2 str1" d="M1162 6958c-100,30 -181,24 -246,-17 -53,-34 -90,-84 -109,-151 -22,-73 -16,-141 18,-202 34,-61 94,-104 179,-130 69,-20 126,-26 172,-17 46,9 86,29 119,63 34,32 58,72 72,119 22,75 16,143 -18,204 -35,60 -97,104 -187,131zm-28 -93c68,-21 115,-51 140,-91 26,-40 32,-83 18,-128 -14,-46 -42,-78 -85,-98 -43,-19 -100,-19 -170,2 -67,20 -112,50 -138,90 -25,41 -31,83 -17,128 13,45 41,78 84,98 43,20 99,19 168,-1z"/>
  <polygon id="43" class="fil2 str1" points="1223,5903 453,5966 444,5864 1214,5801 "/>
  <path id="44" class="fil2 str1" d="M1205 5600l-559 -3 0 -85 80 0c-61,-41 -92,-101 -91,-178 0,-34 6,-65 19,-93 12,-29 28,-50 48,-63 19,-14 43,-24 70,-30 17,-3 48,-4 92,-4l344 2 -1 95 -340 -2c-39,-1 -68,3 -87,10 -19,7 -34,20 -46,39 -11,19 -17,41 -17,66 0,40 12,75 37,105 26,29 75,44 146,45l305 2 0 94z"/>
  <path id="45" class="fil2 str1" d="M1183 4751l85 -1c2,27 1,51 -2,72 -5,34 -14,60 -27,77 -14,17 -30,28 -48,33 -19,6 -56,4 -113,-4l-319 -45 -9 69 -73 -11 9 -69 -137 -19 -43 -102 194 28 13 -95 73 11 -13 94 324 46c27,4 44,5 52,3 8,-2 15,-7 21,-14 5,-7 9,-17 11,-31 2,-10 2,-24 2,-42z"/>
  <path id="46" class="fil2 str1" d="M1213 4217l40 -90c50,31 85,71 103,120 18,49 18,105 -1,167 -23,79 -66,134 -128,165 -62,31 -137,34 -224,8 -90,-27 -153,-71 -189,-133 -36,-61 -42,-129 -20,-203 21,-71 63,-123 126,-153 62,-31 137,-33 226,-7 5,2 13,5 24,8l-120 400c60,14 110,11 150,-10 40,-20 67,-53 81,-98 10,-33 10,-64 -1,-93 -10,-28 -33,-56 -67,-81zm-236 254l90 -299c-47,-9 -84,-8 -112,4 -44,18 -72,51 -86,97 -13,41 -9,81 10,117 19,37 52,64 98,81z"/>
  <path id="47" class="fil2 str1" d="M1483 4060l51 -78c28,8 51,7 70,-3 26,-15 47,-40 64,-77 19,-40 25,-74 19,-103 -6,-30 -22,-54 -47,-75 -15,-13 -51,-32 -108,-57 27,58 28,115 2,171 -32,70 -82,112 -150,127 -68,15 -138,7 -208,-26 -49,-22 -89,-51 -122,-88 -33,-36 -53,-76 -60,-120 -7,-43 0,-88 20,-133 28,-60 75,-98 141,-115l-61 -28 37 -79 439 202c80,36 132,70 157,102 26,31 40,68 44,112 3,44 -8,91 -31,142 -28,61 -64,104 -109,129 -44,24 -94,23 -148,-3zm-273 -212c67,31 122,40 165,27 43,-12 73,-38 92,-78 18,-40 18,-80 0,-121 -19,-41 -60,-76 -125,-106 -62,-29 -116,-36 -160,-23 -44,13 -76,39 -93,78 -18,38 -17,78 1,119 19,41 59,76 120,104z"/>
  <path id="48" class="fil2 str1" d="M1723 3455l-487 -274 41 -74 74 42c-24,-39 -37,-69 -39,-91 -1,-23 3,-44 14,-63 15,-28 40,-51 74,-70l61 72c-24,13 -41,30 -52,50 -10,18 -14,38 -11,58 3,21 12,39 28,56 24,26 53,49 88,68l256 144 -47 82z"/>
  <path id="49" class="fil2 str1" d="M2091 2781c0,46 -6,86 -17,118 -11,33 -29,64 -53,92 -40,47 -81,74 -126,80 -44,6 -84,-6 -120,-36 -21,-17 -36,-38 -45,-62 -10,-25 -13,-49 -11,-73 3,-24 10,-49 20,-72 9,-18 23,-42 44,-74 42,-65 70,-115 83,-151 -10,-9 -16,-14 -18,-16 -30,-25 -57,-36 -80,-32 -32,5 -64,26 -94,62 -29,34 -44,65 -46,91 -2,26 10,56 34,89l-70 63c-25,-32 -40,-63 -47,-93 -6,-31 -3,-64 11,-101 13,-36 35,-73 66,-110 31,-36 60,-63 88,-78 28,-16 53,-24 75,-23 22,0 45,6 68,18 15,8 38,26 70,53l97 81c68,57 112,91 132,103 21,12 43,20 67,25l-63 76c-22,-5 -43,-15 -65,-30zm-168 -130c-11,35 -35,83 -72,142 -21,33 -33,58 -38,75 -5,17 -6,33 -1,49 5,15 14,28 26,39 20,16 42,22 67,18 26,-3 50,-19 73,-48 24,-28 39,-58 45,-90 6,-32 3,-62 -10,-90 -10,-22 -31,-46 -63,-73l-27 -22z"/>
  <polygon id="50" class="fil2 str1" points="2314,2621 1756,2087 1821,2019 2380,2552 "/>
  <path id="51" class="fil2 str1" d="M3012 1997l-43 -56c6,66 -19,119 -74,161 -35,27 -75,42 -120,46 -44,3 -88,-7 -131,-29 -43,-23 -82,-57 -117,-102 -34,-44 -58,-90 -70,-138 -13,-47 -12,-92 2,-134 15,-41 41,-76 78,-104 26,-21 54,-34 84,-38 30,-5 58,-3 85,5l-169 -220 75 -58 470 613 -70 54zm-408 -39c44,57 88,90 134,100 45,9 84,2 117,-23 33,-25 51,-60 53,-105 2,-44 -17,-94 -60,-149 -46,-61 -92,-97 -137,-107 -46,-11 -85,-3 -120,23 -33,26 -51,61 -52,106 -2,44 20,96 65,155z"/>
  <path id="52" class="fil2 str1" d="M3484 1503l91 -38c14,58 11,111 -10,159 -21,48 -60,87 -116,119 -72,40 -141,50 -207,29 -66,-20 -122,-70 -166,-149 -46,-82 -61,-158 -44,-227 17,-69 59,-122 126,-160 66,-37 131,-44 197,-23 67,21 122,72 168,152 2,6 6,13 11,23l-363 204c33,52 71,84 114,97 43,14 85,9 126,-14 30,-17 52,-39 64,-67 13,-28 15,-63 9,-105zm-347 18l273 -152c-27,-39 -55,-64 -83,-75 -45,-17 -88,-14 -130,9 -38,22 -63,52 -74,92 -12,40 -7,82 14,126z"/>
  <path id="53" class="fil2 str1" d="M4081 1421l-172 -753 150 -34 300 492c28,46 48,80 61,103 3,-29 7,-72 13,-129l60 -565 134 -31 172 752 -96 23 -144 -630 -74 680 -90 20 -365 -591 147 641 -96 22z"/>
  <path id="54" class="fil2 str1" d="M5353 1024l98 4c-10,59 -35,105 -74,140 -40,35 -91,55 -156,60 -82,7 -149,-13 -200,-59 -52,-47 -82,-115 -89,-206 -8,-94 10,-169 54,-224 45,-56 105,-87 182,-93 75,-6 138,14 189,61 52,47 81,117 88,209 1,5 1,14 2,25l-416 34c8,61 30,106 63,136 34,30 74,43 121,40 35,-3 63,-15 86,-35 24,-20 41,-51 52,-92zm-323 -127l311 -26c-8,-46 -22,-81 -44,-103 -33,-33 -74,-49 -121,-45 -44,4 -79,21 -106,53 -28,31 -41,72 -40,121z"/>
  <path id="55" class="fil2 str1" d="M5622 550l1 -110 94 1 0 110 -95 -1zm-126 878l18 -80c19,5 34,7 45,7 20,1 34,-6 44,-19 9,-12 14,-44 14,-96l4 -587 95 0 -4 590c0,69 -10,117 -28,144 -23,35 -61,52 -114,52 -25,-1 -50,-4 -74,-11z"/>
  <path id="56" class="fil2 str1" d="M5895 942c15,-103 54,-174 119,-216 53,-34 114,-46 183,-37 76,11 134,45 176,102 41,57 55,129 43,217 -10,71 -29,126 -56,164 -28,38 -63,65 -107,82 -45,17 -91,22 -139,15 -78,-11 -137,-45 -178,-102 -40,-56 -54,-131 -41,-225zm97 14c-10,71 -2,126 24,166 26,40 62,63 109,69 47,7 88,-5 124,-36 36,-31 59,-83 69,-156 10,-68 2,-123 -24,-162 -26,-40 -62,-63 -109,-70 -47,-6 -88,6 -124,36 -36,31 -59,82 -69,153z"/>
  <path id="57" class="fil2 str1" d="M6515 1327l161 -536 81 25 -24 81c32,-32 59,-51 80,-58 22,-7 43,-7 64,-1 31,10 59,29 85,58l-57 75c-18,-20 -38,-33 -61,-40 -19,-6 -39,-5 -58,2 -20,7 -36,20 -49,39 -20,30 -36,63 -47,102l-84 280 -91 -27z"/>
  <path id="58" class="fil2 str1" d="M7258 1504c-44,16 -83,24 -118,24 -34,0 -69,-6 -104,-19 -57,-22 -96,-53 -117,-92 -20,-40 -22,-82 -6,-125 10,-26 25,-47 44,-64 20,-17 41,-28 65,-34 24,-6 49,-7 75,-5 19,2 47,7 84,16 75,18 131,28 170,29 5,-12 8,-20 9,-23 13,-36 14,-65 3,-86 -15,-28 -45,-51 -89,-68 -42,-16 -76,-20 -101,-13 -26,8 -50,28 -73,62l-83 -45c22,-34 46,-59 73,-75 27,-16 59,-24 98,-24 39,1 81,10 126,26 45,17 79,36 103,57 24,21 39,42 47,63 7,21 9,44 5,71 -3,16 -12,44 -27,83l-44 119c-31,82 -49,135 -53,158 -4,24 -5,47 -1,71l-93 -34c-2,-22 0,-46 7,-72zm67 -200c-38,1 -90,-6 -158,-21 -38,-9 -67,-13 -84,-12 -18,1 -33,7 -46,16 -13,10 -22,22 -28,38 -9,23 -7,46 5,69 12,22 35,40 69,53 35,13 68,17 100,12 32,-5 60,-18 82,-39 17,-17 33,-45 47,-84l13 -32z"/>
  <path id="59" class="fil2 str1" d="M7478 1682l298 -473 72 45 -42 66c30,-14 61,-20 95,-19 33,2 66,12 97,32 36,22 60,48 73,76 13,29 16,59 9,91 72,-31 139,-28 199,9 47,30 75,66 84,108 9,41 -4,89 -38,144l-204 325 -80 -50 187 -299c20,-32 32,-57 36,-74 4,-17 1,-35 -7,-52 -8,-17 -21,-32 -40,-43 -33,-21 -68,-28 -104,-19 -36,8 -69,37 -100,85l-173 276 -80 -51 194 -308c22,-35 32,-66 30,-92 -2,-26 -17,-49 -47,-67 -23,-15 -47,-22 -74,-22 -27,0 -51,9 -75,26 -23,18 -48,48 -75,91l-154 246 -81 -51z"/>
  <path id="60" class="fil2 str1" d="M8677 1707l70 -83 72 61 -70 83 -72 -61zm-431 504l363 -425 72 61 -363 426 -72 -62z"/>
  <path id="61" class="fil2 str1" d="M8848 2542l59 80c-53,28 -105,37 -156,29 -52,-9 -100,-37 -145,-84 -56,-59 -83,-124 -79,-193 4,-70 39,-136 104,-199 69,-64 139,-97 210,-97 71,-1 133,27 186,83 52,54 75,116 71,186 -5,69 -40,136 -107,199 -5,4 -11,10 -19,17l-287 -303c-43,45 -65,90 -67,135 -2,45 13,85 45,119 24,25 51,40 81,46 30,5 65,-1 104,-18zm-103 -332l215 227c31,-35 49,-68 52,-99 6,-47 -8,-88 -41,-123 -30,-31 -66,-48 -107,-49 -42,-2 -81,13 -119,44z"/>
  <path id="62" class="fil2 str1" d="M8879 2858l460 -318 49 70 -66 45c74,-1 133,30 177,94 19,28 32,57 38,87 6,30 5,57 -3,80 -8,22 -22,44 -41,64 -13,13 -37,31 -73,56l-283 196 -54 -78 280 -193c32,-23 54,-42 65,-59 12,-17 17,-36 16,-58 -2,-22 -10,-44 -24,-64 -23,-34 -53,-55 -91,-65 -38,-9 -86,6 -145,47l-252 174 -53 -78z"/>
  <path id="63" class="fil2 str1" d="M9400 3528l-67 52c-18,-20 -32,-40 -42,-59 -17,-30 -25,-56 -24,-78 0,-21 6,-40 18,-55 12,-16 43,-37 93,-64l282 -155 -33 -61 64 -35 34 61 121 -67 96 55 -172 94 46 84 -65 35 -46 -83 -286 157c-24,13 -39,23 -44,29 -5,7 -8,15 -8,23 -1,9 3,20 9,32 5,9 13,21 24,35z"/>
  <path id="64" class="fil2 str1" d="M9631 3539c95,-40 177,-43 245,-9 57,29 99,75 126,139 29,71 30,139 2,203 -27,65 -82,114 -164,148 -67,28 -123,40 -169,36 -47,-4 -89,-21 -126,-50 -37,-30 -64,-67 -83,-112 -30,-72 -32,-140 -4,-204 28,-64 85,-114 173,-151zm37 90c-66,28 -109,63 -130,105 -21,43 -23,86 -4,130 18,43 49,73 95,88 45,15 101,8 169,-20 64,-27 106,-61 127,-104 21,-43 22,-86 4,-129 -18,-44 -50,-73 -94,-88 -45,-16 -101,-9 -167,18z"/>
  <path id="65" class="fil2 str1" d="M9663 4432l811 164 18 108 -708 441 -20 -115 216 -128 -54 -318 -245 -45 -18 -107zm350 167l44 258 197 -115c60,-35 109,-62 148,-81 -50,-1 -101,-7 -152,-16l-237 -46z"/>
  <path id="66" class="fil2 str1" d="M9983 5614l-12 94c-64,-10 -115,-36 -151,-78 -37,-42 -55,-93 -56,-154 0,-77 25,-139 75,-185 49,-47 121,-71 215,-71 60,0 113,9 158,29 46,20 80,50 103,91 23,41 34,85 35,133 0,61 -15,111 -46,150 -30,39 -74,64 -130,75l-15 -92c37,-9 66,-25 84,-48 19,-22 29,-49 29,-80 -1,-48 -18,-87 -52,-117 -35,-29 -89,-44 -163,-44 -75,1 -130,15 -164,44 -34,29 -51,67 -50,113 0,38 11,69 34,93 23,25 58,41 106,47z"/>
  <path id="67" class="fil2 str1" d="M9793 6195c-25,-39 -41,-76 -49,-110 -7,-34 -8,-69 -3,-106 8,-61 30,-105 64,-134 35,-28 75,-39 121,-33 27,4 51,14 72,29 21,16 37,35 47,57 11,22 18,46 21,72 3,19 3,47 3,85 -2,77 1,135 8,172 13,2 21,4 24,4 39,6 67,1 85,-15 25,-21 41,-55 47,-102 7,-44 3,-78 -9,-101 -13,-24 -38,-43 -76,-59l26 -90c38,14 68,32 89,55 22,23 37,53 45,91 7,38 8,81 1,128 -7,48 -18,85 -33,113 -15,28 -33,48 -51,60 -19,11 -42,18 -68,20 -17,1 -46,-2 -88,-8l-125 -18c-87,-12 -143,-18 -167,-17 -23,0 -47,5 -69,14l14 -98c20,-7 44,-10 71,-9zm210 22c-9,-36 -13,-89 -13,-159 0,-39 -3,-67 -7,-84 -5,-17 -13,-31 -26,-42 -12,-10 -26,-17 -42,-19 -25,-4 -48,3 -67,19 -19,17 -32,43 -37,80 -5,36 -2,70 10,100 12,30 31,54 56,71 20,13 51,23 92,29l34 5z"/>
  <path id="68" class="fil2 str1" d="M9578 6798l67 20c-43,-50 -54,-108 -34,-173 13,-43 36,-79 70,-108 35,-28 76,-46 124,-53 48,-7 100,-3 154,14 54,16 100,40 138,70 38,31 64,68 76,111 13,42 12,86 -1,130 -10,32 -25,59 -46,80 -21,21 -46,36 -72,46l265 79 -27 90 -740 -222 26 -84zm353 -207c-68,-20 -124,-21 -167,-3 -42,19 -69,48 -81,88 -12,39 -6,78 18,115 24,38 69,67 136,87 73,22 132,24 174,6 43,-18 71,-48 83,-89 12,-41 6,-79 -19,-116 -25,-37 -73,-66 -144,-88z"/>
  <path id="69" class="fil2 str1" d="M9499 7480l-52 84c-45,-38 -74,-83 -85,-134 -11,-51 -3,-106 24,-165 34,-75 84,-123 150,-146 66,-22 140,-14 223,24 85,39 142,92 169,157 27,66 24,134 -8,204 -32,68 -80,113 -146,135 -67,22 -142,13 -226,-25 -5,-3 -12,-6 -22,-11l174 -379c-57,-23 -107,-27 -150,-12 -43,15 -74,43 -93,86 -15,31 -19,62 -13,92 7,30 25,60 55,90zm270 -219l-131 284c45,16 82,20 111,12 46,-13 79,-41 99,-84 19,-40 21,-79 6,-118 -14,-40 -42,-71 -85,-94zm225 217l105 125 -52 113 -85 -167 32 -71z"/>
  <path id="70" class="fil2 str1" d="M9231 7635l455 325 -49 69 -64 -46c12,30 17,62 13,96 -3,33 -16,65 -37,95 -25,34 -51,57 -81,68 -29,12 -60,13 -91,4 27,74 20,140 -21,198 -32,45 -69,71 -112,77 -42,6 -89,-9 -141,-46l-313 -223 55 -77 287 205c31,22 55,35 72,40 17,5 34,3 52,-4 18,-7 33,-20 46,-37 22,-32 31,-67 25,-103 -7,-36 -33,-71 -80,-105l-265 -189 55 -77 296 211c35,25 65,37 91,37 26,-1 49,-15 70,-44 15,-21 24,-46 26,-72 1,-27 -6,-52 -22,-76 -16,-24 -45,-51 -86,-80l-236 -169 55 -77z"/>
  <path id="71" class="fil2 str1" d="M9145 8834l79 75 -65 69 -79 -76 65 -68zm-479 -458l404 386 -65 69 -405 -387 66 -68z"/>
  <path id="72" class="fil2 str1" d="M8338 8969l-78 52c-35,-55 -48,-110 -40,-165 8,-55 34,-103 81,-143 57,-50 120,-72 188,-65 68,8 133,46 194,117 40,45 67,92 82,139 14,48 14,93 -2,137 -16,44 -42,82 -79,114 -46,40 -93,61 -143,63 -49,2 -96,-15 -142,-50l61 -71c31,22 61,33 90,33 30,0 56,-11 80,-32 36,-31 54,-70 54,-115 0,-45 -24,-96 -73,-152 -49,-57 -96,-89 -140,-95 -44,-7 -83,5 -118,35 -28,24 -45,53 -48,87 -4,34 7,71 33,111z"/>
  <path id="73" class="fil2 str1" d="M8226 9162c57,87 74,167 53,241 -17,60 -55,110 -113,148 -65,41 -131,55 -199,39 -69,-15 -127,-61 -176,-135 -39,-60 -61,-114 -65,-160 -5,-46 4,-90 26,-132 22,-42 54,-76 95,-102 65,-43 132,-57 200,-41 68,16 128,63 179,142zm-82 54c-39,-60 -81,-97 -127,-110 -45,-12 -88,-6 -128,20 -39,26 -62,62 -69,109 -6,47 10,101 50,163 38,58 80,93 126,106 46,13 88,6 127,-19 40,-26 63,-62 70,-109 7,-47 -9,-100 -49,-160z"/>
  <path class="fil1" d="M4200 10307c-46,52 -98,89 -155,111 -97,36 -198,36 -301,1 -56,-19 -107,-47 -153,-86 -47,-39 -84,-84 -112,-134 -31,-56 -48,-115 -54,-178 -5,-63 3,-125 24,-186 37,-110 112,-192 225,-246 66,-31 135,-50 207,-56 69,-6 134,1 193,21 18,6 39,15 63,28 11,5 44,26 98,61 48,31 84,51 109,59 26,9 60,10 103,2 -24,62 -51,109 -81,140 -20,21 -41,35 -65,43 -24,8 -46,9 -66,2 -18,-6 -34,-18 -48,-36 -11,-13 -21,-36 -32,-68 -20,-56 -40,-97 -62,-122 -22,-25 -49,-43 -82,-54 -28,-9 -58,-13 -89,-10 -32,3 -61,11 -87,25 -34,18 -64,45 -92,81 -28,36 -50,77 -65,123 -38,112 -30,211 25,296 48,76 124,131 226,166 89,30 179,35 271,17zm376 101l83 -474c10,-61 15,-98 17,-109 4,-37 -18,-65 -67,-85l5 -26 389 68 -5 27c-36,0 -63,10 -78,29 -8,9 -14,27 -19,53 -1,7 -7,35 -16,83l-84 474c-10,61 -15,98 -16,109 -5,37 17,66 66,85l-4 27 -390 -69 5 -27c37,0 63,-10 79,-29 7,-9 14,-27 18,-53 2,-7 7,-35 17,-83zm1362 -374l-141 221c-44,71 -90,152 -137,243 -17,-31 -32,-58 -46,-80 -13,-21 -48,-73 -105,-156l-141 -207 0 269c0,8 0,16 1,26 1,78 12,145 33,201 14,40 32,74 53,100 11,14 28,31 52,52l-345 7c54,-45 93,-101 118,-167 18,-54 29,-134 33,-240l10 -293c-24,-30 -46,-51 -66,-64 -26,-16 -60,-30 -102,-41 57,-43 108,-74 153,-95 48,-22 112,-41 189,-58 0,12 0,20 0,26 1,26 9,54 26,85 7,12 27,44 62,94l174 249 176 -277 -3 -137 312 -7 1 27c-36,8 -60,23 -71,44 -6,11 -9,30 -8,56 -1,8 -1,36 0,85l11 480c3,63 4,100 5,111 3,38 30,61 82,70l1 27 -404 9 0 -27c37,-4 64,-19 80,-44 5,-10 7,-29 8,-55 -1,-8 -1,-36 -1,-85l-10 -449zm1081 132l-329 246c1,10 1,17 0,20 0,21 1,37 4,48 7,24 33,37 79,38l7 26 -237 68 -8 -26c34,-21 57,-43 68,-66 12,-24 23,-73 34,-147l81 -578c-28,-21 -58,-39 -90,-53 37,-37 74,-68 109,-93 35,-24 84,-50 144,-79 4,22 6,37 9,47 3,9 6,18 11,27 3,4 18,24 46,60l381 491c28,37 47,60 56,69 23,20 46,33 68,39 13,3 33,5 59,5l7 26 -417 119 -8 -26c18,-10 30,-19 36,-27 11,-14 14,-30 8,-49 -3,-13 -13,-31 -31,-56l-87 -129zm-82 -100l-170 -214 -52 376 222 -162z"/>
  <path id="1" class="fil2 str1" d="M4200 10307c-46,52 -98,89 -155,111 -97,36 -198,36 -301,1 -56,-19 -107,-47 -153,-86 -47,-39 -84,-84 -112,-134 -31,-56 -48,-115 -54,-178 -5,-63 3,-125 24,-186 37,-110 112,-192 225,-246 66,-31 135,-50 207,-56 69,-6 134,1 193,21 18,6 39,15 63,28 11,5 44,26 98,61 48,31 84,51 109,59 26,9 60,10 103,2 -24,62 -51,109 -81,140 -20,21 -41,35 -65,43 -24,8 -46,9 -66,2 -18,-6 -34,-18 -48,-36 -11,-13 -21,-36 -32,-68 -20,-56 -40,-97 -62,-122 -22,-25 -49,-43 -82,-54 -28,-9 -58,-13 -89,-10 -32,3 -61,11 -87,25 -34,18 -64,45 -92,81 -28,36 -50,77 -65,123 -38,112 -30,211 25,296 48,76 124,131 226,166 89,30 179,35 271,17zm376 101l83 -474c10,-61 15,-98 17,-109 4,-37 -18,-65 -67,-85l5 -26 389 68 -5 27c-36,0 -63,10 -78,29 -8,9 -14,27 -19,53 -1,7 -7,35 -16,83l-84 474c-10,61 -15,98 -16,109 -5,37 17,66 66,85l-4 27 -390 -69 5 -27c37,0 63,-10 79,-29 7,-9 14,-27 18,-53 2,-7 7,-35 17,-83zm1362 -374l-141 221c-44,71 -90,152 -137,243 -17,-31 -32,-58 -46,-80 -13,-21 -48,-73 -105,-156l-141 -207 0 269c0,8 0,16 1,26 1,78 12,145 33,201 14,40 32,74 53,100 11,14 28,31 52,52l-345 7c54,-45 93,-101 118,-167 18,-54 29,-134 33,-240l10 -293c-24,-30 -46,-51 -66,-64 -26,-16 -60,-30 -102,-41 57,-43 108,-74 153,-95 48,-22 112,-41 189,-58 0,12 0,20 0,26 1,26 9,54 26,85 7,12 27,44 62,94l174 249 176 -277 -3 -137 312 -7 1 27c-36,8 -60,23 -71,44 -6,11 -9,30 -8,56 -1,8 -1,36 0,85l11 480c3,63 4,100 5,111 3,38 30,61 82,70l1 27 -404 9 0 -27c37,-4 64,-19 80,-44 5,-10 7,-29 8,-55 -1,-8 -1,-36 -1,-85l-10 -449zm1081 132l-329 246c1,10 1,17 0,20 0,21 1,37 4,48 7,24 33,37 79,38l7 26 -237 68 -8 -26c34,-21 57,-43 68,-66 12,-24 23,-73 34,-147l81 -578c-28,-21 -58,-39 -90,-53 37,-37 74,-68 109,-93 35,-24 84,-50 144,-79 4,22 6,37 9,47 3,9 6,18 11,27 3,4 18,24 46,60l381 491c28,37 47,60 56,69 23,20 46,33 68,39 13,3 33,5 59,5l7 26 -417 119 -8 -26c18,-10 30,-19 36,-27 11,-14 14,-30 8,-49 -3,-13 -13,-31 -31,-56l-87 -129zm-82 -100l-170 -214 -52 376 222 -162z"/>
  <path class="fil1" d="M2425 5163l69 -7c4,37 12,66 25,87 14,21 32,37 56,50 25,12 52,19 82,19 44,0 78,-11 102,-32 24,-22 36,-49 36,-83 0,-20 -5,-38 -13,-53 -9,-14 -22,-27 -40,-36 -18,-10 -56,-23 -115,-40 -52,-16 -89,-31 -111,-47 -23,-16 -40,-36 -52,-60 -13,-24 -19,-51 -19,-81 0,-55 18,-100 53,-135 36,-35 83,-52 143,-52 41,0 77,8 108,25 31,16 55,39 72,70 17,30 26,66 28,107l-70 7c-4,-44 -17,-77 -40,-98 -22,-21 -54,-32 -95,-32 -42,0 -73,10 -95,28 -22,19 -33,43 -33,72 0,28 8,49 24,64 16,15 52,30 108,45 55,15 93,28 116,39 33,17 59,40 76,68 17,28 26,62 26,101 0,38 -9,74 -28,105 -18,32 -42,57 -74,73 -31,17 -68,25 -112,25 -69,0 -123,-21 -164,-62 -41,-41 -62,-97 -63,-167z"/>
  <path id="1" class="fil1" d="M3327 4704l74 0 0 391c0,65 -6,119 -19,161 -13,42 -36,75 -70,100 -33,24 -76,36 -128,36 -73,0 -127,-22 -164,-65 -36,-44 -54,-121 -54,-232l0 -391 73 0 0 391c0,61 5,105 14,133 10,27 26,48 47,62 22,15 48,22 79,22 52,0 90,-15 113,-44 24,-30 35,-88 35,-173l0 -391z"/>
  <path id="2" class="fil1" d="M3523 5381l0 -677 208 0c43,0 76,7 101,20 24,13 44,33 60,61 16,28 24,58 24,92 0,31 -7,59 -21,84 -13,24 -32,44 -57,59 32,12 57,32 75,60 19,28 28,63 28,104 0,41 -8,77 -25,108 -17,31 -39,54 -67,68 -28,14 -66,21 -115,21l-211 0zm73 -392l120 0c32,0 54,-2 67,-7 19,-6 34,-17 45,-32 10,-16 15,-36 15,-63 0,-24 -5,-44 -14,-60 -10,-17 -22,-28 -38,-34 -15,-6 -43,-9 -83,-9l-112 0 0 205zm0 312l138 0c31,0 53,-2 68,-8 20,-8 36,-21 47,-39 11,-19 17,-42 17,-70 0,-25 -6,-47 -16,-65 -11,-18 -25,-30 -42,-39 -18,-8 -46,-12 -83,-12l-129 0 0 233z"/>
  <path id="3" class="fil1" d="M4256 5381l0 -677 191 0c47,0 83,5 108,13 32,11 60,30 84,59 23,29 42,65 55,108 13,44 20,95 20,155 0,76 -12,142 -34,195 -22,53 -51,91 -86,113 -36,23 -82,34 -138,34l-200 0zm73 -80l118 0c48,0 84,-7 108,-23 25,-15 44,-41 57,-75 17,-46 26,-101 26,-165 0,-69 -9,-123 -28,-162 -18,-39 -42,-66 -71,-79 -20,-9 -51,-13 -94,-13l-116 0 0 517z"/>
  <polygon id="4" class="fil1" points="4830,5381 4830,4704 4903,4704 4903,5381 "/>
  <path id="5" class="fil1" d="M5031 5381l0 -677 246 0c51,0 89,7 113,19 25,13 45,34 60,63 16,30 24,64 24,103 0,51 -13,92 -40,124 -27,31 -65,52 -116,60 21,13 36,25 47,37 22,26 41,55 58,87l96 184 -92 0 -74 -141c-29,-54 -50,-92 -65,-111 -14,-19 -28,-32 -42,-39 -14,-6 -33,-10 -57,-10l-84 0 0 301 -74 0zm74 -378l157 0c34,0 60,-4 78,-13 18,-8 32,-21 43,-39 10,-18 15,-38 15,-62 0,-34 -10,-61 -30,-81 -20,-19 -49,-29 -89,-29l-174 0 0 224z"/>
  <polygon id="6" class="fil1" points="5592,5381 5592,4704 5992,4704 5992,4784 5665,4784 5665,4992 5972,4992 5972,5071 5665,5071 5665,5301 6005,5301 6005,5381 "/>
  <path id="7" class="fil1" d="M6500 5144l74 22c-16,76 -45,133 -86,170 -40,37 -90,56 -148,56 -52,0 -96,-13 -132,-38 -36,-25 -66,-65 -89,-120 -24,-55 -35,-121 -35,-196 0,-74 11,-137 35,-189 23,-51 54,-90 94,-117 40,-26 84,-39 133,-39 53,0 99,17 138,50 38,33 65,82 80,147l-71 20c-25,-93 -74,-140 -149,-140 -36,0 -69,9 -96,28 -27,19 -48,48 -64,88 -17,40 -25,91 -25,152 0,92 17,162 49,208 33,46 76,70 130,70 40,0 75,-15 104,-43 29,-28 48,-72 58,-129z"/>
  <path id="8" class="fil1" d="M7059 5144l74 22c-16,76 -45,133 -86,170 -40,37 -90,56 -148,56 -52,0 -96,-13 -132,-38 -36,-25 -66,-65 -89,-120 -24,-55 -35,-121 -35,-196 0,-74 11,-137 35,-189 23,-51 54,-90 94,-117 40,-26 84,-39 133,-39 53,0 99,17 138,50 38,33 65,82 80,147l-71 20c-25,-93 -74,-140 -149,-140 -36,0 -69,9 -96,28 -27,19 -48,48 -64,88 -17,40 -25,91 -25,152 0,92 17,162 49,208 33,46 76,70 130,70 40,0 75,-15 104,-43 29,-28 49,-72 58,-129z"/>
  <polygon id="9" class="fil1" points="7239,5381 7239,4704 7312,4704 7312,5381 "/>
  <path id="10" class="fil1" d="M7420 5052c0,-116 25,-204 76,-266 51,-62 114,-93 190,-93 49,0 93,14 134,42 40,27 72,67 95,120 24,53 36,115 36,188 0,100 -23,182 -69,245 -50,69 -115,104 -197,104 -82,0 -147,-36 -197,-107 -45,-64 -68,-142 -68,-233zm75 1c0,83 19,148 56,194 36,46 81,69 134,69 54,0 99,-24 135,-70 37,-46 55,-115 55,-205 0,-58 -9,-110 -28,-156 -14,-35 -36,-63 -65,-84 -29,-21 -61,-31 -96,-31 -55,0 -101,23 -137,69 -36,46 -54,117 -54,214zm125 -395l50 -129 89 0 -83 129 -56 0z"/>
  <polygon id="11" class="fil1" points="8041,5381 8041,4704 8116,4704 8407,5237 8407,4704 8477,4704 8477,5381 8402,5381 8111,4849 8111,5381 "/>
  <polygon id="12" class="fil1" points="3342,6450 3342,5774 3418,5774 3709,6306 3709,5774 3779,5774 3779,6450 3704,6450 3413,5919 3413,6450 "/>
  <polygon id="13" class="fil1" points="3918,6450 3918,5774 3991,5774 3991,6450 "/>
  <path id="14" class="fil1" d="M4277 6450l-214 -676 79 0 145 491c11,38 20,75 29,111 8,-37 18,-74 29,-111l151 -491 74 0 -217 676 -76 0z"/>
  <polygon id="15" class="fil1" points="4577,6450 4577,6356 4654,6356 4654,6450 "/>
  <polygon id="16" class="fil1" points="5009,6450 5009,5774 5083,5774 5083,6450 "/>
  <polygon id="17" class="fil1" points="5208,6450 5208,5774 5284,5774 5575,6306 5575,5774 5645,5774 5645,6450 5570,6450 5279,5919 5279,6450 "/>
  <polygon id="18" class="fil1" points="5783,6450 5783,5774 5857,5774 5857,6450 "/>
  <path id="19" class="fil1" d="M6379 6213l73 23c-16,76 -45,132 -85,170 -41,37 -91,56 -149,56 -51,0 -95,-13 -132,-38 -36,-25 -66,-65 -89,-121 -23,-55 -35,-120 -35,-195 0,-75 12,-138 35,-189 23,-52 55,-91 94,-117 40,-26 84,-39 133,-39 54,0 100,16 138,50 38,33 65,82 81,146l-72 21c-25,-94 -74,-141 -148,-141 -37,0 -69,10 -96,28 -27,19 -49,49 -65,89 -16,40 -24,90 -24,152 0,92 16,161 49,208 32,46 75,69 130,69 40,0 74,-14 103,-43 29,-28 49,-71 59,-129z"/>
  <polygon id="20" class="fil1" points="6558,6450 6558,5774 6632,5774 6632,6450 "/>
  <path id="21" class="fil1" d="M6699 6450l213 -676 79 0 226 676 -84 0 -63 -205 -234 0 -60 205 -77 0zm158 -277l190 0 -58 -188c-18,-57 -31,-104 -40,-140 -7,43 -17,86 -30,129l-62 199z"/>
  <polygon id="22" class="fil1" points="7272,6450 7272,5774 7345,5774 7345,6371 7618,6371 7618,6450 "/>
  <path id="23" class="fil2 str2" d="M2425 5163l69 -7c4,37 12,66 25,87 14,21 32,37 56,50 25,12 52,19 82,19 44,0 78,-11 102,-32 24,-22 36,-49 36,-83 0,-20 -5,-38 -13,-53 -9,-14 -22,-27 -40,-36 -18,-10 -56,-23 -115,-40 -52,-16 -89,-31 -111,-47 -23,-16 -40,-36 -52,-60 -13,-24 -19,-51 -19,-81 0,-55 18,-100 53,-135 36,-35 83,-52 143,-52 41,0 77,8 108,25 31,16 55,39 72,70 17,30 26,66 28,107l-70 7c-4,-44 -17,-77 -40,-98 -22,-21 -54,-32 -95,-32 -42,0 -73,10 -95,28 -22,19 -33,43 -33,72 0,28 8,49 24,64 16,15 52,30 108,45 55,15 93,28 116,39 33,17 59,40 76,68 17,28 26,62 26,101 0,38 -9,74 -28,105 -18,32 -42,57 -74,73 -31,17 -68,25 -112,25 -69,0 -123,-21 -164,-62 -41,-41 -62,-97 -63,-167z"/>
  <path id="24" class="fil2 str2" d="M3327 4704l74 0 0 391c0,65 -6,119 -19,161 -13,42 -36,75 -70,100 -33,24 -76,36 -128,36 -73,0 -127,-22 -164,-65 -36,-44 -54,-121 -54,-232l0 -391 73 0 0 391c0,61 5,105 14,133 10,27 26,48 47,62 22,15 48,22 79,22 52,0 90,-15 113,-44 24,-30 35,-88 35,-173l0 -391z"/>
  <path id="25" class="fil2 str2" d="M3523 5381l0 -677 208 0c43,0 76,7 101,20 24,13 44,33 60,61 16,28 24,58 24,92 0,31 -7,59 -21,84 -13,24 -32,44 -57,59 32,12 57,32 75,60 19,28 28,63 28,104 0,41 -8,77 -25,108 -17,31 -39,54 -67,68 -28,14 -66,21 -115,21l-211 0zm73 -392l120 0c32,0 54,-2 67,-7 19,-6 34,-17 45,-32 10,-16 15,-36 15,-63 0,-24 -5,-44 -14,-60 -10,-17 -22,-28 -38,-34 -15,-6 -43,-9 -83,-9l-112 0 0 205zm0 312l138 0c31,0 53,-2 68,-8 20,-8 36,-21 47,-39 11,-19 17,-42 17,-70 0,-25 -6,-47 -16,-65 -11,-18 -25,-30 -42,-39 -18,-8 -46,-12 -83,-12l-129 0 0 233z"/>
  <path id="26" class="fil2 str2" d="M4256 5381l0 -677 191 0c47,0 83,5 108,13 32,11 60,30 84,59 23,29 42,65 55,108 13,44 20,95 20,155 0,76 -12,142 -34,195 -22,53 -51,91 -86,113 -36,23 -82,34 -138,34l-200 0zm73 -80l118 0c48,0 84,-7 108,-23 25,-15 44,-41 57,-75 17,-46 26,-101 26,-165 0,-69 -9,-123 -28,-162 -18,-39 -42,-66 -71,-79 -20,-9 -51,-13 -94,-13l-116 0 0 517z"/>
  <polygon id="27" class="fil2 str2" points="4830,5381 4830,4704 4903,4704 4903,5381 "/>
  <path id="28" class="fil2 str2" d="M5031 5381l0 -677 246 0c51,0 89,7 113,19 25,13 45,34 60,63 16,30 24,64 24,103 0,51 -13,92 -40,124 -27,31 -65,52 -116,60 21,13 36,25 47,37 22,26 41,55 58,87l96 184 -92 0 -74 -141c-29,-54 -50,-92 -65,-111 -14,-19 -28,-32 -42,-39 -14,-6 -33,-10 -57,-10l-84 0 0 301 -74 0zm74 -378l157 0c34,0 60,-4 78,-13 18,-8 32,-21 43,-39 10,-18 15,-38 15,-62 0,-34 -10,-61 -30,-81 -20,-19 -49,-29 -89,-29l-174 0 0 224z"/>
  <polygon id="29" class="fil2 str2" points="5592,5381 5592,4704 5992,4704 5992,4784 5665,4784 5665,4992 5972,4992 5972,5071 5665,5071 5665,5301 6005,5301 6005,5381 "/>
  <path id="30" class="fil2 str2" d="M6500 5144l74 22c-16,76 -45,133 -86,170 -40,37 -90,56 -148,56 -52,0 -96,-13 -132,-38 -36,-25 -66,-65 -89,-120 -24,-55 -35,-121 -35,-196 0,-74 11,-137 35,-189 23,-51 54,-90 94,-117 40,-26 84,-39 133,-39 53,0 99,17 138,50 38,33 65,82 80,147l-71 20c-25,-93 -74,-140 -149,-140 -36,0 -69,9 -96,28 -27,19 -48,48 -64,88 -17,40 -25,91 -25,152 0,92 17,162 49,208 33,46 76,70 130,70 40,0 75,-15 104,-43 29,-28 48,-72 58,-129z"/>
  <path id="31" class="fil2 str2" d="M7059 5144l74 22c-16,76 -45,133 -86,170 -40,37 -90,56 -148,56 -52,0 -96,-13 -132,-38 -36,-25 -66,-65 -89,-120 -24,-55 -35,-121 -35,-196 0,-74 11,-137 35,-189 23,-51 54,-90 94,-117 40,-26 84,-39 133,-39 53,0 99,17 138,50 38,33 65,82 80,147l-71 20c-25,-93 -74,-140 -149,-140 -36,0 -69,9 -96,28 -27,19 -48,48 -64,88 -17,40 -25,91 -25,152 0,92 17,162 49,208 33,46 76,70 130,70 40,0 75,-15 104,-43 29,-28 49,-72 58,-129z"/>
  <polygon id="32" class="fil2 str2" points="7239,5381 7239,4704 7312,4704 7312,5381 "/>
  <path id="33" class="fil2 str2" d="M7420 5052c0,-116 25,-204 76,-266 51,-62 114,-93 190,-93 49,0 93,14 134,42 40,27 72,67 95,120 24,53 36,115 36,188 0,100 -23,182 -69,245 -50,69 -115,104 -197,104 -82,0 -147,-36 -197,-107 -45,-64 -68,-142 -68,-233zm75 1c0,83 19,148 56,194 36,46 81,69 134,69 54,0 99,-24 135,-70 37,-46 55,-115 55,-205 0,-58 -9,-110 -28,-156 -14,-35 -36,-63 -65,-84 -29,-21 -61,-31 -96,-31 -55,0 -101,23 -137,69 -36,46 -54,117 -54,214zm125 -395l50 -129 89 0 -83 129 -56 0z"/>
  <polygon id="34" class="fil2 str2" points="8041,5381 8041,4704 8116,4704 8407,5237 8407,4704 8477,4704 8477,5381 8402,5381 8111,4849 8111,5381 "/>
  <polygon id="35" class="fil2 str2" points="3342,6450 3342,5774 3418,5774 3709,6306 3709,5774 3779,5774 3779,6450 3704,6450 3413,5919 3413,6450 "/>
  <polygon id="36" class="fil2 str2" points="3918,6450 3918,5774 3991,5774 3991,6450 "/>
  <path id="37" class="fil2 str2" d="M4277 6450l-214 -676 79 0 145 491c11,38 20,75 29,111 8,-37 18,-74 29,-111l151 -491 74 0 -217 676 -76 0z"/>
  <polygon id="38" class="fil2 str2" points="4577,6450 4577,6356 4654,6356 4654,6450 "/>
  <polygon id="39" class="fil2 str2" points="5009,6450 5009,5774 5083,5774 5083,6450 "/>
  <polygon id="40" class="fil2 str2" points="5208,6450 5208,5774 5284,5774 5575,6306 5575,5774 5645,5774 5645,6450 5570,6450 5279,5919 5279,6450 "/>
  <polygon id="41" class="fil2 str2" points="5783,6450 5783,5774 5857,5774 5857,6450 "/>
  <path id="42" class="fil2 str2" d="M6379 6213l73 23c-16,76 -45,132 -85,170 -41,37 -91,56 -149,56 -51,0 -95,-13 -132,-38 -36,-25 -66,-65 -89,-121 -23,-55 -35,-120 -35,-195 0,-75 12,-138 35,-189 23,-52 55,-91 94,-117 40,-26 84,-39 133,-39 54,0 100,16 138,50 38,33 65,82 81,146l-72 21c-25,-94 -74,-141 -148,-141 -37,0 -69,10 -96,28 -27,19 -49,49 -65,89 -16,40 -24,90 -24,152 0,92 16,161 49,208 32,46 75,69 130,69 40,0 74,-14 103,-43 29,-28 49,-71 59,-129z"/>
  <polygon id="43" class="fil2 str2" points="6558,6450 6558,5774 6632,5774 6632,6450 "/>
  <path id="44" class="fil2 str2" d="M6699 6450l213 -676 79 0 226 676 -84 0 -63 -205 -234 0 -60 205 -77 0zm158 -277l190 0 -58 -188c-18,-57 -31,-104 -40,-140 -7,43 -17,86 -30,129l-62 199z"/>
  <polygon id="45" class="fil2 str2" points="7272,6450 7272,5774 7345,5774 7345,6371 7618,6371 7618,6450 "/>
  <line class="fil0 str3" x1="2118" y1="6742" x2="8964" y2= "6742" />
  <line class="fil0 str3" x1="2118" y1="4396" x2="8964" y2= "4396" />
 </g>
</svg>
