<?xml version="1.0" encoding="UTF-8"?>
<!DOCTYPE svg PUBLIC "-//W3C//DTD SVG 1.0//EN" "http://www.w3.org/TR/2001/REC-SVG-20010904/DTD/svg10.dtd">
<!-- Creator: CorelDRAW X7 -->
<svg xmlns="http://www.w3.org/2000/svg" xml:space="preserve" width="150px" height="150px" version="1.0" style="shape-rendering:geometricPrecision; text-rendering:geometricPrecision; image-rendering:optimizeQuality; fill-rule:evenodd; clip-rule:evenodd"
viewBox="0 0 17437 17437"
 xmlns:xlink="http://www.w3.org/1999/xlink">
 <defs>
  <style type="text/css">
   <![CDATA[
    .str0 {stroke:#1F5CA9;stroke-width:187.306}
    .str3 {stroke:#1F5CA9;stroke-width:107.019}
    .str1 {stroke:#1F5CA9;stroke-width:23.1212}
    .str2 {stroke:#1F5CA9;stroke-width:23.1212;stroke-linecap:round;stroke-linejoin:round}
    .fil0 {fill:none}
    .fil2 {fill:none;fill-rule:nonzero}
    .fil1 {fill:#1F5CA9;fill-rule:nonzero}
   ]]>
  </style>
 </defs>
 <g id="Capa_x0020_1">
  <metadata id="CorelCorpID_0Corel-Layer"/>
  <circle class="fil0 str0" cx="8719" cy="8719" r="8625"/>
  <path class="fil1" d="M3925 14133l-100 -134c110,-82 222,-122 335,-121 112,2 218,43 317,123 103,84 169,172 200,266 30,94 30,194 -1,301 -31,106 -83,205 -157,296 -81,99 -170,170 -268,213 -98,43 -197,55 -298,36 -101,-18 -193,-61 -277,-130 -95,-77 -156,-166 -181,-268 -26,-101 -16,-206 30,-314l148 72c-34,87 -43,163 -27,229 16,65 56,124 120,176 73,59 148,91 226,96 78,5 150,-14 218,-57 68,-42 127,-96 178,-158 66,-81 112,-161 137,-241 26,-79 26,-154 0,-224 -25,-71 -67,-129 -125,-176 -71,-58 -147,-86 -229,-85 -82,1 -164,34 -246,100z"/>
  <path id="1" class="fil1" d="M3289 13261l-88 -130c85,-41 168,-53 249,-36 82,17 156,65 224,143 85,98 122,202 112,312 -10,109 -70,212 -179,307 -113,98 -225,145 -338,141 -113,-4 -210,-52 -290,-145 -78,-89 -111,-189 -100,-299 12,-110 73,-213 184,-309 7,-6 17,-14 30,-26l435 500c70,-68 108,-138 115,-210 7,-71 -15,-135 -63,-191 -36,-41 -78,-67 -126,-78 -47,-10 -102,-3 -165,21zm140 533l-325 -374c-52,54 -82,105 -89,153 -13,74 6,140 56,198 46,52 101,81 167,86 66,5 130,-16 191,-63z"/>
  <path id="2" class="fil1" d="M3247 12771l-744 484 -74 -113 106 -69c-117,-2 -210,-54 -277,-157 -29,-45 -48,-91 -56,-139 -8,-48 -5,-90 9,-126 13,-36 36,-69 67,-100 20,-20 60,-49 118,-87l457 -297 82 126 -452 294c-51,34 -87,63 -105,90 -20,26 -29,57 -27,92 0,34 12,69 34,102 35,54 82,89 142,106 59,17 136,-6 232,-68l406 -264 82 126z"/>
  <path id="3" class="fil1" d="M2444 11692l106 -83c28,33 50,64 66,93 27,48 39,89 39,124 -1,35 -11,64 -30,89 -18,24 -67,58 -146,101l-448 245 53 97 -103 56 -53 -97 -193 106 -151 -88 272 -149 -73 -132 103 -57 73 133 455 -249c38,-21 60,-36 69,-47 8,-10 12,-23 13,-37 1,-14 -4,-30 -15,-50 -8,-15 -21,-33 -37,-55z"/>
  <path id="4" class="fil1" d="M2482 11445l-819 342 -52 -125 124 -52c-72,-7 -122,-21 -152,-40 -30,-19 -51,-45 -65,-78 -19,-46 -24,-100 -15,-161l149 -6c-6,42 -2,81 12,115 13,30 34,53 62,70 28,16 61,23 98,20 56,-5 113,-20 171,-44l429 -180 58 139z"/>
  <path id="5" class="fil1" d="M1851 11042c-157,48 -287,39 -389,-26 -85,-55 -143,-134 -174,-240 -35,-116 -26,-223 29,-321 54,-97 149,-165 284,-206 110,-32 200,-41 273,-27 73,14 136,47 189,99 53,53 91,116 113,190 36,119 26,227 -28,323 -55,96 -154,166 -297,208zm-44 -148c109,-32 183,-80 223,-144 40,-64 49,-131 28,-203 -22,-72 -66,-123 -135,-155 -69,-31 -159,-30 -270,3 -106,32 -178,80 -218,143 -40,64 -49,132 -28,203 21,72 66,124 134,155 68,31 157,31 266,-2z"/>
  <polygon id="6" class="fil1" points="1947,9369 726,9468 712,9307 1934,9208 "/>
  <path id="7" class="fil1" d="M1919 8889l-887 -6 0 -135 126 0c-96,-65 -145,-160 -144,-283 1,-54 10,-102 30,-147 19,-45 45,-78 76,-100 32,-23 69,-38 112,-47 28,-5 76,-7 146,-7l546 4 -2 150 -539 -4c-62,0 -107,6 -138,17 -30,12 -55,32 -73,62 -18,30 -28,64 -28,104 0,65 20,120 60,167 40,47 118,70 231,71l485 3 -1 151z"/>
  <path id="8" class="fil1" d="M1884 7541l135 -2c3,43 2,81 -3,114 -8,54 -22,95 -44,122 -21,28 -47,46 -76,54 -30,8 -89,5 -179,-7l-506 -72 -15 109 -116 -17 16 -109 -218 -31 -68 -161 307 44 21 -150 116 17 -21 149 514 74c42,6 70,7 83,4 13,-4 23,-11 33,-22 8,-11 14,-27 18,-49 2,-17 3,-39 3,-67z"/>
  <path id="9" class="fil1" d="M1931 6694l63 -144c80,50 135,114 164,192 29,78 28,166 -1,265 -38,124 -106,211 -204,261 -99,50 -217,54 -355,13 -143,-43 -243,-114 -300,-211 -57,-97 -68,-205 -32,-322 34,-114 100,-195 199,-244 99,-49 219,-52 359,-10 9,3 22,7 39,12l-191 635c95,22 175,17 239,-15 63,-33 106,-85 127,-156 16,-52 16,-102 0,-148 -17,-45 -53,-88 -107,-128zm-375 403l143 -475c-74,-15 -133,-13 -178,6 -69,30 -115,81 -137,154 -19,66 -14,128 17,187 31,58 82,101 155,128z"/>
  <path id="10" class="fil1" d="M2359 6444l81 -124c43,14 80,12 111,-5 41,-22 75,-63 102,-122 29,-63 39,-118 29,-163 -9,-47 -34,-86 -74,-119 -24,-20 -81,-51 -171,-91 43,92 44,183 3,272 -51,111 -131,178 -238,202 -109,24 -219,10 -331,-41 -76,-36 -141,-82 -193,-140 -52,-58 -84,-121 -95,-191 -12,-69 -1,-139 32,-210 44,-96 119,-156 224,-183l-97 -44 58 -127 697 321c126,58 209,112 250,162 40,49 63,109 68,178 5,70 -11,145 -49,226 -44,96 -101,164 -172,203 -70,40 -149,38 -235,-4zm-433 -336c106,49 193,63 261,43 68,-19 117,-61 146,-124 29,-63 28,-127 0,-191 -29,-65 -95,-121 -198,-169 -99,-46 -184,-58 -254,-37 -70,21 -120,62 -148,124 -28,61 -27,123 3,189 30,65 93,120 190,165z"/>
  <path id="11" class="fil1" d="M2740 5485l-774 -435 66 -118 118 66c-38,-61 -59,-109 -62,-144 -3,-36 4,-69 21,-99 25,-45 64,-81 118,-111l96 113c-37,21 -64,48 -82,80 -16,29 -22,60 -18,92 5,33 19,62 45,89 38,41 85,77 140,108l405 228 -73 131z"/>
  <path id="12" class="fil1" d="M3319 4414c2,73 -6,136 -23,188 -18,53 -45,102 -82,148 -62,75 -128,118 -198,129 -70,11 -133,-8 -191,-54 -34,-28 -58,-60 -74,-99 -15,-37 -21,-76 -18,-114 3,-39 13,-77 30,-116 13,-27 35,-67 67,-117 65,-104 108,-184 129,-242 -16,-13 -26,-21 -30,-25 -48,-39 -90,-55 -127,-49 -51,9 -100,42 -148,101 -45,55 -68,103 -70,145 -2,42 16,89 55,141l-109 102c-40,-50 -66,-99 -76,-148 -11,-48 -6,-101 14,-159 20,-58 55,-117 103,-176 48,-59 94,-101 137,-127 44,-25 83,-38 118,-38 36,-1 72,9 109,28 24,12 61,39 113,81l156 127c108,88 179,142 212,160 33,19 68,31 107,38l-100 122c-34,-8 -68,-23 -104,-46zm-269 -202c-17,56 -54,132 -110,226 -33,54 -52,94 -60,121 -7,27 -7,53 1,77 8,25 22,45 42,62 31,25 67,34 107,27 39,-6 78,-32 115,-78 36,-45 59,-93 68,-144 9,-51 3,-98 -18,-143 -16,-34 -50,-72 -102,-113l-43 -35z"/>
  <polygon id="13" class="fil1" points="3676,4160 2791,3314 2895,3205 3780,4052 "/>
  <path id="14" class="fil1" d="M4781 3167l-69 -89c10,104 -28,190 -114,257 -56,44 -119,69 -190,74 -71,7 -141,-8 -209,-43 -69,-35 -131,-89 -187,-160 -55,-70 -93,-142 -114,-217 -22,-76 -20,-146 2,-213 23,-67 63,-123 121,-168 42,-33 86,-53 133,-61 47,-8 92,-6 135,6l-271 -346 118 -92 755 966 -110 86zm-648 -56c70,89 142,141 214,156 72,15 134,2 186,-38 52,-40 79,-96 82,-167 3,-71 -29,-149 -97,-236 -75,-96 -148,-152 -220,-168 -72,-16 -135,-3 -189,40 -53,41 -80,97 -82,168 -2,70 34,152 106,245z"/>
  <path id="15" class="fil1" d="M5531 2386l145 -59c23,91 18,174 -15,250 -34,77 -95,140 -185,190 -113,64 -223,79 -328,47 -105,-33 -193,-112 -264,-238 -73,-130 -96,-250 -69,-359 26,-110 93,-195 200,-254 104,-59 208,-71 313,-37 105,34 193,114 265,242 4,8 11,20 19,36l-577 323c52,82 113,134 181,155 69,21 135,13 200,-23 48,-27 82,-63 102,-107 20,-44 24,-99 13,-166zm-549 29l432 -242c-43,-62 -86,-102 -132,-119 -70,-27 -138,-22 -205,15 -60,34 -100,83 -118,146 -18,63 -11,130 23,200z"/>
  <path id="16" class="fil1" d="M6479 2255l-274 -1194 238 -54 476 781c45,72 77,127 98,163 4,-46 10,-115 20,-206l95 -896 213 -49 273 1194 -152 35 -229 -999 -118 1079 -143 32 -578 -937 233 1016 -152 35z"/>
  <path id="17" class="fil1" d="M8496 1625l157 6c-18,93 -57,167 -119,222 -62,56 -144,87 -247,96 -130,10 -236,-21 -318,-95 -82,-74 -129,-182 -141,-326 -12,-149 17,-268 87,-356 70,-89 166,-138 288,-148 119,-9 219,23 300,98 82,74 128,184 140,331 1,8 2,22 3,40l-660 53c13,97 47,169 100,217 54,47 118,68 192,62 55,-4 100,-22 137,-55 36,-32 64,-80 81,-145zm-512 -203l494 -40c-13,-74 -36,-128 -70,-163 -53,-54 -117,-78 -193,-72 -69,6 -125,34 -168,84 -44,50 -64,114 -63,191z"/>
  <path id="18" class="fil1" d="M8923 873l1 -175 150 1 -1 175 -150 -1zm-200 1393l30 -128c30,9 53,12 71,13 30,0 53,-10 68,-31 15,-20 23,-70 24,-152l6 -932 150 1 -6 935c0,110 -15,186 -44,228 -36,56 -97,83 -181,83 -40,-1 -80,-6 -118,-17z"/>
  <path id="19" class="fil1" d="M9357 1495c23,-163 86,-277 188,-342 84,-55 181,-74 290,-59 121,18 214,71 279,161 66,90 88,205 69,345 -17,113 -46,200 -89,260 -43,60 -100,103 -170,130 -70,26 -143,34 -220,23 -123,-17 -217,-71 -282,-161 -64,-89 -86,-208 -65,-357zm153 22c-16,113 -3,200 38,263 41,63 99,100 173,111 74,10 140,-9 197,-58 57,-50 94,-132 110,-247 16,-109 3,-195 -38,-258 -42,-63 -99,-100 -173,-110 -74,-11 -140,8 -197,57 -57,49 -94,129 -110,242z"/>
  <path id="20" class="fil1" d="M10340 2106l255 -850 130 39 -39 129c51,-50 94,-81 128,-92 33,-11 67,-11 101,-1 48,15 93,45 134,91l-90 119c-29,-32 -61,-53 -96,-63 -32,-9 -63,-8 -94,3 -30,11 -56,32 -77,63 -31,46 -56,100 -75,161l-133 445 -144 -44z"/>
  <path id="21" class="fil1" d="M11518 2388c-69,25 -131,38 -186,38 -55,0 -110,-11 -165,-31 -91,-34 -153,-83 -186,-146 -32,-63 -35,-129 -9,-199 15,-40 38,-74 70,-101 31,-26 65,-44 103,-53 37,-9 77,-12 118,-9 31,3 75,12 133,26 119,29 209,45 270,46 8,-19 12,-31 14,-36 22,-58 24,-103 6,-137 -24,-45 -72,-81 -142,-107 -67,-25 -120,-32 -160,-21 -41,12 -79,44 -117,97l-130 -70c34,-54 73,-94 115,-120 43,-25 95,-38 156,-37 62,1 128,15 200,42 70,26 125,56 163,90 38,33 63,66 74,99 12,33 14,71 8,112 -4,26 -18,70 -42,133l-70 188c-49,130 -77,215 -84,251 -7,38 -8,75 -2,113l-147 -55c-4,-34 0,-72 10,-113zm106 -318c-59,1 -142,-10 -250,-34 -61,-13 -105,-19 -133,-18 -28,2 -52,10 -73,25 -20,16 -35,35 -44,60 -15,37 -12,74 7,110 19,35 56,64 111,84 54,20 107,27 158,19 51,-8 94,-29 130,-63 27,-26 52,-70 75,-132l19 -51z"/>
  <path id="22" class="fil1" d="M11868 2671l473 -752 114 72 -66 105c46,-22 96,-31 149,-29 54,2 105,19 155,50 56,35 95,76 116,121 21,45 25,94 14,144 115,-50 220,-45 315,15 75,47 119,103 133,170 14,66 -6,142 -59,228l-325 516 -127 -79 298 -474c32,-51 51,-90 57,-118 6,-27 2,-55 -11,-82 -13,-27 -34,-50 -64,-69 -53,-33 -107,-43 -165,-30 -57,13 -109,59 -158,136l-275 437 -127 -80 307 -489c35,-56 52,-105 49,-147 -3,-41 -28,-76 -75,-106 -36,-23 -75,-34 -118,-34 -42,-1 -81,13 -118,41 -36,28 -76,76 -119,144l-245 390 -128 -80z"/>
  <path id="23" class="fil1" d="M13769 2710l112 -132 115 98 -113 132 -114 -98zm-684 801l577 -676 114 98 -577 675 -114 -97z"/>
  <path id="24" class="fil1" d="M14040 4036l94 126c-83,45 -166,60 -248,46 -82,-13 -158,-58 -229,-132 -90,-95 -131,-197 -126,-307 6,-111 61,-215 166,-315 109,-102 219,-154 332,-155 113,-1 211,43 296,132 81,86 119,185 112,295 -7,110 -64,215 -170,316 -7,6 -16,15 -30,27l-455 -480c-67,71 -103,142 -106,214 -4,71 20,134 71,188 38,40 81,64 129,73 48,8 103,-1 164,-28zm-163 -527l341 361c50,-57 78,-109 83,-158 9,-74 -12,-139 -65,-194 -47,-51 -104,-77 -170,-79 -66,-3 -129,21 -189,70z"/>
  <path id="25" class="fil1" d="M14089 4537l730 -505 77 112 -104 71c118,-1 211,49 281,150 31,44 51,90 60,138 10,48 8,90 -4,126 -14,36 -35,70 -66,101 -19,21 -58,51 -115,91l-450 310 -85 -124 444 -307c51,-35 85,-66 104,-93 18,-26 26,-58 24,-92 -2,-35 -14,-69 -37,-102 -36,-53 -85,-87 -144,-102 -61,-15 -137,10 -231,74l-399 276 -85 -124z"/>
  <path id="26" class="fil1" d="M14915 5601l-106 82c-28,-32 -50,-64 -67,-93 -26,-48 -38,-89 -38,-124 1,-34 11,-64 30,-88 18,-25 67,-58 146,-102l448 -245 -53 -97 103 -56 53 97 193 -105 151 87 -272 149 73 133 -103 56 -73 -132 -455 249c-38,20 -60,36 -69,46 -8,11 -12,23 -13,37 -1,14 4,31 15,51 8,14 21,32 37,55z"/>
  <path id="27" class="fil1" d="M15281 5619c152,-64 282,-68 390,-14 90,45 156,118 199,219 47,113 48,220 4,322 -44,103 -131,181 -261,236 -105,44 -195,62 -268,56 -74,-6 -140,-33 -199,-79 -59,-47 -103,-106 -133,-177 -48,-115 -50,-223 -5,-324 43,-102 135,-182 273,-239zm60 142c-105,44 -174,100 -207,167 -33,68 -36,136 -7,206 29,69 79,115 151,139 72,24 161,13 269,-31 101,-42 168,-98 201,-166 33,-67 35,-135 7,-204 -29,-69 -79,-116 -150,-140 -71,-24 -159,-14 -264,29z"/>
  <path id="28" class="fil1" d="M15332 7036l1286 259 29 172 -1124 699 -31 -182 342 -203 -85 -505 -389 -71 -28 -169zm555 264l69 410 313 -183c95,-56 174,-98 236,-128 -80,-2 -160,-11 -242,-26l-376 -73z"/>
  <path id="29" class="fil1" d="M15839 8911l-19 148c-102,-15 -182,-56 -240,-123 -58,-66 -87,-148 -88,-245 0,-121 39,-219 118,-293 79,-75 193,-112 341,-113 96,0 180,15 252,47 72,31 126,79 162,144 37,65 55,135 55,212 1,96 -23,175 -72,237 -48,61 -117,101 -207,119l-23 -146c60,-15 104,-40 134,-75 30,-36 45,-79 45,-129 -1,-76 -28,-137 -83,-184 -54,-47 -140,-71 -258,-70 -119,0 -206,24 -260,70 -54,46 -80,105 -80,179 0,59 19,108 55,148 36,39 92,64 168,74z"/>
  <path id="30" class="fil1" d="M15536 9832c-39,-62 -64,-120 -76,-173 -12,-54 -14,-111 -6,-169 14,-97 48,-167 103,-212 54,-46 118,-63 192,-53 43,7 81,22 113,47 33,24 58,54 75,89 17,35 28,73 34,114 3,30 4,76 3,136 -3,122 2,213 14,273 20,3 33,5 38,6 61,9 106,1 135,-24 39,-33 64,-87 74,-162 10,-70 6,-124 -14,-161 -20,-37 -60,-68 -120,-93l41 -142c60,22 107,51 141,86 34,36 58,84 70,145 13,60 13,128 3,204 -11,75 -28,134 -53,179 -24,44 -51,76 -81,94 -30,18 -66,29 -108,32 -26,1 -73,-3 -139,-12l-198 -29c-139,-20 -227,-29 -265,-28 -37,2 -74,9 -110,23l22 -156c33,-11 70,-16 112,-14zm335 35c-14,-57 -22,-141 -22,-251 0,-63 -3,-107 -11,-135 -7,-26 -21,-48 -40,-65 -19,-17 -42,-27 -68,-31 -39,-6 -75,4 -106,31 -30,26 -50,68 -58,126 -8,58 -3,111 16,159 19,48 48,86 89,113 31,21 80,36 145,45l55 8z"/>
  <path id="31" class="fil1" d="M15195 10789l107 32c-68,-79 -86,-171 -55,-275 21,-68 58,-125 113,-170 54,-46 119,-75 195,-85 77,-12 159,-4 246,22 84,26 157,63 218,112 60,49 101,107 121,175 19,68 19,136 -2,206 -16,51 -40,94 -74,127 -33,34 -71,58 -113,73l420 126 -43 143 -1173 -352 40 -134zm561 -328c-109,-33 -197,-34 -265,-4 -67,29 -111,75 -129,138 -19,63 -10,124 29,184 38,59 110,105 216,136 116,35 208,39 276,10 68,-28 112,-75 131,-141 20,-64 10,-126 -30,-184 -39,-59 -115,-105 -228,-139z"/>
  <path id="32" class="fil1" d="M15070 11871l-83 133c-72,-60 -117,-131 -135,-212 -18,-82 -5,-169 38,-263 54,-118 134,-195 238,-230 105,-36 223,-24 354,37 135,62 225,146 268,250 42,104 38,212 -13,324 -50,107 -127,179 -232,213 -105,35 -224,21 -357,-40 -8,-3 -20,-9 -36,-17l277 -602c-91,-36 -171,-42 -238,-19 -68,24 -118,69 -149,137 -23,50 -29,99 -19,146 10,48 39,95 87,143zm428 -348l-208 451c71,25 130,31 177,19 72,-20 125,-64 157,-133 29,-63 32,-126 9,-188 -22,-62 -67,-112 -135,-149zm358 345l166 198 -83 180 -135 -265 52 -113z"/>
  <path id="33" class="fil1" d="M14643 12116l723 516 -78 109 -102 -72c20,48 27,98 21,151 -5,53 -25,104 -59,152 -39,54 -81,90 -128,108 -47,18 -95,20 -145,6 44,117 33,222 -33,313 -51,72 -110,113 -177,123 -67,10 -142,-14 -225,-73l-496 -354 87 -122 455 325c49,35 87,56 114,64 28,7 56,5 84,-6 28,-12 52,-31 72,-60 36,-50 49,-105 39,-163 -10,-57 -52,-112 -126,-166l-420 -299 88 -123 469 335c55,39 102,58 144,58 42,-1 78,-24 111,-69 25,-34 38,-73 41,-115 3,-42 -9,-82 -34,-120 -26,-38 -71,-81 -137,-128l-375 -268 87 -122z"/>
  <path id="34" class="fil1" d="M14507 14019l125 119 -103 109 -126 -120 104 -108zm-760 -727l641 613 -104 108 -641 -613 104 -108z"/>
  <path id="35" class="fil1" d="M13226 14232l-124 83c-55,-88 -76,-175 -63,-262 12,-88 55,-163 128,-227 92,-80 192,-114 299,-102 108,11 211,73 308,185 63,72 106,146 129,221 24,75 23,147 -3,217 -25,70 -67,130 -124,180 -73,63 -149,97 -227,100 -78,4 -153,-23 -225,-79l95 -113c50,36 98,53 144,53 47,-1 89,-18 127,-50 57,-50 86,-111 86,-183 0,-72 -39,-153 -116,-242 -78,-90 -152,-140 -222,-151 -70,-10 -133,8 -188,56 -45,39 -71,85 -76,139 -7,53 11,112 52,175z"/>
  <path id="36" class="fil1" d="M13049 14539c89,138 117,265 84,381 -28,96 -88,175 -180,235 -102,66 -208,87 -316,62 -109,-24 -201,-96 -278,-214 -63,-95 -97,-180 -104,-254 -7,-73 7,-143 42,-209 35,-66 85,-120 150,-163 104,-67 210,-89 317,-64 108,25 203,100 285,226zm-130 84c-62,-95 -129,-153 -202,-173 -72,-20 -140,-10 -203,31 -62,41 -99,99 -109,173 -11,75 15,161 79,259 60,92 126,148 199,168 73,20 140,10 202,-31 63,-41 100,-98 111,-172 11,-75 -15,-159 -77,-255z"/>
  <path id="37" class="fil2 str1" d="M3925 14133l-100 -134c110,-82 222,-122 335,-121 112,2 218,43 317,123 103,84 169,172 200,266 30,94 30,194 -1,301 -31,106 -83,205 -157,296 -81,99 -170,170 -268,213 -98,43 -197,55 -298,36 -101,-18 -193,-61 -277,-130 -95,-77 -156,-166 -181,-268 -26,-101 -16,-206 30,-314l148 72c-34,87 -43,163 -27,229 16,65 56,124 120,176 73,59 148,91 226,96 78,5 150,-14 218,-57 68,-42 127,-96 178,-158 66,-81 112,-161 137,-241 26,-79 26,-154 0,-224 -25,-71 -67,-129 -125,-176 -71,-58 -147,-86 -229,-85 -82,1 -164,34 -246,100z"/>
  <path id="38" class="fil2 str1" d="M3289 13261l-88 -130c85,-41 168,-53 249,-36 82,17 156,65 224,143 85,98 122,202 112,312 -10,109 -70,212 -179,307 -113,98 -225,145 -338,141 -113,-4 -210,-52 -290,-145 -78,-89 -111,-189 -100,-299 12,-110 73,-213 184,-309 7,-6 17,-14 30,-26l435 500c70,-68 108,-138 115,-210 7,-71 -15,-135 -63,-191 -36,-41 -78,-67 -126,-78 -47,-10 -102,-3 -165,21zm140 533l-325 -374c-52,54 -82,105 -89,153 -13,74 6,140 56,198 46,52 101,81 167,86 66,5 130,-16 191,-63z"/>
  <path id="39" class="fil2 str1" d="M3247 12771l-744 484 -74 -113 106 -69c-117,-2 -210,-54 -277,-157 -29,-45 -48,-91 -56,-139 -8,-48 -5,-90 9,-126 13,-36 36,-69 67,-100 20,-20 60,-49 118,-87l457 -297 82 126 -452 294c-51,34 -87,63 -105,90 -20,26 -29,57 -27,92 0,34 12,69 34,102 35,54 82,89 142,106 59,17 136,-6 232,-68l406 -264 82 126z"/>
  <path id="40" class="fil2 str1" d="M2444 11692l106 -83c28,33 50,64 66,93 27,48 39,89 39,124 -1,35 -11,64 -30,89 -18,24 -67,58 -146,101l-448 245 53 97 -103 56 -53 -97 -193 106 -151 -88 272 -149 -73 -132 103 -57 73 133 455 -249c38,-21 60,-36 69,-47 8,-10 12,-23 13,-37 1,-14 -4,-30 -15,-50 -8,-15 -21,-33 -37,-55z"/>
  <path id="41" class="fil2 str1" d="M2482 11445l-819 342 -52 -125 124 -52c-72,-7 -122,-21 -152,-40 -30,-19 -51,-45 -65,-78 -19,-46 -24,-100 -15,-161l149 -6c-6,42 -2,81 12,115 13,30 34,53 62,70 28,16 61,23 98,20 56,-5 113,-20 171,-44l429 -180 58 139z"/>
  <path id="42" class="fil2 str1" d="M1851 11042c-157,48 -287,39 -389,-26 -85,-55 -143,-134 -174,-240 -35,-116 -26,-223 29,-321 54,-97 149,-165 284,-206 110,-32 200,-41 273,-27 73,14 136,47 189,99 53,53 91,116 113,190 36,119 26,227 -28,323 -55,96 -154,166 -297,208zm-44 -148c109,-32 183,-80 223,-144 40,-64 49,-131 28,-203 -22,-72 -66,-123 -135,-155 -69,-31 -159,-30 -270,3 -106,32 -178,80 -218,143 -40,64 -49,132 -28,203 21,72 66,124 134,155 68,31 157,31 266,-2z"/>
  <polygon id="43" class="fil2 str1" points="1947,9369 726,9468 712,9307 1934,9208 "/>
  <path id="44" class="fil2 str1" d="M1919 8889l-887 -6 0 -135 126 0c-96,-65 -145,-160 -144,-283 1,-54 10,-102 30,-147 19,-45 45,-78 76,-100 32,-23 69,-38 112,-47 28,-5 76,-7 146,-7l546 4 -2 150 -539 -4c-62,0 -107,6 -138,17 -30,12 -55,32 -73,62 -18,30 -28,64 -28,104 0,65 20,120 60,167 40,47 118,70 231,71l485 3 -1 151z"/>
  <path id="45" class="fil2 str1" d="M1884 7541l135 -2c3,43 2,81 -3,114 -8,54 -22,95 -44,122 -21,28 -47,46 -76,54 -30,8 -89,5 -179,-7l-506 -72 -15 109 -116 -17 16 -109 -218 -31 -68 -161 307 44 21 -150 116 17 -21 149 514 74c42,6 70,7 83,4 13,-4 23,-11 33,-22 8,-11 14,-27 18,-49 2,-17 3,-39 3,-67z"/>
  <path id="46" class="fil2 str1" d="M1931 6694l63 -144c80,50 135,114 164,192 29,78 28,166 -1,265 -38,124 -106,211 -204,261 -99,50 -217,54 -355,13 -143,-43 -243,-114 -300,-211 -57,-97 -68,-205 -32,-322 34,-114 100,-195 199,-244 99,-49 219,-52 359,-10 9,3 22,7 39,12l-191 635c95,22 175,17 239,-15 63,-33 106,-85 127,-156 16,-52 16,-102 0,-148 -17,-45 -53,-88 -107,-128zm-375 403l143 -475c-74,-15 -133,-13 -178,6 -69,30 -115,81 -137,154 -19,66 -14,128 17,187 31,58 82,101 155,128z"/>
  <path id="47" class="fil2 str1" d="M2359 6444l81 -124c43,14 80,12 111,-5 41,-22 75,-63 102,-122 29,-63 39,-118 29,-163 -9,-47 -34,-86 -74,-119 -24,-20 -81,-51 -171,-91 43,92 44,183 3,272 -51,111 -131,178 -238,202 -109,24 -219,10 -331,-41 -76,-36 -141,-82 -193,-140 -52,-58 -84,-121 -95,-191 -12,-69 -1,-139 32,-210 44,-96 119,-156 224,-183l-97 -44 58 -127 697 321c126,58 209,112 250,162 40,49 63,109 68,178 5,70 -11,145 -49,226 -44,96 -101,164 -172,203 -70,40 -149,38 -235,-4zm-433 -336c106,49 193,63 261,43 68,-19 117,-61 146,-124 29,-63 28,-127 0,-191 -29,-65 -95,-121 -198,-169 -99,-46 -184,-58 -254,-37 -70,21 -120,62 -148,124 -28,61 -27,123 3,189 30,65 93,120 190,165z"/>
  <path id="48" class="fil2 str1" d="M2740 5485l-774 -435 66 -118 118 66c-38,-61 -59,-109 -62,-144 -3,-36 4,-69 21,-99 25,-45 64,-81 118,-111l96 113c-37,21 -64,48 -82,80 -16,29 -22,60 -18,92 5,33 19,62 45,89 38,41 85,77 140,108l405 228 -73 131z"/>
  <path id="49" class="fil2 str1" d="M3319 4414c2,73 -6,136 -23,188 -18,53 -45,102 -82,148 -62,75 -128,118 -198,129 -70,11 -133,-8 -191,-54 -34,-28 -58,-60 -74,-99 -15,-37 -21,-76 -18,-114 3,-39 13,-77 30,-116 13,-27 35,-67 67,-117 65,-104 108,-184 129,-242 -16,-13 -26,-21 -30,-25 -48,-39 -90,-55 -127,-49 -51,9 -100,42 -148,101 -45,55 -68,103 -70,145 -2,42 16,89 55,141l-109 102c-40,-50 -66,-99 -76,-148 -11,-48 -6,-101 14,-159 20,-58 55,-117 103,-176 48,-59 94,-101 137,-127 44,-25 83,-38 118,-38 36,-1 72,9 109,28 24,12 61,39 113,81l156 127c108,88 179,142 212,160 33,19 68,31 107,38l-100 122c-34,-8 -68,-23 -104,-46zm-269 -202c-17,56 -54,132 -110,226 -33,54 -52,94 -60,121 -7,27 -7,53 1,77 8,25 22,45 42,62 31,25 67,34 107,27 39,-6 78,-32 115,-78 36,-45 59,-93 68,-144 9,-51 3,-98 -18,-143 -16,-34 -50,-72 -102,-113l-43 -35z"/>
  <polygon id="50" class="fil2 str1" points="3676,4160 2791,3314 2895,3205 3780,4052 "/>
  <path id="51" class="fil2 str1" d="M4781 3167l-69 -89c10,104 -28,190 -114,257 -56,44 -119,69 -190,74 -71,7 -141,-8 -209,-43 -69,-35 -131,-89 -187,-160 -55,-70 -93,-142 -114,-217 -22,-76 -20,-146 2,-213 23,-67 63,-123 121,-168 42,-33 86,-53 133,-61 47,-8 92,-6 135,6l-271 -346 118 -92 755 966 -110 86zm-648 -56c70,89 142,141 214,156 72,15 134,2 186,-38 52,-40 79,-96 82,-167 3,-71 -29,-149 -97,-236 -75,-96 -148,-152 -220,-168 -72,-16 -135,-3 -189,40 -53,41 -80,97 -82,168 -2,70 34,152 106,245z"/>
  <path id="52" class="fil2 str1" d="M5531 2386l145 -59c23,91 18,174 -15,250 -34,77 -95,140 -185,190 -113,64 -223,79 -328,47 -105,-33 -193,-112 -264,-238 -73,-130 -96,-250 -69,-359 26,-110 93,-195 200,-254 104,-59 208,-71 313,-37 105,34 193,114 265,242 4,8 11,20 19,36l-577 323c52,82 113,134 181,155 69,21 135,13 200,-23 48,-27 82,-63 102,-107 20,-44 24,-99 13,-166zm-549 29l432 -242c-43,-62 -86,-102 -132,-119 -70,-27 -138,-22 -205,15 -60,34 -100,83 -118,146 -18,63 -11,130 23,200z"/>
  <path id="53" class="fil2 str1" d="M6479 2255l-274 -1194 238 -54 476 781c45,72 77,127 98,163 4,-46 10,-115 20,-206l95 -896 213 -49 273 1194 -152 35 -229 -999 -118 1079 -143 32 -578 -937 233 1016 -152 35z"/>
  <path id="54" class="fil2 str1" d="M8496 1625l157 6c-18,93 -57,167 -119,222 -62,56 -144,87 -247,96 -130,10 -236,-21 -318,-95 -82,-74 -129,-182 -141,-326 -12,-149 17,-268 87,-356 70,-89 166,-138 288,-148 119,-9 219,23 300,98 82,74 128,184 140,331 1,8 2,22 3,40l-660 53c13,97 47,169 100,217 54,47 118,68 192,62 55,-4 100,-22 137,-55 36,-32 64,-80 81,-145zm-512 -203l494 -40c-13,-74 -36,-128 -70,-163 -53,-54 -117,-78 -193,-72 -69,6 -125,34 -168,84 -44,50 -64,114 -63,191z"/>
  <path id="55" class="fil2 str1" d="M8923 873l1 -175 150 1 -1 175 -150 -1zm-200 1393l30 -128c30,9 53,12 71,13 30,0 53,-10 68,-31 15,-20 23,-70 24,-152l6 -932 150 1 -6 935c0,110 -15,186 -44,228 -36,56 -97,83 -181,83 -40,-1 -80,-6 -118,-17z"/>
  <path id="56" class="fil2 str1" d="M9357 1495c23,-163 86,-277 188,-342 84,-55 181,-74 290,-59 121,18 214,71 279,161 66,90 88,205 69,345 -17,113 -46,200 -89,260 -43,60 -100,103 -170,130 -70,26 -143,34 -220,23 -123,-17 -217,-71 -282,-161 -64,-89 -86,-208 -65,-357zm153 22c-16,113 -3,200 38,263 41,63 99,100 173,111 74,10 140,-9 197,-58 57,-50 94,-132 110,-247 16,-109 3,-195 -38,-258 -42,-63 -99,-100 -173,-110 -74,-11 -140,8 -197,57 -57,49 -94,129 -110,242z"/>
  <path id="57" class="fil2 str1" d="M10340 2106l255 -850 130 39 -39 129c51,-50 94,-81 128,-92 33,-11 67,-11 101,-1 48,15 93,45 134,91l-90 119c-29,-32 -61,-53 -96,-63 -32,-9 -63,-8 -94,3 -30,11 -56,32 -77,63 -31,46 -56,100 -75,161l-133 445 -144 -44z"/>
  <path id="58" class="fil2 str1" d="M11518 2388c-69,25 -131,38 -186,38 -55,0 -110,-11 -165,-31 -91,-34 -153,-83 -186,-146 -32,-63 -35,-129 -9,-199 15,-40 38,-74 70,-101 31,-26 65,-44 103,-53 37,-9 77,-12 118,-9 31,3 75,12 133,26 119,29 209,45 270,46 8,-19 12,-31 14,-36 22,-58 24,-103 6,-137 -24,-45 -72,-81 -142,-107 -67,-25 -120,-32 -160,-21 -41,12 -79,44 -117,97l-130 -70c34,-54 73,-94 115,-120 43,-25 95,-38 156,-37 62,1 128,15 200,42 70,26 125,56 163,90 38,33 63,66 74,99 12,33 14,71 8,112 -4,26 -18,70 -42,133l-70 188c-49,130 -77,215 -84,251 -7,38 -8,75 -2,113l-147 -55c-4,-34 0,-72 10,-113zm106 -318c-59,1 -142,-10 -250,-34 -61,-13 -105,-19 -133,-18 -28,2 -52,10 -73,25 -20,16 -35,35 -44,60 -15,37 -12,74 7,110 19,35 56,64 111,84 54,20 107,27 158,19 51,-8 94,-29 130,-63 27,-26 52,-70 75,-132l19 -51z"/>
  <path id="59" class="fil2 str1" d="M11868 2671l473 -752 114 72 -66 105c46,-22 96,-31 149,-29 54,2 105,19 155,50 56,35 95,76 116,121 21,45 25,94 14,144 115,-50 220,-45 315,15 75,47 119,103 133,170 14,66 -6,142 -59,228l-325 516 -127 -79 298 -474c32,-51 51,-90 57,-118 6,-27 2,-55 -11,-82 -13,-27 -34,-50 -64,-69 -53,-33 -107,-43 -165,-30 -57,13 -109,59 -158,136l-275 437 -127 -80 307 -489c35,-56 52,-105 49,-147 -3,-41 -28,-76 -75,-106 -36,-23 -75,-34 -118,-34 -42,-1 -81,13 -118,41 -36,28 -76,76 -119,144l-245 390 -128 -80z"/>
  <path id="60" class="fil2 str1" d="M13769 2710l112 -132 115 98 -113 132 -114 -98zm-684 801l577 -676 114 98 -577 675 -114 -97z"/>
  <path id="61" class="fil2 str1" d="M14040 4036l94 126c-83,45 -166,60 -248,46 -82,-13 -158,-58 -229,-132 -90,-95 -131,-197 -126,-307 6,-111 61,-215 166,-315 109,-102 219,-154 332,-155 113,-1 211,43 296,132 81,86 119,185 112,295 -7,110 -64,215 -170,316 -7,6 -16,15 -30,27l-455 -480c-67,71 -103,142 -106,214 -4,71 20,134 71,188 38,40 81,64 129,73 48,8 103,-1 164,-28zm-163 -527l341 361c50,-57 78,-109 83,-158 9,-74 -12,-139 -65,-194 -47,-51 -104,-77 -170,-79 -66,-3 -129,21 -189,70z"/>
  <path id="62" class="fil2 str1" d="M14089 4537l730 -505 77 112 -104 71c118,-1 211,49 281,150 31,44 51,90 60,138 10,48 8,90 -4,126 -14,36 -35,70 -66,101 -19,21 -58,51 -115,91l-450 310 -85 -124 444 -307c51,-35 85,-66 104,-93 18,-26 26,-58 24,-92 -2,-35 -14,-69 -37,-102 -36,-53 -85,-87 -144,-102 -61,-15 -137,10 -231,74l-399 276 -85 -124z"/>
  <path id="63" class="fil2 str1" d="M14915 5601l-106 82c-28,-32 -50,-64 -67,-93 -26,-48 -38,-89 -38,-124 1,-34 11,-64 30,-88 18,-25 67,-58 146,-102l448 -245 -53 -97 103 -56 53 97 193 -105 151 87 -272 149 73 133 -103 56 -73 -132 -455 249c-38,20 -60,36 -69,46 -8,11 -12,23 -13,37 -1,14 4,31 15,51 8,14 21,32 37,55z"/>
  <path id="64" class="fil2 str1" d="M15281 5619c152,-64 282,-68 390,-14 90,45 156,118 199,219 47,113 48,220 4,322 -44,103 -131,181 -261,236 -105,44 -195,62 -268,56 -74,-6 -140,-33 -199,-79 -59,-47 -103,-106 -133,-177 -48,-115 -50,-223 -5,-324 43,-102 135,-182 273,-239zm60 142c-105,44 -174,100 -207,167 -33,68 -36,136 -7,206 29,69 79,115 151,139 72,24 161,13 269,-31 101,-42 168,-98 201,-166 33,-67 35,-135 7,-204 -29,-69 -79,-116 -150,-140 -71,-24 -159,-14 -264,29z"/>
  <path id="65" class="fil2 str1" d="M15332 7036l1286 259 29 172 -1124 699 -31 -182 342 -203 -85 -505 -389 -71 -28 -169zm555 264l69 410 313 -183c95,-56 174,-98 236,-128 -80,-2 -160,-11 -242,-26l-376 -73z"/>
  <path id="66" class="fil2 str1" d="M15839 8911l-19 148c-102,-15 -182,-56 -240,-123 -58,-66 -87,-148 -88,-245 0,-121 39,-219 118,-293 79,-75 193,-112 341,-113 96,0 180,15 252,47 72,31 126,79 162,144 37,65 55,135 55,212 1,96 -23,175 -72,237 -48,61 -117,101 -207,119l-23 -146c60,-15 104,-40 134,-75 30,-36 45,-79 45,-129 -1,-76 -28,-137 -83,-184 -54,-47 -140,-71 -258,-70 -119,0 -206,24 -260,70 -54,46 -80,105 -80,179 0,59 19,108 55,148 36,39 92,64 168,74z"/>
  <path id="67" class="fil2 str1" d="M15536 9832c-39,-62 -64,-120 -76,-173 -12,-54 -14,-111 -6,-169 14,-97 48,-167 103,-212 54,-46 118,-63 192,-53 43,7 81,22 113,47 33,24 58,54 75,89 17,35 28,73 34,114 3,30 4,76 3,136 -3,122 2,213 14,273 20,3 33,5 38,6 61,9 106,1 135,-24 39,-33 64,-87 74,-162 10,-70 6,-124 -14,-161 -20,-37 -60,-68 -120,-93l41 -142c60,22 107,51 141,86 34,36 58,84 70,145 13,60 13,128 3,204 -11,75 -28,134 -53,179 -24,44 -51,76 -81,94 -30,18 -66,29 -108,32 -26,1 -73,-3 -139,-12l-198 -29c-139,-20 -227,-29 -265,-28 -37,2 -74,9 -110,23l22 -156c33,-11 70,-16 112,-14zm335 35c-14,-57 -22,-141 -22,-251 0,-63 -3,-107 -11,-135 -7,-26 -21,-48 -40,-65 -19,-17 -42,-27 -68,-31 -39,-6 -75,4 -106,31 -30,26 -50,68 -58,126 -8,58 -3,111 16,159 19,48 48,86 89,113 31,21 80,36 145,45l55 8z"/>
  <path id="68" class="fil2 str1" d="M15195 10789l107 32c-68,-79 -86,-171 -55,-275 21,-68 58,-125 113,-170 54,-46 119,-75 195,-85 77,-12 159,-4 246,22 84,26 157,63 218,112 60,49 101,107 121,175 19,68 19,136 -2,206 -16,51 -40,94 -74,127 -33,34 -71,58 -113,73l420 126 -43 143 -1173 -352 40 -134zm561 -328c-109,-33 -197,-34 -265,-4 -67,29 -111,75 -129,138 -19,63 -10,124 29,184 38,59 110,105 216,136 116,35 208,39 276,10 68,-28 112,-75 131,-141 20,-64 10,-126 -30,-184 -39,-59 -115,-105 -228,-139z"/>
  <path id="69" class="fil2 str1" d="M15070 11871l-83 133c-72,-60 -117,-131 -135,-212 -18,-82 -5,-169 38,-263 54,-118 134,-195 238,-230 105,-36 223,-24 354,37 135,62 225,146 268,250 42,104 38,212 -13,324 -50,107 -127,179 -232,213 -105,35 -224,21 -357,-40 -8,-3 -20,-9 -36,-17l277 -602c-91,-36 -171,-42 -238,-19 -68,24 -118,69 -149,137 -23,50 -29,99 -19,146 10,48 39,95 87,143zm428 -348l-208 451c71,25 130,31 177,19 72,-20 125,-64 157,-133 29,-63 32,-126 9,-188 -22,-62 -67,-112 -135,-149zm358 345l166 198 -83 180 -135 -265 52 -113z"/>
  <path id="70" class="fil2 str1" d="M14643 12116l723 516 -78 109 -102 -72c20,48 27,98 21,151 -5,53 -25,104 -59,152 -39,54 -81,90 -128,108 -47,18 -95,20 -145,6 44,117 33,222 -33,313 -51,72 -110,113 -177,123 -67,10 -142,-14 -225,-73l-496 -354 87 -122 455 325c49,35 87,56 114,64 28,7 56,5 84,-6 28,-12 52,-31 72,-60 36,-50 49,-105 39,-163 -10,-57 -52,-112 -126,-166l-420 -299 88 -123 469 335c55,39 102,58 144,58 42,-1 78,-24 111,-69 25,-34 38,-73 41,-115 3,-42 -9,-82 -34,-120 -26,-38 -71,-81 -137,-128l-375 -268 87 -122z"/>
  <path id="71" class="fil2 str1" d="M14507 14019l125 119 -103 109 -126 -120 104 -108zm-760 -727l641 613 -104 108 -641 -613 104 -108z"/>
  <path id="72" class="fil2 str1" d="M13226 14232l-124 83c-55,-88 -76,-175 -63,-262 12,-88 55,-163 128,-227 92,-80 192,-114 299,-102 108,11 211,73 308,185 63,72 106,146 129,221 24,75 23,147 -3,217 -25,70 -67,130 -124,180 -73,63 -149,97 -227,100 -78,4 -153,-23 -225,-79l95 -113c50,36 98,53 144,53 47,-1 89,-18 127,-50 57,-50 86,-111 86,-183 0,-72 -39,-153 -116,-242 -78,-90 -152,-140 -222,-151 -70,-10 -133,8 -188,56 -45,39 -71,85 -76,139 -7,53 11,112 52,175z"/>
  <path id="73" class="fil2 str1" d="M13049 14539c89,138 117,265 84,381 -28,96 -88,175 -180,235 -102,66 -208,87 -316,62 -109,-24 -201,-96 -278,-214 -63,-95 -97,-180 -104,-254 -7,-73 7,-143 42,-209 35,-66 85,-120 150,-163 104,-67 210,-89 317,-64 108,25 203,100 285,226zm-130 84c-62,-95 -129,-153 -202,-173 -72,-20 -140,-10 -203,31 -62,41 -99,99 -109,173 -11,75 15,161 79,259 60,92 126,148 199,168 73,20 140,10 202,-31 63,-41 100,-98 111,-172 11,-75 -15,-159 -77,-255z"/>
  <path class="fil1" d="M6663 16354c-74,82 -155,140 -246,174 -154,58 -313,58 -478,2 -88,-30 -169,-75 -242,-137 -74,-61 -133,-132 -178,-213 -48,-88 -76,-182 -84,-282 -8,-99 4,-198 37,-294 60,-176 179,-306 358,-391 105,-49 214,-79 329,-89 110,-10 211,2 305,34 29,9 63,24 100,44 18,9 70,41 156,97 76,50 133,81 172,94 42,15 97,16 165,4 -39,99 -82,173 -130,222 -31,33 -65,55 -103,68 -38,13 -73,13 -105,2 -29,-9 -54,-28 -76,-56 -16,-22 -33,-58 -51,-108 -31,-90 -63,-154 -97,-194 -35,-39 -78,-67 -131,-85 -44,-15 -91,-21 -141,-16 -50,4 -96,17 -138,39 -54,28 -102,71 -146,128 -44,57 -79,122 -104,195 -60,178 -47,335 40,470 77,120 197,208 359,263 140,48 283,57 429,29zm596 159l132 -752c16,-98 25,-155 26,-174 8,-58 -27,-103 -105,-134l7 -42 618 109 -7 42c-59,1 -100,17 -125,46 -12,16 -22,43 -30,84 -2,12 -11,57 -25,133l-133 751c-16,98 -24,156 -26,173 -8,60 28,104 106,135l-8 42 -618 -109 8 -42c58,-1 99,-16 125,-46 12,-15 21,-44 29,-84 2,-12 11,-56 26,-132zm2161 -593l-223 351c-70,112 -142,241 -218,385 -26,-50 -50,-92 -72,-126 -22,-34 -77,-117 -167,-249l-224 -328 0 428c0,11 1,25 1,41 3,123 20,229 52,319 23,63 51,116 85,158 17,22 45,49 82,82l-547 12c86,-72 148,-161 187,-266 29,-85 47,-212 53,-381l16 -464c-38,-48 -74,-82 -106,-102 -41,-26 -94,-47 -161,-65 91,-67 172,-117 242,-151 77,-35 178,-65 301,-91 0,18 0,32 0,41 1,40 14,85 40,134 12,20 45,70 100,150l276 395 279 -440 -5 -216 495 -12 1 43c-56,12 -94,36 -113,70 -8,17 -13,46 -12,88 -1,12 -1,57 0,135l18 762c4,100 6,158 7,176 5,59 49,96 131,111l1 43 -640 15 -1 -43c59,-7 102,-30 127,-70 8,-17 12,-47 12,-88 0,-13 0,-58 -1,-135l-16 -712zm1715 210l-521 390c0,16 0,26 0,32 -1,33 2,58 6,75 11,39 53,59 125,61l11 42 -376 107 -12 -41c54,-34 90,-68 108,-105 18,-38 36,-115 54,-233l128 -918c-44,-33 -92,-61 -143,-84 59,-59 117,-107 173,-146 56,-38 133,-80 229,-125 5,34 10,58 14,73 4,14 10,29 18,44 3,5 28,37 72,95l604 778c45,59 75,95 90,109 36,33 72,53 108,63 20,5 51,8 93,7l12 41 -663 189 -12 -41c28,-16 47,-30 57,-42 18,-22 22,-48 14,-78 -6,-20 -22,-50 -50,-89l-139 -204zm-129 -159l-270 -339 -82 596 352 -257z"/>
  <path id="1" class="fil2 str1" d="M6663 16354c-74,82 -155,140 -246,174 -154,58 -313,58 -478,2 -88,-30 -169,-75 -242,-137 -74,-61 -133,-132 -178,-213 -48,-88 -76,-182 -84,-282 -8,-99 4,-198 37,-294 60,-176 179,-306 358,-391 105,-49 214,-79 329,-89 110,-10 211,2 305,34 29,9 63,24 100,44 18,9 70,41 156,97 76,50 133,81 172,94 42,15 97,16 165,4 -39,99 -82,173 -130,222 -31,33 -65,55 -103,68 -38,13 -73,13 -105,2 -29,-9 -54,-28 -76,-56 -16,-22 -33,-58 -51,-108 -31,-90 -63,-154 -97,-194 -35,-39 -78,-67 -131,-85 -44,-15 -91,-21 -141,-16 -50,4 -96,17 -138,39 -54,28 -102,71 -146,128 -44,57 -79,122 -104,195 -60,178 -47,335 40,470 77,120 197,208 359,263 140,48 283,57 429,29zm596 159l132 -752c16,-98 25,-155 26,-174 8,-58 -27,-103 -105,-134l7 -42 618 109 -7 42c-59,1 -100,17 -125,46 -12,16 -22,43 -30,84 -2,12 -11,57 -25,133l-133 751c-16,98 -24,156 -26,173 -8,60 28,104 106,135l-8 42 -618 -109 8 -42c58,-1 99,-16 125,-46 12,-15 21,-44 29,-84 2,-12 11,-56 26,-132zm2161 -593l-223 351c-70,112 -142,241 -218,385 -26,-50 -50,-92 -72,-126 -22,-34 -77,-117 -167,-249l-224 -328 0 428c0,11 1,25 1,41 3,123 20,229 52,319 23,63 51,116 85,158 17,22 45,49 82,82l-547 12c86,-72 148,-161 187,-266 29,-85 47,-212 53,-381l16 -464c-38,-48 -74,-82 -106,-102 -41,-26 -94,-47 -161,-65 91,-67 172,-117 242,-151 77,-35 178,-65 301,-91 0,18 0,32 0,41 1,40 14,85 40,134 12,20 45,70 100,150l276 395 279 -440 -5 -216 495 -12 1 43c-56,12 -94,36 -113,70 -8,17 -13,46 -12,88 -1,12 -1,57 0,135l18 762c4,100 6,158 7,176 5,59 49,96 131,111l1 43 -640 15 -1 -43c59,-7 102,-30 127,-70 8,-17 12,-47 12,-88 0,-13 0,-58 -1,-135l-16 -712zm1715 210l-521 390c0,16 0,26 0,32 -1,33 2,58 6,75 11,39 53,59 125,61l11 42 -376 107 -12 -41c54,-34 90,-68 108,-105 18,-38 36,-115 54,-233l128 -918c-44,-33 -92,-61 -143,-84 59,-59 117,-107 173,-146 56,-38 133,-80 229,-125 5,34 10,58 14,73 4,14 10,29 18,44 3,5 28,37 72,95l604 778c45,59 75,95 90,109 36,33 72,53 108,63 20,5 51,8 93,7l12 41 -663 189 -12 -41c28,-16 47,-30 57,-42 18,-22 22,-48 14,-78 -6,-20 -22,-50 -50,-89l-139 -204zm-129 -159l-270 -339 -82 596 352 -257z"/>
  <path class="fil1" d="M3847 8191l111 -11c5,59 19,105 39,138 21,33 51,60 89,80 38,20 82,30 130,30 69,0 123,-17 161,-51 38,-34 57,-78 57,-132 0,-32 -7,-59 -21,-83 -14,-23 -35,-43 -63,-58 -28,-15 -88,-36 -182,-64 -82,-24 -141,-49 -177,-73 -35,-25 -62,-57 -82,-95 -20,-39 -29,-82 -29,-130 0,-87 28,-158 84,-213 56,-55 132,-83 226,-83 66,0 123,13 172,39 49,26 87,63 114,111 27,48 42,105 44,171l-111 10c-6,-69 -27,-121 -63,-155 -36,-33 -86,-50 -151,-50 -66,0 -116,15 -151,44 -35,30 -52,68 -52,114 0,44 13,77 38,101 26,24 83,48 172,72 87,24 148,45 183,62 53,27 94,63 121,107 27,45 41,98 41,160 0,62 -15,118 -44,168 -28,51 -68,89 -117,116 -49,26 -109,39 -179,39 -108,0 -195,-33 -260,-98 -64,-66 -98,-154 -100,-266z"/>
  <path id="1" class="fil1" d="M5279 7464l117 0 0 620c0,104 -10,189 -30,255 -20,67 -57,120 -111,158 -53,39 -121,58 -203,58 -116,0 -202,-35 -260,-104 -58,-69 -87,-192 -87,-367l0 -620 117 0 0 619c0,98 8,168 23,211 15,44 40,77 74,100 34,22 76,34 125,34 82,0 142,-24 179,-71 38,-47 56,-138 56,-274l0 -619z"/>
  <path id="2" class="fil1" d="M5589 8537l0 -1073 331 0c67,0 120,10 159,31 39,21 71,53 96,97 25,44 38,92 38,145 0,49 -11,94 -33,133 -21,40 -52,71 -91,95 51,19 91,51 120,95 29,45 44,100 44,166 0,65 -13,121 -40,171 -26,49 -62,84 -106,107 -45,22 -106,33 -183,33l-335 0zm117 -622l190 0c50,0 86,-3 107,-10 30,-10 53,-28 70,-52 16,-24 24,-57 24,-99 0,-38 -7,-70 -22,-96 -15,-26 -35,-44 -60,-53 -24,-10 -68,-15 -132,-15l-177 0 0 325zm0 496l219 0c48,0 83,-4 106,-13 34,-13 59,-34 76,-63 17,-29 26,-66 26,-110 0,-40 -8,-75 -25,-103 -16,-28 -39,-49 -67,-62 -28,-13 -72,-19 -132,-19l-203 0 0 370z"/>
  <path id="3" class="fil1" d="M6752 8537l0 -1073 303 0c75,0 132,7 171,20 52,17 96,48 133,93 38,46 67,103 88,172 21,69 32,151 32,246 0,121 -18,224 -54,309 -35,85 -81,145 -137,180 -56,35 -129,53 -219,53l-317 0zm117 -126l187 0c75,0 132,-12 171,-37 39,-25 69,-64 90,-119 28,-73 42,-160 42,-262 0,-109 -15,-195 -44,-257 -30,-62 -68,-104 -114,-125 -31,-14 -81,-21 -148,-21l-184 0 0 821z"/>
  <polygon id="4" class="fil1" points="7663,8537 7663,7464 7780,7464 7780,8537 "/>
  <path id="5" class="fil1" d="M7982 8537l0 -1073 390 0c81,0 141,10 180,30 39,20 71,53 96,100 24,47 37,101 37,162 0,81 -21,147 -63,197 -43,51 -104,82 -184,96 32,20 57,39 74,59 35,41 65,87 92,137l153 292 -146 0 -118 -223c-46,-87 -80,-146 -103,-176 -23,-31 -45,-51 -67,-62 -21,-10 -52,-16 -90,-16l-134 0 0 477 -117 0zm117 -599l250 0c54,0 95,-7 124,-20 28,-13 50,-34 67,-62 17,-29 25,-62 25,-99 0,-54 -16,-97 -48,-128 -31,-31 -78,-47 -141,-47l-277 0 0 356z"/>
  <polygon id="6" class="fil1" points="8872,8537 8872,7464 9507,7464 9507,7590 8989,7590 8989,7920 9476,7920 9476,8045 8989,8045 8989,8411 9528,8411 9528,8537 "/>
  <path id="7" class="fil1" d="M10313 8161l117 36c-26,120 -71,210 -135,269 -65,59 -144,89 -236,89 -82,0 -152,-20 -210,-60 -57,-39 -104,-103 -141,-191 -37,-88 -56,-191 -56,-311 0,-118 19,-218 56,-299 37,-82 86,-144 149,-186 63,-41 134,-62 211,-62 85,0 158,27 219,79 61,53 104,131 128,233l-114 33c-39,-149 -117,-224 -235,-224 -58,0 -109,15 -152,45 -43,30 -78,77 -103,141 -26,63 -39,143 -39,240 0,147 26,257 78,330 52,74 120,111 206,111 64,0 119,-23 165,-68 46,-45 77,-113 92,-205z"/>
  <path id="8" class="fil1" d="M11200 8161l117 36c-26,120 -71,210 -136,269 -64,59 -143,89 -236,89 -81,0 -151,-20 -209,-60 -57,-39 -105,-103 -142,-191 -36,-88 -55,-191 -55,-311 0,-118 19,-218 55,-299 37,-82 87,-144 150,-186 63,-41 133,-62 211,-62 85,0 158,27 219,79 61,53 104,131 128,233l-114 33c-39,-149 -117,-224 -235,-224 -59,0 -110,15 -152,45 -43,30 -78,77 -103,141 -26,63 -39,143 -39,240 0,147 26,257 78,330 52,74 120,111 206,111 64,0 119,-23 165,-68 46,-45 77,-113 92,-205z"/>
  <polygon id="9" class="fil1" points="11485,8537 11485,7464 11602,7464 11602,8537 "/>
  <path id="10" class="fil1" d="M11772 8015c0,-183 41,-323 121,-422 81,-98 181,-147 301,-147 78,0 149,22 213,66 63,44 114,107 152,191 37,83 56,183 56,299 0,158 -37,288 -109,388 -79,110 -184,165 -312,165 -130,0 -235,-56 -314,-170 -72,-102 -108,-225 -108,-370zm120 2c0,132 30,234 88,307 58,73 129,110 213,110 85,0 157,-37 215,-111 58,-73 87,-182 87,-325 0,-92 -15,-174 -45,-247 -23,-55 -57,-100 -104,-133 -46,-34 -96,-51 -151,-51 -88,0 -160,37 -217,110 -57,73 -86,186 -86,340zm198 -626l80 -206 140 0 -131 206 -89 0z"/>
  <polygon id="11" class="fil1" points="12757,8537 12757,7464 12877,7464 13339,8308 13339,7464 13450,7464 13450,8537 13331,8537 12870,7694 12870,8537 "/>
  <polygon id="12" class="fil1" points="4484,10234 4484,9161 4604,9161 5066,10005 5066,9161 5177,9161 5177,10234 5058,10234 4597,9391 4597,10234 "/>
  <polygon id="13" class="fil1" points="5397,10234 5397,9161 5514,9161 5514,10234 "/>
  <path id="14" class="fil1" d="M5968 10234l-341 -1073 126 0 229 779c18,61 33,119 46,176 14,-59 30,-117 47,-176l239 -779 118 0 -344 1073 -120 0z"/>
  <polygon id="15" class="fil1" points="6442,10234 6442,10084 6565,10084 6565,10234 "/>
  <path id="16" class="fil1" d="M7106 10234l0 -1073 332 0c78,0 135,7 173,20 50,19 91,53 121,103 30,50 45,112 45,185 0,97 -24,175 -73,236 -50,61 -135,91 -256,91l-225 0 0 438 -117 0zm117 -564l228 0c71,0 124,-16 157,-48 33,-33 50,-82 50,-147 0,-43 -9,-79 -25,-109 -16,-31 -36,-51 -59,-62 -23,-12 -65,-17 -126,-17l-225 0 0 383z"/>
  <path id="17" class="fil1" d="M7926 10234l0 -1073 389 0c82,0 142,10 181,30 39,20 70,53 95,100 25,46 37,101 37,162 0,81 -21,147 -63,197 -42,50 -103,82 -184,96 33,20 58,39 75,59 35,41 65,87 91,137l153 292 -146 0 -117 -223c-46,-87 -80,-146 -103,-176 -23,-31 -45,-51 -67,-62 -22,-10 -52,-16 -91,-16l-134 0 0 477 -116 0zm116 -600l250 0c55,0 96,-6 125,-19 28,-13 50,-34 67,-62 16,-29 25,-62 25,-99 0,-55 -16,-97 -48,-128 -32,-31 -79,-47 -141,-47l-278 0 0 355z"/>
  <polygon id="18" class="fil1" points="8835,10234 8835,9161 8952,9161 8952,10234 "/>
  <path id="19" class="fil1" d="M9151 10234l0 -1073 175 0 208 760 42 159c10,-40 26,-97 47,-173l210 -746 157 0 0 1073 -112 0 0 -902 -256 902 -105 0 -253 -917 0 917 -113 0z"/>
  <path id="20" class="fil1" d="M10082 10234l339 -1073 125 0 359 1073 -133 0 -101 -325 -371 0 -96 325 -122 0zm252 -441l301 0 -92 -297c-29,-91 -50,-165 -63,-222 -12,69 -27,137 -48,205l-98 314z"/>
  <path id="21" class="fil1" d="M10998 10234l0 -1073 389 0c82,0 142,10 181,30 38,20 70,53 95,100 25,46 37,101 37,162 0,81 -21,147 -63,197 -42,50 -104,82 -184,96 33,20 58,39 75,59 34,41 65,87 91,137l153 292 -146 0 -117 -223c-46,-87 -80,-146 -103,-176 -23,-31 -46,-51 -67,-62 -22,-10 -52,-16 -91,-16l-134 0 0 477 -116 0zm116 -600l250 0c55,0 96,-6 125,-19 28,-13 50,-34 67,-62 16,-29 24,-62 24,-99 0,-55 -15,-97 -47,-128 -32,-31 -79,-47 -141,-47l-278 0 0 355z"/>
  <polygon id="22" class="fil1" points="11907,10234 11907,9161 12024,9161 12024,10234 "/>
  <path id="23" class="fil1" d="M12130 10234l339 -1073 125 0 359 1073 -133 0 -101 -325 -371 0 -95 325 -123 0zm252 -441l301 0 -92 -297c-29,-91 -50,-165 -63,-222 -11,69 -27,137 -48,205l-98 314z"/>
  <path id="24" class="fil2 str2" d="M3847 8191l111 -11c5,59 19,105 39,138 21,33 51,60 89,80 38,20 82,30 130,30 69,0 123,-17 161,-51 38,-34 57,-78 57,-132 0,-32 -7,-59 -21,-83 -14,-23 -35,-43 -63,-58 -28,-15 -88,-36 -182,-64 -82,-24 -141,-49 -177,-73 -35,-25 -62,-57 -82,-95 -20,-39 -29,-82 -29,-130 0,-87 28,-158 84,-213 56,-55 132,-83 226,-83 66,0 123,13 172,39 49,26 87,63 114,111 27,48 42,105 44,171l-111 10c-6,-69 -27,-121 -63,-155 -36,-33 -86,-50 -151,-50 -66,0 -116,15 -151,44 -35,30 -52,68 -52,114 0,44 13,77 38,101 26,24 83,48 172,72 87,24 148,45 183,62 53,27 94,63 121,107 27,45 41,98 41,160 0,62 -15,118 -44,168 -28,51 -68,89 -117,116 -49,26 -109,39 -179,39 -108,0 -195,-33 -260,-98 -64,-66 -98,-154 -100,-266z"/>
  <path id="25" class="fil2 str2" d="M5279 7464l117 0 0 620c0,104 -10,189 -30,255 -20,67 -57,120 -111,158 -53,39 -121,58 -203,58 -116,0 -202,-35 -260,-104 -58,-69 -87,-192 -87,-367l0 -620 117 0 0 619c0,98 8,168 23,211 15,44 40,77 74,100 34,22 76,34 125,34 82,0 142,-24 179,-71 38,-47 56,-138 56,-274l0 -619z"/>
  <path id="26" class="fil2 str2" d="M5589 8537l0 -1073 331 0c67,0 120,10 159,31 39,21 71,53 96,97 25,44 38,92 38,145 0,49 -11,94 -33,133 -21,40 -52,71 -91,95 51,19 91,51 120,95 29,45 44,100 44,166 0,65 -13,121 -40,171 -26,49 -62,84 -106,107 -45,22 -106,33 -183,33l-335 0zm117 -622l190 0c50,0 86,-3 107,-10 30,-10 53,-28 70,-52 16,-24 24,-57 24,-99 0,-38 -7,-70 -22,-96 -15,-26 -35,-44 -60,-53 -24,-10 -68,-15 -132,-15l-177 0 0 325zm0 496l219 0c48,0 83,-4 106,-13 34,-13 59,-34 76,-63 17,-29 26,-66 26,-110 0,-40 -8,-75 -25,-103 -16,-28 -39,-49 -67,-62 -28,-13 -72,-19 -132,-19l-203 0 0 370z"/>
  <path id="27" class="fil2 str2" d="M6752 8537l0 -1073 303 0c75,0 132,7 171,20 52,17 96,48 133,93 38,46 67,103 88,172 21,69 32,151 32,246 0,121 -18,224 -54,309 -35,85 -81,145 -137,180 -56,35 -129,53 -219,53l-317 0zm117 -126l187 0c75,0 132,-12 171,-37 39,-25 69,-64 90,-119 28,-73 42,-160 42,-262 0,-109 -15,-195 -44,-257 -30,-62 -68,-104 -114,-125 -31,-14 -81,-21 -148,-21l-184 0 0 821z"/>
  <polygon id="28" class="fil2 str2" points="7663,8537 7663,7464 7780,7464 7780,8537 "/>
  <path id="29" class="fil2 str2" d="M7982 8537l0 -1073 390 0c81,0 141,10 180,30 39,20 71,53 96,100 24,47 37,101 37,162 0,81 -21,147 -63,197 -43,51 -104,82 -184,96 32,20 57,39 74,59 35,41 65,87 92,137l153 292 -146 0 -118 -223c-46,-87 -80,-146 -103,-176 -23,-31 -45,-51 -67,-62 -21,-10 -52,-16 -90,-16l-134 0 0 477 -117 0zm117 -599l250 0c54,0 95,-7 124,-20 28,-13 50,-34 67,-62 17,-29 25,-62 25,-99 0,-54 -16,-97 -48,-128 -31,-31 -78,-47 -141,-47l-277 0 0 356z"/>
  <polygon id="30" class="fil2 str2" points="8872,8537 8872,7464 9507,7464 9507,7590 8989,7590 8989,7920 9476,7920 9476,8045 8989,8045 8989,8411 9528,8411 9528,8537 "/>
  <path id="31" class="fil2 str2" d="M10313 8161l117 36c-26,120 -71,210 -135,269 -65,59 -144,89 -236,89 -82,0 -152,-20 -210,-60 -57,-39 -104,-103 -141,-191 -37,-88 -56,-191 -56,-311 0,-118 19,-218 56,-299 37,-82 86,-144 149,-186 63,-41 134,-62 211,-62 85,0 158,27 219,79 61,53 104,131 128,233l-114 33c-39,-149 -117,-224 -235,-224 -58,0 -109,15 -152,45 -43,30 -78,77 -103,141 -26,63 -39,143 -39,240 0,147 26,257 78,330 52,74 120,111 206,111 64,0 119,-23 165,-68 46,-45 77,-113 92,-205z"/>
  <path id="32" class="fil2 str2" d="M11200 8161l117 36c-26,120 -71,210 -136,269 -64,59 -143,89 -236,89 -81,0 -151,-20 -209,-60 -57,-39 -105,-103 -142,-191 -36,-88 -55,-191 -55,-311 0,-118 19,-218 55,-299 37,-82 87,-144 150,-186 63,-41 133,-62 211,-62 85,0 158,27 219,79 61,53 104,131 128,233l-114 33c-39,-149 -117,-224 -235,-224 -59,0 -110,15 -152,45 -43,30 -78,77 -103,141 -26,63 -39,143 -39,240 0,147 26,257 78,330 52,74 120,111 206,111 64,0 119,-23 165,-68 46,-45 77,-113 92,-205z"/>
  <polygon id="33" class="fil2 str2" points="11485,8537 11485,7464 11602,7464 11602,8537 "/>
  <path id="34" class="fil2 str2" d="M11772 8015c0,-183 41,-323 121,-422 81,-98 181,-147 301,-147 78,0 149,22 213,66 63,44 114,107 152,191 37,83 56,183 56,299 0,158 -37,288 -109,388 -79,110 -184,165 -312,165 -130,0 -235,-56 -314,-170 -72,-102 -108,-225 -108,-370zm120 2c0,132 30,234 88,307 58,73 129,110 213,110 85,0 157,-37 215,-111 58,-73 87,-182 87,-325 0,-92 -15,-174 -45,-247 -23,-55 -57,-100 -104,-133 -46,-34 -96,-51 -151,-51 -88,0 -160,37 -217,110 -57,73 -86,186 -86,340zm198 -626l80 -206 140 0 -131 206 -89 0z"/>
  <polygon id="35" class="fil2 str2" points="12757,8537 12757,7464 12877,7464 13339,8308 13339,7464 13450,7464 13450,8537 13331,8537 12870,7694 12870,8537 "/>
  <polygon id="36" class="fil2 str2" points="4484,10234 4484,9161 4604,9161 5066,10005 5066,9161 5177,9161 5177,10234 5058,10234 4597,9391 4597,10234 "/>
  <polygon id="37" class="fil2 str2" points="5397,10234 5397,9161 5514,9161 5514,10234 "/>
  <path id="38" class="fil2 str2" d="M5968 10234l-341 -1073 126 0 229 779c18,61 33,119 46,176 14,-59 30,-117 47,-176l239 -779 118 0 -344 1073 -120 0z"/>
  <polygon id="39" class="fil2 str2" points="6442,10234 6442,10084 6565,10084 6565,10234 "/>
  <path id="40" class="fil2 str2" d="M7106 10234l0 -1073 332 0c78,0 135,7 173,20 50,19 91,53 121,103 30,50 45,112 45,185 0,97 -24,175 -73,236 -50,61 -135,91 -256,91l-225 0 0 438 -117 0zm117 -564l228 0c71,0 124,-16 157,-48 33,-33 50,-82 50,-147 0,-43 -9,-79 -25,-109 -16,-31 -36,-51 -59,-62 -23,-12 -65,-17 -126,-17l-225 0 0 383z"/>
  <path id="41" class="fil2 str2" d="M7926 10234l0 -1073 389 0c82,0 142,10 181,30 39,20 70,53 95,100 25,46 37,101 37,162 0,81 -21,147 -63,197 -42,50 -103,82 -184,96 33,20 58,39 75,59 35,41 65,87 91,137l153 292 -146 0 -117 -223c-46,-87 -80,-146 -103,-176 -23,-31 -45,-51 -67,-62 -22,-10 -52,-16 -91,-16l-134 0 0 477 -116 0zm116 -600l250 0c55,0 96,-6 125,-19 28,-13 50,-34 67,-62 16,-29 25,-62 25,-99 0,-55 -16,-97 -48,-128 -32,-31 -79,-47 -141,-47l-278 0 0 355z"/>
  <polygon id="42" class="fil2 str2" points="8835,10234 8835,9161 8952,9161 8952,10234 "/>
  <path id="43" class="fil2 str2" d="M9151 10234l0 -1073 175 0 208 760 42 159c10,-40 26,-97 47,-173l210 -746 157 0 0 1073 -112 0 0 -902 -256 902 -105 0 -253 -917 0 917 -113 0z"/>
  <path id="44" class="fil2 str2" d="M10082 10234l339 -1073 125 0 359 1073 -133 0 -101 -325 -371 0 -96 325 -122 0zm252 -441l301 0 -92 -297c-29,-91 -50,-165 -63,-222 -12,69 -27,137 -48,205l-98 314z"/>
  <path id="45" class="fil2 str2" d="M10998 10234l0 -1073 389 0c82,0 142,10 181,30 38,20 70,53 95,100 25,46 37,101 37,162 0,81 -21,147 -63,197 -42,50 -104,82 -184,96 33,20 58,39 75,59 34,41 65,87 91,137l153 292 -146 0 -117 -223c-46,-87 -80,-146 -103,-176 -23,-31 -46,-51 -67,-62 -22,-10 -52,-16 -91,-16l-134 0 0 477 -116 0zm116 -600l250 0c55,0 96,-6 125,-19 28,-13 50,-34 67,-62 16,-29 24,-62 24,-99 0,-55 -15,-97 -47,-128 -32,-31 -79,-47 -141,-47l-278 0 0 355z"/>
  <polygon id="46" class="fil2 str2" points="11907,10234 11907,9161 12024,9161 12024,10234 "/>
  <path id="47" class="fil2 str2" d="M12130 10234l339 -1073 125 0 359 1073 -133 0 -101 -325 -371 0 -95 325 -123 0zm252 -441l301 0 -92 -297c-29,-91 -50,-165 -63,-222 -11,69 -27,137 -48,205l-98 314z"/>
  <line class="fil0 str3" x1="3361" y1="10697" x2="14222" y2= "10697" />
  <line class="fil0 str3" x1="3361" y1="6975" x2="14222" y2= "6975" />
 </g>
</svg>
